<svg xmlns='http://www.w3.org/2000/svg' viewBox="0 0 1521.6666666666667 1300"><rect width="1521.6666666666667" height="1300" fill="rgb(210, 224, 178)" /><g transform="scale(1,1)"><path d="M306.06 711.92L323.05 710.07L343.98 709.92L363.08 705.93L380.95 703.06L398.08 701.06L415.99 695.09L430.99 686.08L445.93 678.94L458.93 671.93L472.99 664.91L485.01 650.96L490.92 637.96L500.94 624L502.1 606.95L505.92 586.91L510.05 568.94L513.95 553.95L519.08 541.02L515.1 528.08L514.02 511.95L510.06 495.08L502.01 478L493.02 460.97L483.09 444.09L470 429.04L457.04 411.97L442.05 397.06L429.91 383.07L445.98 372L452.99 358.98L466.05 352.08L477.01 342.07L489.05 330.92L499.07 319.92L508.01 310.92L512.04 297.09L514.07 281.92L520.97 269.1L522.91 255.99L521.02 240.94L521.02 216L523.02 201.08L520.95 189.02L514.99 175.91L513.92 163.09L511.96 151.93L506.02 139.98L504.01 126.98L498.94 116L488.98 107.01L485.05 93.94L474.91 86.05L466.07 79.1L460.1 65.06L452.93 55.02L439.95 52.05L432.92 39.98L422.96 35.03L412.07 28.9L400.02 24.07L390.94 16.09L379.1 11.99L365.95 6.92L350.97 7.02L337.99 3.01L322.9 1.07L301.91 -0.95L282.09 -0.96L263.01 -4.97L242.09 -9.03L220.94 -6.96L200.97 -7.06L182.92 -2.08L163.91 -0.92L147.08 6.97L129 13.99L116.07 26.98L106 41.98L96.02 55L86.92 70.08L78.03 85.95L75.92 104.93L71.97 120.92L75.91 140.02L78.01 160.04L78.91 178.05L81.08 197.07L91.06 214.05L98.02 232.94L107.01 248.06L120.97 260.93L128.98 275.98L139.98 287.05L152.9 299.02L166.04 309.06L178.91 319.91L189.1 331.06L204.01 342.96L191.05 357.04L181.03 367.98L172 384.04L158.95 399.02L146.96 414.09L135.95 431.06L123.03 444.09L118.09 460.95L112 477.99L106 493.04L107.08 507.9L107.05 521L112.09 534.95L116.07 547.99L117.94 560.94L126.98 569.98L132.91 582.06L138.05 595.01L145.9 605.07L155.08 613.98L160.09 623.96L165.95 636.91L175.01 644.05L188 650.94L194.91 667.93L212.05 676.95L221.04 685.99L233.91 688.05L245.09 692.04L258.02 693.07L269.03 701.07L279.91 707.99L290.98 712.02ZM270.06 612.08L254.91 607.05L241.97 595.04L233.96 583.03L229.97 568.96L229.96 534.92L233.99 518.98L239.93 504.01L247.08 493.09L261.02 482.09L277.97 471.08L294.91 458.01L312.94 445.94L331.93 433.97L352.96 421.93L363.07 426.93L373.91 433.98L387 443.9L398.05 457.96L405.06 473.08L409.03 489L413.96 506.03L413.95 521.03L412.01 536.99L404.95 548.04L402.04 559L394.1 570.02L384.92 578.05L373.91 587L362.94 592.97L350 598.06L337.03 605.07L319.03 606.96L302.06 608.96L287.07 611.92ZM266.99 296.08L261.08 289.03L248.98 278.08L233.92 267.01L221 256.04L207.93 242.91L197.04 230.01L188.06 211.99L180.95 195.07L182.95 176.05L188.05 157.99L194.93 139.94L205.91 125.05L218.91 114.08L234.03 107.01L272.07 99.09L312.99 99.06L355.05 102.98L372.08 106.91L389.03 114.05L398.02 127.01L404.01 139.98L407.05 153.98L406.93 194.96L404 210.09L395.96 226.05L386.97 240.98L372.08 256.02L356.91 269.02L338.04 279.93L319.07 289.05L298.03 295.09L273.95 303.07Z" fill="rgb(1, 111, 95)" transform="scale(1.0131249822332349,-0.9970170513461957) translate(20,-1000) rotate(0)"/>
<path d="M349.04 354.08L364.98 353.92L370.07 351.01L358.01 326.92L364.94 316.02L351 298.03L348.04 282.97L341.93 274.94L324.93 272.06L316.09 264.06L297.06 262.92L287.96 255.05L275.92 246.05L262.1 243.94L247.04 249.01L232.96 248.92L216.95 249.9L205.09 248.95L191.9 248.94L175.03 247.98L160.97 245.02L149.01 242.04L132.93 240.95L116.04 244.98L99.91 245.99L84.95 249.1L72.96 252L61.92 256.95L55.97 270.08L54.03 287.03L59.93 304.02L70.97 318L82.98 332.95L99 343.95L115.96 347.98L131.97 345.92L144.92 344.05L157.01 339.05L170.08 334.98L180.93 336.97L193.05 338.93L205.06 342.97L259.94 343.02L272.97 339.03L287.95 336.95L300.04 334.99L313.95 339.06L331.09 344Z" fill="rgb(187, 2, 150)" transform="scale(1.0001871714661215,-0.9969416694069816) translate(603.5,-1000) rotate(-7)"/>
<path d="M228.92 517.91L245.93 516.05L264.91 516.07L281.01 510L299.93 512.07L315.91 506.99L332.05 499L346.92 493.95L362.05 491.95L376 490.06L391.95 485.07L413.98 463.06L420.01 450L429.03 438.94L436.02 426.01L440.02 408.93L442.05 389.97L444.08 369.9L439.93 349.94L435.99 331.93L421.98 309.97L418.03 299.08L409.04 290.06L403.05 278.1L394.06 271.07L383 263.08L375.01 251.99L362.93 246.96L355.94 236.92L346.91 228.07L340.06 219.09L334.04 207.08L324.97 200.08L316.02 190.05L302.01 185.05L288.99 174.08L277.98 159.08L263.07 145.98L255.96 131.99L264.94 124.9L279.94 123.01L296.02 124.95L316.97 118.92L336.01 120.95L372.92 121L386.95 128.96L405.05 132.03L418.08 149.91L436.06 154.93L451.96 161.02L462.9 155.05L474.07 152L480.03 136.06L482.99 121.01L484.92 105.93L485.01 94.09L479.94 80.9L474.03 66.97L461.02 59.08L453.93 48.09L444.05 36.94L435.9 24.08L421.92 11.97L408.9 -0.01L396.06 -6.1L385.02 -4.07L372.99 -2.01L357.94 -1.97L340.1 2.95L320.99 12L301.95 13.09L284.91 10.07L270.01 11.95L254.03 13.01L237.91 7.97L223.04 10.03L197.92 10.09L184.9 11.98L168.96 12.01L156 4.93L145.04 0.99L132.04 -1.94L119.09 -2.07L99.96 2.99L84.9 20.97L74.07 36.94L75.9 51.95L79.94 68.92L86.91 80.92L93.9 94.01L105.05 104.97L116.03 118.03L128.04 123.05L137.94 136.06L154.02 146.01L166.9 160.97L179.1 177.05L191.9 191.91L207.08 198.05L213.98 207.09L236 223.01L245.99 229.99L256.09 240.92L265.04 248.04L279.97 251.97L284.99 265.06L293.98 273.97L301.98 286.05L314.07 295.96L316.07 307.92L324.99 318.92L326.99 331.97L326.97 345.03L318.91 360.92L303.93 371.99L287.1 381.03L266.95 386.99L245.98 396.09L222.98 400.03L203.09 393.92L182.9 390.08L165.05 382.94L152.05 373.97L133.98 372.04L117.06 371.93L99.99 377.92L95.96 394.03L94.1 409.08L95.94 426.09L102.91 439.01L120.91 461.02L134.01 465.02L145.08 474.02L156 485.99L165.07 496.07L179.08 503.08L192.07 504.92L202.9 511.93L214.02 513.99Z" fill="rgb(180, 4, 71)" transform="scale(1.011577982888025,-0.9951749059803872) translate(1019.6666666666667,-1000) rotate(0)"/></g><path d="M98,545 C432.1666666666667,1077 788.8333333333334,1267 1418.5,251" stroke="rgb(169, 98, 4)" stroke-width="39" fill="none"/>
<path d="M43,371 C155.16666666666669,476 1368.8333333333335,17 1441.5,1149" stroke="rgb(152, 22, 61)" stroke-width="39" fill="none"/></svg>