<svg xmlns='http://www.w3.org/2000/svg' viewBox="0 0 1553.6666666666665 1300"><rect width="1553.6666666666665" height="1300" fill="rgb(73, 109, 182)" /><g transform="scale(1,1)"><path d="M397.99 696.06L415.06 696.07L430.03 689.95L439.98 683L432.03 671.07L427.91 656.93L424.94 645.01L416.95 633.9L407.99 623.03L393.04 614.93L372.04 605.91L351.99 598.97L333.09 585.98L313.09 580.04L292.06 571.91L274.97 560.97L258.04 554.1L245.07 544.03L236.05 530.96L224.94 519.94L219.04 502.99L214.07 488.06L201.92 475.01L197.1 460.02L189.02 444.91L178.07 433.97L176.07 417.06L173.06 404.05L167.93 380.01L188.93 394.97L200.96 400.99L212 405.96L225.03 412L238.09 413.93L248.95 421.02L260.07 429.07L273.06 434.1L289.96 434.01L306.97 440.09L324.04 438.05L340.95 433.99L374 433.97L387.07 427L402.06 419.05L415.01 409.98L427.04 399.01L438.01 390.97L458.03 370.95L465.91 359.91L472.92 347.93L475.02 332.92L480.98 322.09L483.97 309.07L484.03 296.01L486.02 282.9L489.99 269.97L485.98 257.08L489.95 243.96L490.05 231.09L483.96 218.01L484 204.9L483.03 193.09L474.92 180.07L470.9 171.07L471.08 157.92L461.98 148.92L457.98 136.9L453 125.91L440.95 116.9L436.06 106.95L427 99.99L419.05 88.91L410.09 80.91L401.92 71.93L391.06 63.92L381.95 58.99L369.9 51.04L358.97 45.96L350.04 40.04L341.1 29.06L327.98 28.96L318.01 20.1L303.07 15.91L283.08 12.04L263.94 3.01L245.05 1.03L230.03 1.06L215.1 5.06L201.92 12.07L189.03 14.05L176.08 19.92L162.92 23.01L148.03 27.04L123.92 51.1L101.91 80.94L89.94 96.09L81.05 110.92L75.08 127.91L67.93 144.95L58.93 162.05L60.04 178.04L55.04 193.01L59.04 208.08L57.01 221.08L56.94 236.07L52.93 270.03L54.97 286.98L55.06 302.03L59.01 317.94L58.99 341.07L68.01 361.07L75.09 383.99L85.02 403.98L89.93 424.95L99.91 445.01L113.08 464.09L118.07 487.08L130.93 503.09L145.05 519.98L154.06 541.02L169 556.03L181.93 572.08L196.92 586.95L214.04 598.93L227 612.01L235.96 622.95L248.92 624.98L259.92 630.06L270.06 642.03L281 644.94L288.08 655.04L300.98 657.99L316.01 664.07L333.02 675.02L355.98 680.94L377.98 688.05ZM270.02 332.09L250.93 328.04L233.98 321.97L217 315.02L201.09 308.98L180.04 303.09L160.94 298.9L157.9 276.91L158.94 260.93L158.94 243.96L163.04 229.07L170.99 214.08L180 200.96L188.95 183.91L201 166.95L227.08 137.09L243.05 126.05L264.07 119.05L282.99 117.04L299.92 114.97L314 120.9L351.92 135L364.97 150.04L373.93 165.07L384.05 182.03L387.04 199.05L388.94 218.01L386.97 236.07L382.01 255.03L372.08 272.04L360.99 288.9L348.01 303.93L332.93 315.01L312.94 321.96L290.08 329.99Z" fill="rgb(26, 11, 4)" transform="scale(1.0191882129310974,-0.9823852058163778) translate(-49,-1000) rotate(-3)"/>
<path d="M385.03 498.07L397.97 501.91L409.96 497L424.01 491.97L436.06 491.06L467.91 491.01L483.04 491.92L515.02 492.03L528.01 495.04L542.09 493.99L551.01 485.96L560.08 473.97L559 458.99L552.9 449.94L542.09 439.09L530 435.1L518.06 427.02L502.96 421.1L489.09 417.94L473.91 409.98L460.93 393.98L452.08 379.95L444.98 369.05L438 359.04L424.98 350.06L412.99 325.97L404.06 316.09L395.99 305.97L388.94 293.04L374.98 280.04L371.04 262.92L374.01 250.03L380.97 236.94L389.03 226.94L396.08 216.94L398.92 207.04L401.93 197.99L406.96 188.95L413.07 180.9L418.94 174.06L424.94 165.98L428 156.97L432.96 146.99L441.04 138.97L447.94 130.97L451.01 122.09L462.98 104.03L473.95 92.02L490.94 85.91L504.05 82.96L516.05 84.07L530.08 85.95L548.09 94.03L565.02 88.97L580.05 76.95L590.09 70.09L582.96 64.04L565.08 47.97L553.95 44.07L548.07 33.06L529.93 21.03L519.02 13.96L507.06 9.01L491.9 7.01L476.98 6.07L463.03 6.93L448.02 6.07L436.06 7.01L424 0.08L411.04 3L398.98 -3.01L383.06 -1.92L371.06 -3.03L361.01 -2.07L351.07 3.99L340.09 17.91L335.03 30.92L339.93 43.96L345.07 55.98L351.07 66.97L348 79.99L343.04 94.93L336.98 109.1L326.04 129.99L316.05 142.07L305.01 154.02L301.08 166.97L292.05 180L281.97 182.92L266.07 166.91L255.98 157.91L246.09 145L239.98 131.04L228.92 119.03L225 105.03L222.94 94.08L221.92 85.98L233.95 87.06L249.08 87.06L261.04 83.05L272.02 86.06L281.07 81.02L295.02 77.02L296.05 66.02L284.01 56.97L274.94 42.93L262.91 34.01L252.06 21.99L239.91 13.92L225.92 8L210.92 4.92L195.9 5.06L178 8L163.09 4.08L148.94 1.94L135.05 -1.07L105.02 -1.05L91.02 -6.95L76.9 -6.96L60.94 -5.06L50.02 -1.99L42.97 5.05L33.97 12.92L34.02 25.99L32.09 36.91L37.98 45.08L46 54.04L52.07 60.96L59.97 70.94L70.95 75.01L79.98 80L89.9 86L99.08 87L119.93 87.01L129.92 96.06L138.05 104.02L149.07 110.03L162.94 134.03L169.93 147L178.03 157.96L182.06 172.09L194.09 181.09L198.92 195.01L204.92 207.08L209.99 219.97L217.03 231.05L220 244.92L227.91 256.06L230.93 265.95L229.02 276L225.03 285.9L219.04 296.01L207.94 303.93L202.09 315.05L194.05 326.95L186.95 338.97L175.95 350.04L166.94 361.96L155.95 370.94L149.02 382.91L140.05 394.07L129.03 405.05L118.99 412.08L103.1 410.04L86.97 410.03L69.92 406.96L54.94 409.93L45.97 421.05L37.94 433.09L42.91 446.91L49.06 455.92L58.07 460.9L65 467.01L72.97 476.07L76.96 484.94L87.09 489.02L96.94 492L110.04 497.9L129.04 498.09L146.02 497.08L163.9 497.03L182.06 493.97L201.96 494.02L218.92 500.09L236.94 494.05L251.92 494.93L261 489.06L272.05 484.99L284.04 483.03L292.9 477.03L298.04 468.06L296 456L282.03 449.07L272.9 439.02L263.91 427.08L258.08 418.02L267.04 406.94L272.93 394.03L282.05 386.01L290.06 374.01L302.07 362.1L311.97 347.94L320 333.09L328.91 328.91L338.96 330.01L346.01 345.07L357.97 354.05L370.93 359.93L380.9 372.01L392 384.91L397.9 397.05L402.08 412.02L402.05 421.06L392.92 426L384.03 431.98L373.98 429.04L363.08 433.01L354.07 426.95L342.94 430.04L335.09 432.92L325.93 442L335.03 457.98L342.94 467.96L349.02 478.95L357.93 482.92L365.98 488.06L374.98 494.07Z" fill="rgb(14, 1, 1)" transform="scale(0.9870621760608042,-0.9871618484160457) translate(422.3333333333333,-1000) rotate(-20)"/>
<path d="M248.93 504.07L267.91 501.96L288.09 498.06L306.07 496.94L322.09 483.98L339.09 476.96L356.04 467.94L369.96 458.02L382.94 445.96L397.1 433.1L406.03 418.94L415.04 403.95L417.02 388.05L425.95 370.05L426.1 351.05L420.99 332.07L415.08 314.1L409.94 301.05L403.94 286.1L392.93 274.09L384.06 255.06L372.98 242.99L360.95 230.1L355.96 214.04L361.01 198.07L371.01 182.91L383.05 169.97L398.1 158.02L410.98 142.07L424.08 128.97L436.97 113.91L444.07 93.97L453.91 74.95L459.94 54.06L462.04 33.07L455.95 12.02L455.98 -8.93L449.99 -27.97L439.98 -44.91L432.96 -64L421.05 -81.92L409.95 -96.96L397.93 -112.99L380.97 -122.91L367.9 -136.93L352.06 -148.95L337 -158.04L321.9 -169.04L300.99 -176.1L279.9 -178.05L257.09 -185.05L237.09 -189.98L223 -193.99L206.95 -196.06L194.04 -191.93L142.05 -192.09L112.07 -177.94L100 -167.98L83.02 -160.94L65.05 -146.92L48 -137.04L35.94 -129.05L26.98 -117.92L27.01 -100.9L38.93 -83.04L47.95 -67.98L60.92 -55.08L72.99 -45.03L90.09 -45.01L106.08 -51.03L121.94 -52.93L142.06 -61.95L160.96 -69.08L195.07 -82.92L210.03 -82.93L224 -84.98L257.07 -85.1L271.96 -83.07L288 -77.98L301.07 -74.06L313.9 -67.92L322.08 -54.92L324.03 -38L331.05 -14.94L326.07 8.05L318.96 28.96L308.07 47.05L293.91 66.05L280.08 81.02L261.01 90.99L245.09 97.96L233.98 107.04L220.96 109.96L208.98 119.99L201.08 129.06L189.01 140.03L182.93 156.03L175.97 170.04L179.96 184.03L189.08 195.99L198.96 213.96L216.93 228.01L234.03 240.94L242.9 250.92L257.06 254.95L266 264.93L271.91 277L283.93 282.05L290.09 293.95L289.91 322.07L285.96 341.97L269.96 354.9L251.91 366.09L235.95 375.98L217.02 376.07L195 374.1L173.98 371.93L156.96 364.09L136 362L118.03 360L87.94 369.99L79.9 385.95L73.92 401.03L78.02 417.07L87.98 435.03L100.03 454.93L118.01 467.94L142.07 473.93L161.06 486.08L182.93 491.91L207 496.98L228.03 503.93Z" fill="rgb(10, 2, 1)" transform="scale(0.9889437419985656,-0.9926779601305372) translate(1013.6666666666666,-1000) rotate(-20)"/></g><path d="M7,503 C384.3666666666667,152 879.8333333333333,984 1464.2999999999997,694" stroke="rgb(46, 18, 5)" stroke-width="5" fill="none"/>
<path d="M122,101 C363.3666666666667,720 1342.8333333333333,816 1456.2999999999997,847" stroke="rgb(0, 0, 0)" stroke-width="5" fill="none"/></svg>