<svg xmlns='http://www.w3.org/2000/svg' viewBox="0 0 1882.6666666666667 1300"><rect width="1882.6666666666667" height="1300" fill="rgb(221, 162, 217)" /><g transform="scale(1,1)"><path d="M103.93 503.08L121.03 503.02L138.05 501.95L153.96 502.05L167.07 498L187.94 493.98L206.97 498.03L247.09 497.96L266.08 501.98L285.06 494.95L303.96 499.08L320.9 495.07L338.97 497.98L357.01 491.06L372.08 495.06L385.94 497.93L399.92 497.98L415.94 502.06L430.06 497.97L442.93 493.91L454.94 497.92L472.08 495.01L489.98 488.98L504.98 475.91L503.97 457.05L500 438.06L489.98 425.07L485.03 412.08L479.91 402.1L467.05 388.92L453.99 374.95L443.09 352.91L423.06 338.08L412.04 315.96L396.04 303.05L386.07 284.96L371.98 272.06L361.91 255.91L354.04 238L339.09 224.95L334.08 205.98L321.01 188.95L311.93 173.95L302.94 159.97L299.01 141.94L286 128.91L284.98 113.93L271.08 102.98L266.97 88.98L257.99 80.08L254.04 65.98L242.97 56.9L237.92 45.98L225.99 33.94L221.02 18.95L212.04 1.1L203.05 -12.93L194.01 -31.02L180.92 -44.92L169.97 -58.06L166.09 -76.09L161.1 -88.93L150.93 -102.96L143.93 -118.02L135.07 -135.05L119.98 -150.08L102.02 -163.02L85.02 -175.91L66.95 -176.95L52.05 -164.95L47.94 -152.92L50.96 -139L51.95 -119.06L61.92 -100.05L70 -80.1L84.02 -61.95L96.97 -45.99L111.08 -30.02L120.92 -11.94L134.08 5.98L139.06 23.94L147.95 40.98L156.99 55.99L165.94 69.08L175.01 83.95L184.98 99.98L189.98 116.08L201.04 133.03L212.05 146.01L221.05 160.96L231.04 176.05L240.01 192.05L243.94 210.09L257 222.99L266.05 237.96L275.95 253.07L288.93 264.9L298.95 280.02L307.04 298.05L317.06 310.99L334 321.96L343.08 338.99L349.05 356.91L345.99 370.99L340.02 380.92L325.96 387.98L308.05 385L288.98 385.06L267.05 387.9L247.01 391.93L225.98 384.92L204.06 383.93L180.91 381.09L160.9 385.03L138.05 384.09L117.09 380.99L97 379.92L80.95 385.06L65.98 388.91L54.93 398.92L42.98 412.03L44.09 426.03L47.98 438.93L58.05 453.93L73.96 471.99L88 491.09Z" fill="rgb(124, 23, 171)" transform="scale(1.0177980759510785,-0.9843179360509036) translate(-1.3333333333333286,-1000) rotate(-12)"/>
<path d="M384.92 497.96L398.06 502.02L410.06 496.98L424.02 492.09L435.95 490.95L467.98 491.04L483.06 492.08L515.03 492.02L527.94 494.9L541.92 493.92L551.03 486.09L560.02 474.02L558.97 459.04L553 449.96L541.95 438.99L530.01 435.07L518.09 426.92L503.02 420.94L489.03 417.91L474.1 409.97L460.97 394.07L451.94 379.97L444.93 368.91L437.93 359.03L425.05 350.07L413.04 326.02L404.08 315.98L395.95 306.05L389.08 292.91L374.95 280.09L371.02 262.97L374.02 250.07L381.03 236.98L388.96 227.01L395.96 217.07L399.06 206.96L401.97 198L407.06 189.08L413.02 181.02L419.05 174.05L425.02 165.96L428.09 157.06L432.94 147L441.06 138.9L447.94 130.93L450.99 121.95L462.92 104.03L473.99 92.08L490.94 86.04L504.08 83.01L516 84.03L530.08 86.01L547.96 93.95L565.04 88.98L580.09 77.03L589.98 70.01L582.93 63.94L565.06 48.1L554.01 44.08L548 33L529.92 20.98L519.05 13.97L507.04 9L491.95 7.02L476.91 5.98L463.09 7.08L448.02 6.1L436.07 7.02L423.94 0.04L410.92 3.06L399.02 -2.96L382.99 -1.93L371.07 -2.96L361.04 -2.08L350.91 4.05L340.06 18.02L334.99 31.06L340.08 44.06L344.92 56.02L350.99 67.04L347.94 80.06L343 94.9L337 108.96L326 129.95L316.06 142.06L305.04 153.93L301.09 166.97L292.09 180.07L281.92 183.09L265.93 166.92L255.95 157.97L245.91 145.09L239.94 131L228.98 118.91L225.04 104.94L223.07 94.06L222.08 86L234.09 87.04L248.96 86.95L261.04 83.09L271.99 86.03L281.02 80.94L294.91 77.02L295.95 65.92L284.09 57L274.99 43.06L263 33.96L252.02 22.1L240.01 13.92L225.94 8.02L211.04 5.07L195.91 5.02L178.03 7.95L162.93 4.05L148.95 2.01L135.06 -1.07L104.96 -0.91L91.06 -7.01L76.95 -6.97L61.04 -4.96L50.03 -1.98L43.08 4.94L34.03 13.04L34.1 25.96L31.95 36.96L38.05 44.93L46.03 54L52.08 61L60.1 70.91L70.94 75.1L80.07 79.93L89.97 85.96L98.98 87.04L119.96 86.97L130.03 95.97L138.09 104.06L148.97 110.04L163 134.03L170.04 146.96L178.09 158.06L181.97 172.07L194.09 181.04L198.93 195.02L204.91 207.07L209.94 219.98L217.05 231.01L219.98 245.01L228.04 256.02L230.93 266.05L228.96 275.91L225.1 286.04L219.04 295.98L208.01 304.02L201.93 314.95L193.95 326.95L186.98 338.99L175.91 350.04L167.07 361.95L155.93 371.05L149 382.98L139.98 393.92L129.1 404.96L118.92 411.92L103 410.1L87.01 409.91L70.01 407.09L54.98 410L46.08 420.92L38.03 433L42.95 447.02L49.08 456.06L57.96 460.96L65.04 466.9L72.92 475.98L76.9 485.09L86.94 488.94L96.95 492.01L110.1 497.98L129.03 498.02L145.99 497.05L163.98 496.98L182.07 494.06L202.04 494.09L219 500.09L236.96 494.09L251.9 495L260.94 489.09L271.93 484.91L284.06 482.95L293.05 476.96L298.08 467.94L295.96 456.09L282.09 448.97L273.01 439.07L264.04 426.95L258.01 418.04L267.06 406.91L273.07 394.01L281.95 386.08L289.91 374.08L301.97 362.09L311.92 348.1L320.01 332.99L329.04 328.95L339.07 329.96L346.01 344.91L357.94 354.06L370.94 360.09L381.03 372L391.94 385.02L398.06 396.93L402.01 411.91L401.92 421L392.96 426L383.99 432.08L373.93 428.95L362.91 433L354.07 426.92L343.06 429.98L334.95 432.98L325.99 442.09L334.99 457.98L343 467.98L348.94 479.09L358.05 483.02L365.94 487.93L374.99 494.05Z" fill="rgb(157, 16, 87)" transform="scale(0.9973652832245827,-1.0195965662581281) translate(563,-1000) rotate(-6)"/>
<path d="M417.98 504.03L429.06 500.99L444.08 494.04L450.08 486.09L455.92 473.9L457.9 461.06L457.97 447.93L459.96 433.92L457.96 418.99L458.08 391.09L452.91 378.08L452.91 363.04L456.05 346.99L459.95 334.05L455.98 318.98L453.94 306L462.03 279.97L461.98 252.02L464.04 237.04L463.98 184L467.95 167.98L468.08 134.93L472.95 122.93L485.97 117.94L500.97 122.06L514.01 116.04L530.94 115.94L554.07 113.95L567.09 101L572.03 89.95L567.08 77.03L553.99 66.98L548.04 50.93L535.01 42.05L524.94 33.01L516.93 22.04L504.94 13.93L488.99 7.05L469 -3.02L465.09 -26.91L467.96 -48.97L468.93 -71.93L462.06 -92.97L456.05 -104.98L447 -111.94L437.05 -118.99L428.06 -129.09L418.06 -133.02L404.99 -141.9L395.93 -149.98L388 -158.91L377.05 -157.05L364.05 -153.94L351.07 -137.91L343.09 -121.03L338.05 -102.07L338.97 -87.07L335.08 -72.06L338.98 -61.08L339 -44.95L334.1 -29.05L328.09 -11.95L315.07 -8.01L299.05 -6.93L282.92 -4.08L265.91 -3.92L249.06 -8.07L229.07 -8.06L208.94 -10.93L190.94 -14.07L172.03 -15.98L135.96 -12.08L119.02 -12.1L106.06 -7.98L92.97 0.99L81.91 7.09L74.95 20.08L74.08 37.01L79.04 55.06L82.93 73.96L107.04 103.95L115.04 118.95L131.1 129.99L141.94 146.03L151.06 158.94L162.94 175.93L171.96 195.08L180.07 212.09L191.94 233L208.06 249.05L218.94 269.9L236.02 287.9L248.91 307.04L257.92 331.05L273.94 349.94L294.9 392.03L306.95 412.09L318.9 433.91L329.94 453.05L346.09 464.94L359.96 478.97L372.98 493.91L387.91 504.06L403.96 506.99ZM331.92 305.05L324.05 291.92L313.94 275.05L299.93 258.03L285 238.1L274 219.93L262.08 201.06L248.09 183.07L238.01 167.02L226.91 150.07L223.07 135.92L216.93 120.96L223.05 113.04L232.97 108.95L248.1 107.1L263.91 106.94L280.03 104L295.07 107.1L313.04 107L326.94 109.02L341.07 112.98L345.99 129.08L347.08 145.93L350.02 161.98L349.91 209.03L347.07 234.03L345.96 259.1L342.07 283L341.06 303.99L339.9 327.05Z" fill="rgb(226, 7, 3)" transform="scale(1.0151699782157981,-0.9996151804780526) translate(1242.6666666666667,-1000) rotate(-3)"/></g><path d="M79,434 C328.26666666666665,231 955.3333333333334,644 1770.4,417" stroke="rgb(21, 65, 121)" stroke-width="5" fill="none"/>
<path d="M3,619 C268.26666666666665,434 1405.3333333333335,682 1801.4,587" stroke="rgb(55, 156, 28)" stroke-width="5" fill="none"/></svg>