<svg xmlns='http://www.w3.org/2000/svg' viewBox="0 0 1530.6666666666667 1300"><rect width="1530.6666666666667" height="1300" fill="rgb(234, 198, 143)" /><g transform="scale(1,1)"><path d="M305.94 711.97L323.09 710.04L344.09 709.95L362.96 706.06L380.91 703.08L397.96 700.99L416.08 694.92L431.06 686.04L445.97 678.98L459.1 671.94L472.99 665.04L485.09 650.98L491.01 638L501.05 624.08L502 607.07L505.92 587.01L510.1 568.94L514.03 553.95L519.02 541.1L514.97 528.04L513.95 511.98L509.94 495.07L502.01 478.08L492.98 461.02L483.09 444.06L470.09 429.03L456.93 412.1L441.9 396.99L430.1 382.92L446.04 371.97L452.92 359.04L465.96 352.03L477 341.9L488.95 331.07L498.96 319.93L507.91 311.08L511.98 297.08L513.99 281.95L520.91 268.98L522.92 255.94L521.06 240.99L521.03 216.06L523.04 200.96L520.95 189.07L515.07 175.97L514.01 162.93L511.94 152.01L506.06 140.02L503.95 126.92L499.02 115.97L488.97 107L485.07 94.05L475.05 85.9L465.97 79.08L460.07 65.02L453.03 54.98L440.1 52.07L433.1 40L423.04 34.93L412.03 28.95L400.03 24L391.06 15.91L379.02 11.94L366.02 7.08L351 6.96L338.07 2.91L323.02 0.96L302.01 -1.01L282.05 -1.05L262.92 -4.92L241.98 -8.92L220.91 -6.98L200.96 -7.05L183 -1.9L164.03 -0.9L146.92 7.07L128.92 13.93L116.05 27.03L105.92 41.96L96.06 55.02L86.98 69.96L77.94 85.99L75.9 105.02L72.01 121.07L75.97 140.02L78.09 159.91L78.98 178.09L81.09 196.94L90.92 214.04L97.92 232.92L107.03 247.96L121.06 260.99L129.01 276.07L140.04 287.08L152.98 298.94L166 309.09L178.95 319.97L188.99 330.97L203.91 342.94L191.08 356.92L180.97 367.98L171.96 383.99L159.05 399.01L147 414.02L136.07 431.03L122.94 444.03L117.95 461.07L111.98 478.08L105.93 493.06L106.92 507.91L107.1 520.91L112.07 535.09L116.06 548.04L118.03 561.01L126.97 570.07L133.04 581.93L138.1 594.96L145.96 605.05L154.97 613.99L160.08 623.96L165.92 637.09L174.99 643.95L187.97 650.93L194.97 667.93L212.06 676.9L221.05 685.92L233.92 688.02L245.09 692.07L258.05 693.1L268.96 700.92L279.9 707.92L290.93 711.96ZM270.08 612.08L254.95 606.94L241.97 594.94L234.02 583.01L229.94 569L229.92 534.99L234.05 519.06L239.98 504.09L247.02 492.93L261.05 481.98L278.01 470.9L295.08 458L312.96 445.97L332.05 433.97L353 421.95L363.08 426.9L373.98 433.91L386.91 443.91L397.99 458.08L405.06 472.9L409.06 489.03L413.96 506.07L414 521L412.08 537.02L404.95 548.06L402 559.06L393.92 569.98L384.99 577.91L374.02 587.07L362.96 593.05L349.92 597.97L337.05 605.04L318.98 607.09L301.97 608.92L287.01 612.03ZM266.95 296.07L261.09 289.09L249.08 277.9L234.05 267.08L220.93 256.09L208.01 243.07L197.1 229.98L187.95 212L180.98 194.93L182.99 176.07L188 158.03L195.05 140.07L205.96 124.99L219.01 113.91L233.99 106.99L271.92 99.01L312.93 99L354.94 102.95L372.09 107.04L389.08 114.05L397.95 126.92L404.07 139.93L407.01 153.92L407.03 194.99L404.07 210.09L396.07 226.1L387.02 241.1L372.1 256L356.91 268.98L337.98 279.94L319.05 289.03L297.97 294.92L273.94 303.07Z" fill="rgb(49, 224, 0)" transform="scale(1.0089197637372338,-1.0057921880620426) translate(20,-1000) rotate(0)"/>
<path d="M348.92 354.08L364.95 354L369.92 351.03L357.99 327.04L365.05 315.99L351 298.05L348.06 282.99L342.07 274.9L325.06 272.01L315.96 263.93L297.08 263.05L288.08 255.08L275.96 246.07L262.07 244.07L246.97 249.03L233.02 248.96L216.92 249.96L204.98 248.96L192.02 248.99L175.08 247.95L161.1 245.06L149.09 242.05L132.95 241.03L116.01 244.99L100.06 246.07L84.98 248.91L73.02 252.06L61.91 256.99L55.94 270.03L54.06 286.97L59.99 304.02L70.98 318.01L83 332.95L99.02 343.95L116.07 348.05L132.02 346.06L144.97 344.09L157.1 338.93L170.07 334.92L180.96 337.07L192.97 338.91L205.05 343.01L260.07 342.92L273.09 339.01L288.01 337.09L299.9 335.09L314.03 339.04L331.04 343.9Z" fill="rgb(25, 179, 143)" transform="scale(1.0125267436192817,-1.0155164056294392) translate(614.5,-1000) rotate(10)"/>
<path d="M228.96 517.9L245.92 515.98L264.9 516.07L281.05 510.08L300.04 512.09L315.94 506.9L331.99 499.05L346.95 493.98L361.94 492.03L375.98 490.09L391.99 485.09L414 463.1L419.97 449.95L428.93 439.08L436.08 426.09L440.07 408.91L442.02 390.05L443.92 370.04L440 350.03L436.08 331.98L421.93 309.91L417.93 298.97L409.1 290.1L403.04 278.06L393.93 270.9L383.09 262.9L375.1 252.09L362.99 246.95L356.03 236.95L346.95 227.97L340.08 219.07L333.99 206.95L325.09 200L316.03 189.94L301.92 184.9L288.97 173.95L277.96 158.96L262.96 145.98L255.97 132.01L265.06 125.03L279.95 122.96L295.92 124.96L317.01 118.94L335.94 121.04L372.97 121.01L386.91 129L404.99 132.02L417.95 149.94L435.95 154.91L452.09 161.04L462.98 154.97L473.93 152.06L479.9 136L482.96 120.99L485.09 106.06L484.91 94L480.05 81.08L473.94 66.93L460.95 59.07L453.96 48.01L443.99 37.06L435.92 23.93L422.07 12L408.98 -0.05L395.95 -6.05L384.95 -3.97L372.98 -2.03L358.02 -1.96L339.93 3L321.08 12.03L302.09 13.06L285.04 10L269.99 12.07L253.92 13.01L238.1 7.99L223.06 9.91L197.91 9.93L184.94 12.04L169.02 12.03L155.91 4.98L145.03 1.05L131.94 -1.91L119 -2.08L99.99 3.05L85.04 21.03L73.96 37L76.07 51.92L79.94 69.03L87.07 81.03L94.03 93.93L105.01 104.91L116 117.93L127.92 123.07L138.08 136L153.91 146.03L167.04 161.07L178.96 177.01L192.01 191.93L206.93 198.07L214.05 206.96L235.94 222.93L245.95 230.1L256.06 241.1L265.05 247.99L280.05 252.06L285.09 264.91L294.09 274.07L301.91 285.98L313.92 296.02L316 307.93L325.03 318.96L327.04 331.95L327.02 345.03L318.94 361.06L304 371.95L286.96 380.94L266.97 387.04L245.94 396.01L222.95 400L203 393.91L183.09 390.08L164.96 383.08L151.99 374.1L134.05 372.07L117.05 371.94L100.03 377.99L96.07 394.08L93.99 409.09L96.06 426.06L103.02 439L121.01 461.05L133.91 465.02L145.03 473.97L156.06 485.96L165.05 495.92L179.05 503.04L191.99 505.02L202.94 511.98L214.01 514.04Z" fill="rgb(2, 156, 74)" transform="scale(1.0199019740043689,-0.9886054237827183) translate(969.6666666666667,-1000) rotate(0)"/></g><path d="M141,981 C423.0666666666667,435 1118.3333333333335,422 1407.6000000000001,122" stroke="rgb(22, 75, 2)" stroke-width="39" fill="none"/>
<path d="M50,565 C593.0666666666667,849 886.3333333333334,900 1436.6000000000001,705" stroke="rgb(21, 97, 126)" stroke-width="39" fill="none"/></svg>