<svg xmlns='http://www.w3.org/2000/svg' viewBox="0 0 1590.0000000000002 1300"><rect width="1590.0000000000002" height="1300" fill="rgb(154, 225, 107)" /><g transform="scale(1,1)"><path d="M208.09 501.04L221.02 504.08L231.93 495.02L244.99 495.04L257.02 493.92L267 490.01L280.07 485.98L292.04 487.95L302.1 483.02L315.04 486.09L327.05 484.04L338.95 483.06L352.98 483L370.06 488.05L389.91 482.97L408.04 490.07L427.91 487.93L448.05 483.09L459.1 470L462.94 460L462.98 445.1L454.03 431.93L438.05 426.91L428.98 413.96L415.09 401.07L397.08 389.98L378.07 386.07L356.07 385.99L335.08 390.01L314.95 389.98L300.93 390.97L290.92 395.05L278.03 390.01L265.92 390.07L230 380.95L219.9 371.96L216.97 359.99L217.04 345.98L216.06 337.05L222.9 331.09L232.93 324.92L245.94 325.97L261.03 317.99L272.04 316.08L287.02 309.94L301.08 305.06L316.91 307.97L329.95 301.09L341.97 295.98L355.97 292.03L366.1 281.97L379.93 275L394.01 266.95L404.04 253.06L415.07 243.94L424.94 231.94L435.01 219.06L449.04 211.07L457.93 197.97L462.93 183.04L469.02 171.98L474.08 157.08L475.1 143.91L475.09 133.95L479.02 123.05L478.95 88.06L474.06 78.05L465.02 66.92L464.94 54.08L460.97 40.95L453.98 30.01L445.09 22.95L439.95 10.03L430.96 0.05L423.07 -11.09L413.91 -21.04L403.94 -30.93L394.91 -42.02L389.09 -52.96L377.96 -61.09L366.03 -69.91L354.93 -76.06L345.97 -86.03L336.04 -95.06L325.08 -99.02L317.06 -110.07L309.05 -115.95L300.02 -125.08L287.04 -132.91L271.07 -140.09L253.04 -140.94L233.05 -146.91L216.06 -149.96L196 -148.94L177.97 -149.03L158.01 -153.92L141.02 -149.95L123.06 -153.97L103.95 -154.02L88.1 -141.06L72.09 -129.09L63.03 -114.93L68.01 -103.04L76.02 -91.05L82.98 -83.07L91.9 -74.01L100.98 -69.1L117.07 -71.97L133.93 -66.01L151.09 -68.93L166.08 -71.9L181.04 -73.93L195 -69.99L206.99 -66.07L220.92 -65.95L235.98 -60.93L247.05 -56.04L260.99 -51.1L274.91 -46.92L285 -40.02L295.93 -33.98L306.05 -26.02L321 -24.93L330.07 -14.97L334.95 -4.93L343.98 3.96L347.07 16.02L348.91 27.96L358.99 36.03L360.06 47.05L363.98 57.97L371.94 69.98L369.07 83L366.01 96.98L364.97 110.02L355.05 125.05L346 144.07L326.92 155.08L314.02 172L295.94 179.96L276.06 192.95L261.1 206L239.99 211.08L217.05 208.04L195.91 211.95L177.99 207.06L158.06 203.03L126.91 203.08L112.91 210.99L107.1 224.07L102 241.03L101.95 255L105.93 269L104.08 281.97L107.05 293.01L107.08 305.98L114.01 315.98L121.91 337.98L121.91 350.92L126.05 361.04L127.1 371.91L130.96 382.04L135.95 396.97L133.98 415.93L134.05 434.96L138.91 446L151.06 452.1L161.06 461.03L164.1 475.02L177.1 482.93L186.05 489.92L197.99 494.99Z" fill="rgb(24, 2, 16)" transform="scale(1.0149170384711048,-1.008044003935145) translate(-11,-1000) rotate(-19)"/>
<path d="M385.07 498.07L398 501.93L410.09 497.06L423.98 491.99L435.93 491.06L468.01 490.95L483.08 491.96L515.02 491.95L527.91 495.04L541.93 493.97L551.09 485.9L559.98 473.91L559.1 459.01L553 450.03L541.93 439.03L530.08 435.05L518.09 427.03L503.08 421.04L488.95 417.95L473.97 409.9L460.9 394.09L451.98 379.92L444.91 368.99L437.91 359.08L425.03 350.09L412.97 326.04L403.93 315.99L395.99 305.99L389.03 293.03L374.99 279.99L370.92 263.02L373.91 249.9L380.95 236.99L389.09 227.03L396.08 217.09L398.93 207L401.98 198.04L406.96 189.08L413.02 180.95L418.93 173.99L424.95 165.95L428.07 157.06L433.02 146.98L441.08 138.99L447.91 131L451.03 122.09L462.93 104.01L474.06 91.97L490.96 85.93L504.07 83.09L515.92 84L529.97 86.01L548.01 93.99L565.02 88.91L580.01 77L590.03 70L582.95 64.08L565.06 48.09L554.05 43.95L548.05 32.99L530.06 21.05L519.01 13.96L507.08 9.03L491.97 6.96L477.02 5.95L463.02 6.96L448 5.94L435.96 7.1L424.08 0L410.91 2.91L399.03 -3.04L383.07 -2.07L371.05 -3L360.92 -2.05L350.92 4.04L339.95 17.92L335.05 31.08L340.07 43.93L344.97 56.09L351.07 66.9L348.09 80.1L343.01 94.93L336.96 109.02L325.93 129.97L315.97 141.9L304.93 153.96L300.92 166.91L292.01 179.98L282.03 182.97L266.1 166.96L255.93 158.06L245.91 144.97L239.91 131.1L228.92 118.92L224.94 104.94L222.92 94.09L222.09 85.92L233.92 87.09L248.97 86.92L261.07 82.94L271.93 86.06L281.06 80.94L295.03 76.94L296.09 66.08L283.98 57.04L275.01 43.09L262.95 33.93L252 21.98L239.92 13.95L226.06 7.9L211.01 5.03L196.03 5.02L177.95 8.01L163.03 3.94L148.91 2.03L135.04 -0.96L104.91 -1.06L91.09 -7.1L76.94 -6.99L60.97 -5.07L50.06 -2.09L43.09 4.98L34 12.91L34.04 26.1L31.94 36.94L37.99 45.02L46.05 54.08L52.09 60.94L59.92 70.95L71.05 74.99L79.98 80.07L89.99 85.97L99 87.05L119.98 87.06L129.9 95.99L137.93 104.04L148.92 110.05L163.02 134L169.94 146.95L177.91 158.07L181.93 172.03L193.98 180.96L199.08 195.08L205.05 207.1L210.04 220.04L216.95 231.1L219.95 244.96L228 256.06L231 265.91L228.97 276.02L225.02 285.91L218.96 296L207.94 304.1L201.98 315L193.9 326.93L187.1 338.93L176.07 350.01L166.98 362.08L155.92 370.99L148.96 382.96L140.05 393.98L129.03 405.07L119.07 412.05L102.93 409.91L87.07 410.07L70.02 406.94L54.91 410L46.01 421.04L38.01 433.06L43.03 447.06L49.03 456.08L57.97 460.91L64.92 467.01L73.07 475.97L77.01 485.06L86.91 489.06L96.98 491.96L110 497.96L128.93 497.98L145.91 497.01L163.91 497L181.91 494.08L201.96 494.02L219.02 500.07L237.04 494.02L252.02 495.02L261.08 488.92L271.96 485.06L283.9 482.98L293.04 476.97L297.91 467.95L295.91 456.08L281.93 449.02L272.97 439.01L263.99 427.08L258.07 418.05L267.03 406.97L273.05 394.07L281.9 386.08L289.99 374.02L301.91 362.09L311.92 347.91L319.9 332.9L328.97 329.07L338.98 329.94L346.03 344.94L358.02 353.99L371.05 359.97L381.04 372.04L392 384.92L398.1 397.01L401.98 412.04L401.98 421.04L393 425.95L383.99 432.03L374.04 428.9L363.07 433.02L353.91 427.08L343.06 429.9L335.02 432.99L326.02 441.94L335.07 458.04L343.07 467.9L349.05 478.91L357.91 482.91L365.93 487.96L375.06 494.02Z" fill="rgb(96, 1, 42)" transform="scale(1.0105939759108502,-1.0197686473518925) translate(558.3333333333334,-1000) rotate(10)"/>
<path d="M142.95 505.06L158.04 503.05L176.94 505.09L193.1 501.9L209 498.04L226.97 500.01L244.94 495.99L260.96 492.96L277.91 491.1L291.95 489.01L308.02 491.05L320.05 491.06L333.02 493.1L343.92 495.96L355.98 495.1L367.01 488.05L376.95 482.01L369.95 470.98L367.9 457.04L360.04 446.04L353.99 434.07L346.98 423.08L339.1 412.99L329 404.96L319.96 397.98L309.06 391.93L297 391.04L289.95 386.98L280.93 382L275.91 371L274.03 355.94L273.93 340.06L270.94 322.93L271.09 303.93L275.97 286.09L270.09 273.91L270.08 251.01L274 235.95L276.02 216.92L274.09 193.96L275.99 172.05L281.04 151.09L279.05 130.03L279.05 115.91L281.09 107.08L292.1 103.98L306.03 106.02L321.94 103.94L338.95 99.95L354.08 100.03L369.97 95.08L376.94 85.96L374.93 74.94L369.92 63.93L364.91 49.98L357.97 38.04L348.96 24.9L339.01 15.99L326.98 6.98L316.09 1.96L298.9 0L278.07 2.09L235.99 2.02L219.98 5.06L205 5.08L189.07 7.04L177.08 3.05L165.08 -4.09L150.07 -5.03L137 -5.07L124.9 -9.1L110.93 -6.97L97.94 -0.09L88.94 12.02L82.09 27.03L80.09 43.09L88.92 58.97L98.07 78.95L113.03 92.98L125 105.92L137.07 106.96L147.95 108.98L157.07 114.07L167.04 117.93L168.09 131.98L166.94 148.99L169.92 168.06L168.1 187.99L173.98 209.91L175.08 226.94L174.98 267.1L172.09 278.91L173.93 290.06L174.06 316.09L172 329.96L175.06 349L174.05 371.06L165.05 387.08L146.05 389.09L130.01 393.96L115.95 393.91L106.09 398.04L97.99 408.07L87.08 414.96L77.91 427.98L75.06 438.96L72.91 451.09L84.97 457.93L92.04 469.04L96.09 481.02L128.93 501.99Z" fill="rgb(63, 3, 44)" transform="scale(1.0034761994134245,-1.0067736939294432) translate(1130.0000000000002,-1000) rotate(-20)"/></g><path d="M92,1290 C382,535 849.0000000000001,41 1537.0000000000002,225" stroke="rgb(31, 41, 0)" stroke-width="5" fill="none"/>
<path d="M29,1130 C223.00000000000003,1011 1011.0000000000001,754 1513.0000000000002,1078" stroke="rgb(13, 125, 123)" stroke-width="5" fill="none"/></svg>