<svg xmlns='http://www.w3.org/2000/svg' viewBox="0 0 4997.666666666667 1300"><rect width="4997.666666666667" height="1300" fill="rgb(215, 169, 162)" /><g transform="scale(1,1)"><path d="M64.96 769.91L81.04 776.96L93.07 777.01L106.02 779.97L118.02 780.05L131.93 787L143.96 779.9L158.96 788.99L173.05 785.93L186.1 784.02L200 790.97L214.02 789.05L222.04 782.1L234.02 778.93L243.01 769.93L250.08 760.03L253 738.99L251.09 718.94L249.92 698.05L251.03 681.09L254.9 669.07L250.06 654.01L252.99 641.97L252.91 629.97L247.94 616.94L251 604.9L248.05 593.05L246.04 578.97L248.1 565L244.96 550.92L248.02 537.94L243 524.04L240.99 509.09L245.02 493.09L245.02 478.04L247.93 462.06L245.92 445.02L246.06 430.05L250.08 413.93L245.99 399.04L246 381.96L243.05 369.04L245 352.96L245.07 320.98L241.03 303.07L240.93 286.02L238.07 271.08L235.95 254.91L243 240.09L245.06 223.93L239.06 208.95L244.94 194.05L243.03 180.03L248.02 166.05L245.1 152L243.06 138.96L242.98 124.07L245.97 109.95L253.01 96.99L264.91 86.09L284.09 85.98L302.94 82.91L323.91 84.01L342.09 81.03L359.95 79.05L371.96 65.91L375.08 53.96L366.05 45.08L357.98 37.94L347.91 40.04L335.95 35.98L323.95 31L309.97 26.03L300.96 15.97L287.94 11.08L276.96 5.97L261.98 9.03L246 6.05L232.97 7.08L218.91 6.07L205.07 -0.92L190.06 -2.92L176 0.01L161.09 1.95L143.92 -1.01L130.07 -0.01L114.99 5.96L100.9 1.92L85.99 6.9L72 7.04L59.97 11.98L47.97 16.06L33.92 15.95L26.01 27.97L21.02 43.04L26.07 60.05L37.98 68.94L45.94 79.07L53.07 90.96L68.93 99.97L82.04 101.93L94.05 102.97L106.03 102.96L116.96 104.91L122.07 115.02L124.09 125.99L124.93 139.06L126.94 149.03L124.99 158.96L124.06 170.91L124.94 181.91L129.07 194.06L123.97 206.07L123.91 220.95L119.96 238.01L122.06 254.98L125.01 269.01L121.93 281.02L127.01 291.01L127.01 303.04L123.91 314.95L125 327.03L130.1 337.99L127.08 350.1L132.08 361.96L127.09 373.93L129.93 386.95L130.05 400.04L124.97 412.03L128.98 425.95L122 436.02L120.09 447.93L117.92 461.92L119.96 478.99L123.93 494.94L124.96 511.98L125.05 535.99L130.03 548.07L131.92 559.91L129.91 571.97L131.96 583.99L134.02 597.92L129.08 611.04L132.08 622.97L137.01 635.97L131.98 648.08L136.07 661.03L132.1 675.93L125.07 694.95L117.94 703.07L103.05 705.09L88.95 702.91L73.96 707.02L58.04 708.95L42.94 706.92L29.05 713.91L14.09 721.06L12.01 735.93L21.97 750.02L34.02 758.97L48.1 765.92Z" fill="rgb(173, 33, 31)" transform="scale(0.998144299713892,-1.0198544528845368) translate(20,-1000) rotate(0)"/>
<path d="M269.99 517.91L283.94 513.91L297.09 512.94L308.91 509.01L344.02 509L364 503L381.08 493.99L397.05 484.03L409.05 471.04L422.07 459.01L432.07 443.99L443.93 432.02L451.95 414.1L464.02 396.95L471.04 377.94L473.97 356.04L485.98 337.94L488.91 315.9L496.93 296.93L496.93 278.09L501.03 260.02L503.01 239.94L503.05 218L508.1 198.95L503.03 182.93L502.93 165.03L494.02 153.04L487.9 138.09L477 125.99L467.08 111.04L451.9 98.96L433.99 84.91L421.93 71.01L407.03 56.03L391.06 40.98L376.04 28.02L355.93 21.07L343.94 4.09L325.95 -2.95L309.05 -6L297.03 -17.93L281.94 -21.01L267.95 -21.01L254.96 -16.03L243.04 -12.06L227.95 -5.92L218.07 1.99L211.06 13.08L197.97 18.97L185.95 23.97L173.02 31.02L161.02 32.91L147.04 39.92L134.93 48L122.98 63.09L105.97 75.98L98.07 88.03L90.08 101.09L83.99 112.97L81.1 127.02L71.02 137.95L67.91 152.95L63.09 165L55.91 178.09L49.98 187.95L45.95 201.02L43 211.94L41.08 226.09L43.91 244.01L46.05 265.03L57.93 283.01L55.95 305.05L60.96 321.95L66.09 341.95L63.96 355.96L74.92 364.93L77.91 380.05L87.95 388.95L92.93 399.02L110.92 415.05L118.03 421.96L127.01 432.05L137.94 436.94L142.9 446.93L154.93 453L166.05 462.03L177.93 465.95L188.05 473.99L197.99 483.97L213 495.94L231.9 502.99L252.07 513.04ZM212.93 415L200.02 409.08L193.1 394.91L186.01 382.02L180 365.03L178.04 348.94L175.09 330.93L167.95 316.06L168.9 296.95L168.93 250.98L175 234.99L175.94 220.1L185.94 206.06L192.95 193.05L198.07 179.06L207 166.02L215.03 156.05L234.92 137.91L245.04 131.01L259.92 127.09L274.97 119.93L295.09 113L314.95 109.07L337.07 113.09L349 123.95L361.08 133.99L366.99 151.07L371.03 166.03L371.04 185.09L373.98 202.94L373.97 240.08L371.98 260.06L367.1 278.02L366.9 293.92L360.91 305L356.03 315.96L351.98 328.98L346.91 342.05L342.02 352.96L336.9 363.08L329.07 373.95L318.92 386.94L306.05 401.09L290.04 410.1L274.96 414.06L249.98 414.07L238.08 416.98L225.01 415.06Z" fill="rgb(157, 89, 7)" transform="scale(1.0014877231063284,-0.9828237970925503) translate(413.5,-1000) rotate(-15)"/>
<path d="M500.99 496.91L513.93 499.01L526.04 496.03L532.95 490.1L539.06 479.1L538.94 468.03L530.98 460.93L525.04 450.92L518.07 444.98L503.95 435.06L490.05 421.92L472.04 415.05L455.05 411.08L446.92 402.05L439.93 385L431.02 369.09L428 349.09L418 331.94L414.1 313.02L406.96 295.99L400.91 278.98L395.91 266.92L395.03 254.99L387.08 246.01L386.93 235.01L386.08 226.07L383.07 213L377.92 203.96L374.06 192.95L371.06 178.93L361.06 162.96L352.05 147.04L343.08 128.93L336.1 112.08L334.96 95.07L332.07 80.99L327.98 65L321.07 53L319.96 42.07L316.01 30.97L307.96 23.05L302.05 12.08L286.93 -0.96L275.96 -13.98L259.04 -23.99L248.04 -32.09L239.01 -29.98L231.98 -18L225.06 -0.08L222.92 16.96L213.09 33L206.91 50.95L199.03 67L188.96 82.05L179.99 97.09L174.98 113.98L172.02 130.96L167.06 147.97L156.9 164.06L152.02 181.06L143.01 199L134.01 218L127.01 235.05L116.97 251.93L112.01 268.92L102.94 285.96L98.02 303.06L84.03 336.98L80 353L70.06 367L60.09 378.91L51.01 392L41.03 401.03L29.91 398.06L13.05 396.08L-3.94 396.07L-18.05 410.06L-22.94 422.97L-20.05 438.03L-13.91 447.93L7.98 465.98L18.9 476L32.91 481.9L49.02 487.02L63.92 489.95L74.9 492.08L110.95 491.97L133.09 490.94L153.01 493.07L172.92 489.94L190.1 492.08L202.03 489.02L214.02 491.02L226 491.03L241.03 490.03L256.05 482.96L262.98 474.93L261.92 462.94L250.01 454.92L241.94 440.99L231.08 432.02L219.97 424.02L209.9 411.91L199.01 405.07L195.98 394.05L195.97 378.99L201.06 366.08L205.97 354.92L212.05 344.92L218.91 334.09L223.04 320.95L226.97 310L228.91 295.92L235.05 282.95L240.99 274.05L242.99 260.04L245.94 248.98L253.95 238.08L256.91 226.93L259.04 215.09L264.94 203.98L269.93 195.08L277.98 184.02L280.91 172.04L286.05 165.02L294.09 173.03L299.02 186.06L304.06 198.07L309.07 211L315.91 220.98L317.04 235.05L323.92 245.03L327.99 257.9L331 272.01L331.05 283.98L337.05 297.02L340.91 310.03L343.98 319.95L350.93 331.03L353.09 341.99L356.94 351.99L363.97 360.93L370.06 373.03L372.95 390.04L370.07 400.91L361.97 406.1L351.05 403.91L341.95 405.03L331.08 412.97L323.07 421.02L317.9 433.99L321.01 443.08L327.01 452.92L334.96 460.07L343.91 467.96L353 472.94L360.04 481.91L377.98 494.07L389.9 496.08L407.05 493.06L422.07 493.06L439.09 489.94L455.98 491.91L471.04 492.05L484.92 496.01Z" fill="rgb(158, 128, 21)" transform="scale(0.9935355053755209,-1.0049075819755824) translate(933.3333333333334,-1000) rotate(14)"/>
<path d="M225.06 508.92L239.99 509.07L256.07 506.95L272.04 503.99L286.94 498.94L302.06 494.91L314.04 489.04L329.08 488.07L339.98 479.04L349.93 471.99L360.96 463.98L371.95 455.04L378.91 442.02L387.04 434.05L390.99 420.03L398.9 408.96L406.07 399.08L410 383.96L417.09 365.04L426.02 348L426.97 330.08L417.02 314.92L401.91 304.93L388.91 293.96L374.94 279.91L360.91 270.06L346.98 269.92L333.1 266.08L317.08 267.95L300.05 265.07L283.94 265.99L267.92 268.04L251.99 267.96L235.01 266.06L213.97 270.02L192.95 268.07L174.91 265.02L165.03 257.04L166.93 244.94L166.9 229.97L165.03 216.92L170.93 201.1L171.97 188.04L174.08 176.06L176.07 163.08L189.01 149.9L198.94 137L205.98 124.96L221 115.01L231.03 103.95L247.09 104.08L258.03 100.93L269.97 99.06L281.98 98.91L298.07 100.97L314.08 105.08L328.97 113.96L345.05 121.09L361.97 125.01L378.93 122.98L398.93 121L406.1 109.08L403.92 93.07L394.02 81.01L384.02 72.02L375.03 59.05L358.03 46.08L345.07 35.96L331.95 22.96L314.98 17.07L297.92 9.1L277.92 3.09L255.93 2.06L240.04 -6.1L225.04 -7.01L210.07 -6.08L198.05 -9.92L183.08 -6.1L165.07 5.94L146.03 16.03L126.08 26.07L98.99 53.06L91.05 70.98L80.98 85.93L70.95 105.97L58.91 122.95L54.94 150.99L46.04 170.06L45.95 193.04L41 213.07L43.02 235.05L43.95 256.98L43.97 277.96L47.93 300.06L50.08 322.05L62.03 342.04L68.91 360.01L77.97 380.03L85.06 399.07L98.05 412.93L105.91 428.06L115.01 437.06L127.01 446.94L133.92 457L145.07 465.92L155.1 471.07L165.05 478.05L174.95 485.9L187.92 489.06L201.94 494.93L213.91 500.91ZM233.07 425.04L216.09 424.93L201.91 417.05L192.02 407.07L183.03 395.94L178.02 382.92L169.99 368.1L168.09 352.02L165.09 339.99L164.97 324.98L184.95 323.92L200.09 323.91L213.93 321.92L264.98 322.05L277.1 323.97L288.94 325.08L301.92 326.94L317.08 330.02L321.91 339.97L319.94 350.01L315.07 362.01L307.05 376.96L298.09 389.03L286.91 400.96L273.09 414.9L256 420.03Z" fill="rgb(83, 3, 57)" transform="scale(0.9909165768873025,-1.0161432224234614) translate(1427,-1000) rotate(16)"/>
<path d="M140.93 768.09L148.05 768.96L153.04 763.98L160.94 762.94L173 763.02L180.99 765.07L187.93 765.93L196.02 769.04L204.05 764.99L210.07 761.04L216.93 756.06L223.99 753.94L228.94 749.01L230.92 742.94L232.06 736.01L229.96 728L230.07 708.03L233.08 700L233.09 691.97L234.04 683.97L236.03 677.1L237.94 668.95L238.96 661.01L236.03 652.97L235.93 645.92L236.91 636.99L235.93 627.92L232.93 619.03L231.08 611.05L230.91 594.06L234.05 584.91L234.97 577.03L235.95 569.98L234.02 563.99L230.09 558.02L229.1 552.09L232.09 544.92L231.07 535.98L230.06 528.97L232.02 522.96L234.92 517.09L234.91 511.01L231.94 502.94L232 492.91L233.02 481.9L225.93 472.91L222.96 465.04L227 457.98L229.02 449.04L226.01 436.92L225.92 426.06L224.96 416.98L220.95 403.07L219.02 395.04L219.93 386.04L224.1 376.97L224.04 369.06L225.08 360.08L218.92 332.97L223.09 323.9L221.95 316L220.06 307.92L221.01 301.01L223.02 293.93L226.96 290.08L230.94 292.96L234.01 298.98L237.92 302.08L246.05 301.9L252.96 309L256.91 317.93L258.07 324.08L264.93 326.95L274 326.08L277.98 331.04L279.07 337.92L284.02 346.03L291.09 351.08L296.93 354.06L302.93 357.9L307.03 361.9L310.02 369.03L313.08 376.95L319 382.07L326.08 385.98L330.94 391.08L334.97 398.06L338.97 404.04L345.07 410.97L349.1 416.1L346.92 422.93L337.98 429L328.97 432.92L321.96 433.97L315.94 434.96L310.03 435.04L303.04 439.94L302.93 451L306.05 461.99L309.93 471L317.05 480.03L322.92 488.09L329.98 489.95L337.94 494.92L348.93 498.01L358.97 496.95L369.9 498.9L380 503.06L389.96 505.91L401.04 507.92L408.92 507.09L423.1 507.02L430.07 505.96L445.05 505.94L453.05 504.91L459.03 499.1L465.98 496.06L473.07 495.07L495.09 494.93L502.96 494.03L511 495.95L529.03 500.09L539.06 502.96L546.95 502.06L553.92 495.05L561.98 492.94L571.05 495.09L578.02 492.08L578.95 483.95L578.95 474.96L572.09 470.04L564.04 470.93L559.09 467.02L557.08 458.05L553.02 452.97L544.98 454.09L535.95 451.92L530.95 445.03L529.02 439.08L521.98 434.92L505.05 434.96L494.97 432.95L487.09 428.94L472.92 426.94L466.03 428.03L454.08 421.97L448.95 413.91L435.01 406.97L428.05 404.9L421.92 401.04L414.97 396.95L411.96 391.09L407.1 383.02L401.01 375.05L392.99 366L379.04 348.08L371.98 333.92L364.04 329.94L359.04 322.98L359.05 316.02L358 309.91L353.08 305.08L355.91 300.08L361.94 294.03L367.1 285.93L369.06 276.91L373.92 271.02L381.04 266.02L392.91 256.04L400.07 250.08L407.93 246.09L414.96 242.07L420.08 234.01L425.99 227.91L430.08 219.95L435.08 213.91L442.94 209.98L449.95 204.06L453.96 194.9L457.97 187.02L464.1 178.94L469.06 171.07L473.02 162.93L477.91 155.91L485.02 150.06L493 143.94L500.07 137.01L504.94 128.07L506.93 119.05L513.09 113.99L521.05 110.95L527.9 105.94L532.93 98.09L538.91 93.04L545.99 91.93L552.99 88.91L561.99 88.96L569.93 86.09L576.95 82.9L584.99 80.02L592.92 80.96L601.02 77.9L605.03 72.05L610.99 68.01L625.07 64.04L629.97 57.99L631.93 51.05L627.03 44.07L622.07 38.97L614.92 33.94L609.99 25.06L603.07 20.94L592.95 22.09L587 20.04L581.93 12.05L577.05 4.98L571.95 -0.91L557.97 -11.07L550.92 -13.09L544.07 -14.08L537.95 -14.09L530.97 -11.97L515.03 -11.98L507.09 -13.97L498.05 -15.95L490.94 -15.91L485.03 -11.03L479.91 -5.93L473.99 -2L467.95 0.02L461 1.09L453.99 4.03L446.9 7.94L439.91 12.94L431.91 18.02L424.99 23.91L420.08 33.01L413.98 40.94L404.91 48.93L399.09 57.05L395 65.98L387.95 70.94L380.03 74.97L370 89.02L365.92 96.05L361.04 101.96L360 110L358.08 117.91L355 126.09L348.94 131.08L342.05 135.08L336.09 139.93L327.93 146L319.98 151.07L314.06 156.07L309.01 161.95L305 169.08L304.03 175.91L300.05 183.1L294.01 189.1L283.99 201.02L280.09 206.95L274.07 213.04L266.91 218.08L257.96 219.03L252.06 223.91L247.06 229.91L242.92 237.1L237.9 243.97L229.93 247.08L225.94 240.96L222.98 231.09L218.04 220.98L215.98 211.01L217.98 202.08L217.99 191.95L217.02 181.92L217.05 173.1L219.99 165L219.96 136.09L216.97 129.95L218.92 124L222 117.9L226.02 110.97L232.01 89.91L236.98 86.9L251.09 87.01L256.98 82.95L262.95 81.99L277.01 81.9L283.94 81.04L293.01 78.99L301.95 75.01L308.07 71.93L314.97 67.08L317.93 60.02L312.03 45.9L307.1 39.94L300.06 36.01L283.94 31.98L276.91 29.92L269.97 27.09L263 22.98L257.1 18.99L249.96 15.07L244.92 9.03L240.99 1.97L233.92 -2.93L225.01 -5.95L217.95 -6.95L210.98 -5.04L205.01 -2.93L198.06 -2.1L190.02 1.1L182.02 2.91L174.96 2.91L168 1.91L159.02 1.99L150 6L144.09 9.04L137.9 9.05L132.93 4.97L122.94 4.99L111.09 3.92L101.97 3.96L96 1.98L89.02 1.03L82.91 4.03L73.9 3.02L64.98 4.02L57.95 4.92L52.1 6.99L44.98 7.98L37.06 9.99L29.05 16.01L26.95 26.03L29.09 36L31.93 44.93L37.09 54.92L41.9 63.91L48.04 70.08L56.01 76L63.1 81.95L68.93 90.04L78 95.09L88 97.97L94.08 102.08L97.9 107.9L100.91 113.96L102.92 122.1L105.04 140.08L104.04 148.98L103.99 158.95L104.92 169.03L110.92 177.94L111.94 187.92L110.01 198.04L111.92 207.02L115 215.93L115.95 226.09L114.04 235.05L113.99 244.08L115.04 254L114.09 263.09L112.03 271.04L111.9 279.98L115.91 288.93L117.02 296.92L114.93 313.02L111.07 322.05L110.98 329.94L117.01 337.99L117.98 344.96L114.98 369.05L117.01 378.02L122.04 387.05L124.97 395.08L125.02 403.1L122.08 410.09L116.91 415.98L117.08 421.94L119.91 430.02L120.9 438.91L119.1 447.1L119.07 466.95L121.92 478.03L128.09 487.08L128.91 495.06L126.09 503.04L127.07 508.95L129 515.94L131.08 524.09L128.97 532.06L125.91 537.91L124.96 545.02L122.98 551.97L120.92 560.92L119.06 570.93L118.01 579.93L116.91 588L117.03 594.91L119.97 601L121.97 611.07L124.06 622.03L124.96 630.93L120.97 635.99L122.06 642.94L127.97 648.09L126.94 655.99L124.92 666.97L122.95 674.96L117.98 680.99L111.05 679.97L103.06 675.07L95.91 675L89.01 679.9L81.92 680.99L74.97 680.04L65.94 677.1L56.92 676.03L50.92 679.05L43.99 678.01L37.95 676.1L30.94 679.08L24.08 687.06L20.95 694.06L21.07 701.09L23.08 707.91L23.08 715.98L27.91 721.91L35.06 729L51.07 739.03L60.09 743.04L69.99 746.99L77.92 750.91L84.02 753.01L93.07 753.95L100.93 757.92L109.06 759.07L116.06 760.98L121.94 761.06L128.97 763.06L136.02 764.07Z" fill="rgb(114, 4, 55)" transform="scale(1.0089528637448768,-1.0173158913573055) translate(1863.8333333333333,-1000) rotate(-20)"/>
<path d="M225.12 508.96L240.04 509.04L256.1 506.86L272.12 504.01L287 498.94L302.12 494.93L314.06 489.07L329.03 488.11L340.08 479.12L349.83 472L360.95 463.93L372.01 455.03L378.9 441.93L387.1 434.04L390.9 420.02L398.84 408.94L406.07 399.02L410.05 383.93L417.17 365.05L425.93 348.08L427.02 330.09L416.93 314.95L401.92 304.87L388.97 294.01L374.86 280L360.92 270.05L346.94 269.92L333.06 266.16L317.02 267.94L299.96 265.13L283.97 266L267.94 268.01L252.02 268.02L234.94 266.12L214.04 270.07L192.9 267.98L175.01 265.01L165.1 257.11L166.83 244.92L166.85 229.97L165.13 217.02L170.84 201.11L171.88 188.04L174.17 176.08L176.16 163.14L189.04 149.97L198.99 136.9L205.89 124.94L221.08 115L230.95 103.97L247.15 104.07L258.04 100.97L269.92 99.01L282.01 98.95L298.04 100.93L314.07 105.06L329.06 113.92L345.01 121.12L361.93 124.91L378.85 122.98L398.85 120.92L406.08 109.15L403.86 93.16L394.11 81.06L384.11 72L375.11 59.08L358.1 45.99L345.03 35.98L332.03 22.92L314.97 17.06L298.01 9.17L277.92 3.18L255.89 2.05L240.06 -6.04L225.12 -7.08L210.03 -6.07L198.09 -10L183.17 -6.03L164.97 5.92L146.1 16.13L126 26.14L98.93 53.11L91.05 70.91L81.07 85.84L70.93 106.02L58.93 122.97L54.94 151L46.02 170.01L46.03 193.06L40.96 212.99L42.94 234.98L44.05 256.91L44.06 277.9L47.86 300.08L50.13 322.13L61.94 342L68.96 360.04L77.99 380.02L85.11 399.09L97.99 413.02L105.98 428.02L115.07 437.06L127.07 446.95L134.01 457.05L145.15 465.83L155.11 471.05L165.08 478.04L175 485.88L187.85 489.03L201.96 494.97L213.89 500.93ZM233.07 425.09L216.15 424.89L201.99 417.08L192.06 407.13L183.09 395.95L178.09 382.98L169.99 368.14L168.13 352.1L165.04 339.98L164.89 325.06L184.9 323.92L199.99 323.93L214.01 322L264.93 322L277.18 323.96L288.98 324.99L302 326.86L317.05 330.01L321.83 340.06L319.96 350.04L315.13 361.98L307 377.01L298.17 388.95L286.83 401.05L273.09 414.84L256.03 420.03Z" fill="rgb(106, 75, 17)" transform="scale(1.003232429345695,-0.9867021067397179) translate(2550.6666666666665,-1000) rotate(8)"/>
<path d="M349.94 27.02L341.99 26.96L324.04 21.02L309.93 12.96L300.09 6.04L288.08 3.02L278.05 1.91L266.94 -2.92L254.93 -3.01L243.94 -0.1L231.03 -1.96L218.08 -5.05L203.06 -5.09L192.01 2.08L178.97 2.94L167.01 8.91L153.91 12.97L145.04 20.93L131.02 26.08L121.97 32.05L112.93 41.91L106.99 54.93L98.02 69.09L88.94 77.1L77.98 88.94L71.07 102.95L64.03 119.04L60.04 136.97L54.93 153.92L49.96 172.99L48.06 190.98L49.94 207.03L51.04 226.09L50.1 243.05L50.98 255.01L58.07 265.96L65.99 280.92L69.03 293.9L69.08 306.03L73.04 316.97L79 325.92L79.02 338.02L83.94 348.1L89.93 357.91L94.97 366.06L102.03 376.05L104.98 385.94L111.93 397.08L123.01 403.02L131.02 412.95L138 423.08L152.96 431.04L166.97 442.94L196.94 463.02L211.95 472.02L244.05 492.09L260.09 499.97L276.93 505.95L292.95 510.09L305.95 512.95L322.04 511.09L334.97 510.93L347.06 507.92L357.09 503.05L368.01 500.95L380.01 496.9L389.99 493.02L401.91 490.1L414.04 483.92L425.07 464.95L432.02 481.99L441.93 497.92L452.95 504.94L466.99 507.93L478.95 510.96L490.97 505.92L500.97 502.94L506.08 497.95L517.96 486.98L515.1 471.94L507.03 460.99L506.03 446.01L499.95 432.99L495.93 420.05L492.07 408.08L489.05 394.07L484.01 381.97L484.08 370.98L482.07 359.1L484.06 345.97L484.06 330.97L486.07 316.93L486.05 302.04L483.92 287.91L485.93 274.02L486.93 260.08L486.93 217.09L484.02 204.07L487.03 190.99L483.97 178.05L483.96 162.94L479 146.95L478.91 132.07L473.01 118.91L474.91 104.07L471.95 89.06L470.06 75.03L467.02 59.91L464.98 44.08L464.95 28.94L461.97 14.05L462.92 -0.05L461.93 -12.94L462.07 -26L465.08 -39.1L461.95 -50.93L462.07 -63.03L460.01 -74.97L462.01 -86.97L458.09 -97.99L458.04 -109.94L462 -120.96L459.96 -133.06L462.97 -143.1L466.96 -157.04L473.04 -167.94L486.09 -174.91L500.97 -175.03L514.06 -172.97L527.02 -177.02L541.98 -176.99L568.07 -186.95L581.01 -187.94L584.02 -197.91L581.01 -210.93L571.98 -212.94L563.09 -221L546.97 -223.93L533.99 -229.95L524.01 -239.94L514.07 -248.05L501.97 -257.08L491.04 -262.08L479.03 -262.1L464.97 -260.03L453.06 -262.07L439.04 -261.92L424.98 -262.93L411.98 -266.92L397.93 -267.09L384.92 -267.95L373.1 -265.02L361.96 -262.94L335.06 -262.93L326.02 -267L310.95 -268.09L297.91 -265.03L284.96 -263.08L271.93 -263.09L256.99 -255.02L251.97 -239.96L248.92 -227.9L253.92 -216.1L264.97 -199.9L280 -189.99L295.06 -177.1L306.01 -169.96L318.02 -170L334.09 -167.93L347.04 -160L347 -126.09L349.92 -110L352 -95L349.93 -82.02L343.98 -68.91L343.96 -55.91L341.91 -38.95L349.02 -19.94L348.98 -5.02L350.02 6.03ZM279.06 430L263.98 425.05L249.06 417.99L234.1 407.96L222.9 401.96L216.92 387.91L207.92 376.02L199.95 361.08L193 348.09L185.03 332.94L180.09 316.07L176.99 299L173.91 286.08L169.03 273.97L166.92 261.02L163.96 247.98L164.03 224.01L166.95 211.97L169.02 201.96L172.01 192.93L174.96 181.03L178.94 171.05L183 158.97L188.05 149.09L194.93 139.01L201.95 127L211.95 117.07L225.96 108.01L239.97 100.95L252.04 98.04L262.06 93.92L273.07 90.97L284.95 88.05L298.06 85.92L320.05 86.02L334.9 88.98L351.97 101.03L362.03 114.04L366.92 130.93L369.93 142.07L369.93 172.93L371.97 188.92L372.08 206.04L370.06 221.06L370 234.04L367.98 248.08L366.92 262.98L366.97 275.95L365.09 288.93L362.98 304.03L362.01 317.01L363.01 335.01L367.06 370.96L366.97 388.97L362.08 399.93L354.99 407.06L345.03 415.07L326.05 423.09L309.9 428.1L299.95 429.93L287.97 431.03Z" fill="rgb(184, 25, 86)" transform="scale(1.0014155642170657,-1.0183347621424637) translate(2935.5,-1000) rotate(-1)"/>
<path d="M207.96 503.91L221.06 507.08L234.97 503.96L245.08 494.94L255.92 487.93L260.95 473.99L264 455.92L258.95 437.08L261.03 418.08L257.93 399.97L259.06 379.97L256.05 361.92L256.05 289.93L257.95 272.1L253.98 253.05L254.04 231.02L252.08 210.02L254.08 188.98L250.93 170.99L251.97 161.05L252.02 149.91L251.07 138.04L258.08 125.06L260.99 108.02L265.98 95.01L276.01 94.01L289.95 89.94L305.94 87.09L321.94 82.91L339.93 82.92L355.03 75L369.06 65.93L371.06 49.07L354.93 42.04L340.06 29.06L320.09 28.91L307.96 17.05L298.97 6.91L284.94 3L273.03 0L258.04 0.01L243.95 -3.96L227.92 -1.95L208.1 0.92L191.03 0.96L179.01 -0.02L165.96 -2.01L128.07 -2.03L114.92 0.92L103.05 -2.05L83.92 1.04L63.06 9.94L49.02 15.04L46 33.07L56.1 47.03L76.93 68.03L89.94 75L103.05 87.02L114.96 94.99L127.94 104.01L133 118.02L131.1 131.99L132.97 145.97L134.91 161.06L135.08 175.08L131.09 187.1L134.96 200.94L136.06 215.07L135.01 226.94L137.95 238.97L136.01 250.96L138.07 263.96L137.97 273.91L140.06 285.96L137.96 297.05L139.94 309.08L140.07 331.96L136.06 343.95L139.99 357.07L139.92 373.92L134.99 394.95L125.93 407.04L113 408.98L98.05 409.08L86.02 411.04L72.07 409.04L54.08 406.95L36.98 410.96L26.01 422.9L20.98 434.99L27.92 444.06L34.91 455.06L46.04 467.01L55.91 477.09L68.06 488.06L83.99 498.02L100.05 500.01L108.08 496.99L116.93 491.04L127.93 495.04L155.95 495.09L169.95 497.96L194 505.93ZM196.94 741.05L216.94 742.92L233.01 736.08L247.02 729.02L258.95 719.95L265.96 706.07L268.95 690L273.99 673.94L281.02 659.04L281.05 643.99L268.95 634.99L256.93 631.08L233.01 620.96L222.01 616.92L212.97 610.06L202.99 604.97L191.94 598.08L179.97 596.08L164.07 605.05L150.07 618.99L138.01 634.93L125.04 651.09L118.07 666.96L118.02 680.98L123.03 693.95L129.97 705.91L142.98 720.1L157 730.9L173.97 738.06Z" fill="rgb(13, 8, 140)" transform="scale(0.991221492057606,-0.9851335762529293) translate(3458.3333333333335,-1000) rotate(-14)"/>
<path d="M144.09 505.94L159.94 504.01L173 500.92L188.09 507.99L202.03 503.97L214.95 500.91L226.95 495.07L238.96 481.05L243.03 464.96L244.06 450.97L241.03 439.08L244.03 426.94L255.95 423.92L269.03 429.99L281 438.95L292.94 449.04L306.96 458L321.09 462.96L332.96 473.08L347 481.05L358.97 483.91L369.05 491.09L381.93 491L392.95 493.03L402.98 495.9L412.94 491.04L424.98 491.06L434.94 489.91L449.99 482.97L467.06 469.97L481.99 458L493.95 441.97L500.99 424.91L507.93 410.91L507.93 400.06L512.01 388.02L506.01 375.99L513.97 363.05L515.9 341.06L512.07 323.91L514.05 309.05L514.05 294.99L515.94 281.96L510.98 272.05L510.97 258.91L509.05 247.02L508.95 234.09L503.92 221.01L507.9 207.03L506 195.04L502.01 182.01L499.08 169.06L506.01 156.96L506.01 142.99L503.92 130.09L504.05 120.05L509.08 107.06L508.91 99.93L510.93 101.95L525.92 105.91L539.08 109.08L550.97 116.96L565.07 111.92L583.03 106.07L583.05 90.94L573.08 76.95L565.06 61.99L550.97 53.99L536.1 42L522.1 31.99L505.91 24L489.97 19.02L475.06 10.02L466.9 -2.03L451.06 -6.95L440.07 -17.93L425.01 -20.98L408.97 -15.91L393.96 -10.03L383.95 -0.06L378.91 13.93L386 24L392.02 36.09L390.99 48.9L391.94 62.03L390.07 74.07L390.01 86.95L390.91 99.98L389.93 111.97L388.1 123.91L387.93 150.04L392.04 162.93L385.08 174.9L390.1 186.05L394.01 199L393.96 212.09L396.07 227.05L395.93 239.1L393.99 251.96L396.94 265.05L393.92 277.02L396.09 287.93L394.06 298.94L397.98 310.98L397.98 324.01L395.98 337.97L394.03 354.05L386.91 366.07L386.08 380.01L373.04 390.05L359.1 397.05L346.99 396.91L336.91 394.02L324.98 394.04L312.08 381.95L297.06 370.03L282.99 358.97L268.03 352.91L253.91 344.97L240.97 334.1L236.05 323L230.96 309.09L230.91 291.94L228.9 272.1L231.08 255.01L231.98 238.04L231.01 217.99L231.91 200.92L232.02 169.93L230.97 153.95L229.03 138.07L233.95 122.95L234.05 110.97L239.07 98.91L246.07 90.94L256.02 83.08L267.91 83.05L277.96 79.01L289.97 77.94L303.01 74.02L320.04 61.95L327.92 55.09L320.05 44.91L303.08 37.02L288.07 33.07L272.92 24L258.95 14.97L248 7.03L233.96 -1.95L216.98 -4.08L200.01 -3.97L186 -2.08L170.07 -7.08L156.07 -5.02L141 -3.93L126.97 -4.91L110.94 -6.99L95.02 -5.09L79.96 0.08L62.97 2.07L48.1 6.96L38.06 17.07L29.94 28.03L34.99 37.99L45.04 47.07L51.95 57.06L62.93 66L72.97 74.09L83.06 81.07L94.97 87.94L106.03 96.01L110.93 106L112.92 115.97L113.91 128.03L113 140.03L114.03 152.04L113.95 164.96L116.06 174.98L116.05 186.92L117.96 198.97L117.92 210.99L113.93 224.08L116.04 235.96L113.93 247.94L114.02 283.98L113.07 299.03L114.02 311.01L114.02 333.99L117.97 353.06L118.04 370.99L119.97 389.97L120 406.96L106.97 416.97L95.01 417.91L78.03 418.07L58.06 419.98L41.08 426.96L28.08 430.06L20.97 439.06L21 450.92L27.91 462.96L40.96 480.99L56.05 481.94L65.04 482.03L77.01 493.08L94.91 494.04L112.98 494.07L129.1 497.96Z" fill="rgb(129, 104, 14)" transform="scale(0.9949475772913283,-0.9973640890389961) translate(3850.5,-1000) rotate(18)"/>
<path d="M399.93 601.97L409.94 608.92L417.91 620.03L433.9 618.03L445.1 626.99L456.1 627.96L469.01 634.02L482.96 638.95L498.01 637.03L509 625.07L526.02 623.03L538.94 611.03L540.91 591.94L538.1 572.99L537.01 554.09L532.03 537.09L519.99 522.02L507.98 509.94L492.98 497.97L477.1 494.04L462.95 495.91L453.99 500.92L445.06 508.99L435.02 518.93L435.07 538.08L421.98 520.1L422.05 516.03L416.03 500.94L422.04 482.98L419.02 465L424.99 439.98L435.9 426.96L437.95 405.04L441.96 386.07L447.08 364.91L455.02 346.02L460.92 328.09L460.95 310.9L451.95 299.97L443.93 289.99L441.1 276.04L431 267.08L424.93 255.02L424.95 239.09L413.91 227.04L408.96 216.97L397.08 214.05L387.92 204.03L378.95 186.95L362.94 183.97L353.06 175.06L341.96 161.9L325.03 162.08L311.01 153.04L301.06 146L283.96 144.9L271.92 135.99L256.08 130.02L240.94 129.01L224.02 130.01L210 134.09L195.04 136.08L183.03 127L169.06 130.05L163.97 117.01L162.94 102.1L159.97 89L160.06 73.92L170.07 64.92L188.02 61.99L204.05 67.1L220.09 61.96L238.08 59.08L255.94 64L276.06 59.05L293.93 62.09L314.02 59.01L331.99 58.98L350.95 53.92L368.91 59.05L385.94 52.08L397.92 42.92L412.91 42.04L428.08 40.02L437.9 30L442 19.02L452.05 10.94L459.93 3.96L466.92 -4.97L474.91 -13L475.91 -26.99L490.97 -30L491.05 -42.01L491.92 -53L497.97 -64.02L500.08 -75.98L500.05 -86.01L498.03 -101.02L500.99 -116.02L492.08 -128.94L481.91 -145.09L477.99 -160.92L465.96 -163.02L459.93 -170.03L447.01 -173.04L440 -182.04L430.94 -188.92L419.97 -197.08L400.09 -198L387.98 -207.03L372.07 -217.02L359 -226.05L342.06 -229.99L328.02 -243.95L311.08 -245.06L294.01 -254.92L281.08 -252.97L269.01 -254.98L255.94 -251.01L246.99 -258.05L235.08 -260.05L224.06 -266.97L212.96 -262.95L203.07 -271.98L191.97 -273.09L177.96 -273.03L162.99 -270.04L149.91 -265.91L133.92 -266.91L121.92 -266.93L111.05 -260.03L94.95 -257.91L79.04 -259.95L62.1 -257.96L55.9 -243.95L42.09 -237.91L29.08 -226.96L20.05 -213.03L7.96 -199.98L6.92 -183.04L6.97 -151.09L18.91 -134.08L27.04 -116.08L42.06 -101.94L52.98 -92.05L60.01 -83.01L66.04 -74.06L76.03 -67.04L85 -63.04L91.98 -50.91L100 -43.97L110.95 -38.08L113.92 -27.05L105 -20.03L89.08 -15.96L74.94 -13.91L63.06 -1.91L56.03 11.1L50.05 26.95L43.91 42.05L45.08 58L49.97 72.91L65.99 79L71.94 93.94L72.95 109.05L76.02 123.99L100.1 136.04L108.05 148.93L96.95 162.07L94.07 179.97L81.94 190.02L72.9 202.01L66.09 218.07L66.91 230.98L62.98 244.95L56.9 258.09L62.9 271.03L66.06 284.94L65.97 299.06L69.96 311.05L66.97 325.03L73.08 337.05L78.05 351.06L88.08 360.06L91.97 372.02L95.01 387.02L107.92 395.04L113.99 408.05L125.09 416.91L132.01 429.08L141.02 442.08L157.1 446.1L166.92 454.91L172.03 468.04L185.94 473.93L196.93 485.9L210.08 492.02L222.97 492.98L235.03 496.06L245.09 505.1L257.98 504.97L273.1 508.05L286.99 503.96L304.01 502L319.91 500.97L331.94 492.93L345.08 485.91L354.94 477.04L359.03 485.07L364.94 497.98L373.05 509.06L374.05 524.91L378.91 541.06L381.06 557.04L383.06 572.07L388.99 576.95L391.01 586.02L390.99 594.1ZM236.08 416.95L223.06 420.03L209.95 414.07L198.01 397.96L193.98 382.98L189.01 372.05L183.08 347.95L182.98 337.1L182.1 323.06L182.02 311.03L179.01 298.99L181.97 283.05L184.91 264.91L194.1 249.09L206 237.04L222.96 231.1L241.01 224L259.94 220.05L275.96 218L293.01 221.07L310.03 229.98L323.02 238.92L331.97 251.99L338.09 265.06L342.01 277.08L341.92 292.07L341.08 306.06L326.03 336.04L319.04 348.02L307.93 360.95L298.99 374.03L287.05 386.1L274.93 394.93L263.04 402.96L250.02 411.05ZM238.91 -31.95L219.99 -35.09L201.04 -44.03L186 -50.96L174.98 -59.04L163.09 -66.96L152.1 -78.99L141.07 -91.93L131.99 -104.94L125.92 -119.09L122.93 -131.95L124.97 -148.01L135.09 -163.07L147.91 -172.08L158.02 -175L169.93 -179.01L185.09 -179.01L196.96 -181.99L210.07 -182.08L222.01 -182.92L233.05 -184.95L247.05 -185.97L258.01 -185.08L269.99 -184.98L284.07 -182.09L294.03 -181.94L304.99 -174.9L316.91 -172.06L327.91 -169.08L339.08 -163.95L350 -160.96L358.98 -155.09L368.97 -150.95L376 -136.09L378.95 -121.94L378.98 -110.99L377.05 -98L372.03 -88.04L364.93 -79.08L356.97 -67.96L350.01 -59.91L338.98 -51.07L328.06 -44L319 -40.97L307.92 -34.98L297.97 -32.93L260.08 -32.95Z" fill="rgb(69, 8, 41)" transform="scale(1.0058453230458784,-0.981872997071682) translate(4458.5,-1000) rotate(0)"/></g><path d="M347,910 C1308.7666666666667,583 3850.8333333333335,79 4601.900000000001,895" stroke="rgb(55, 95, 1)" stroke-width="39" fill="none"/>
<path d="M461,1084 C508.7666666666667,78 4414.833333333334,25 4807.900000000001,1112" stroke="rgb(175, 20, 189)" stroke-width="39" fill="none"/>
<path d="M167,774 C790.7666666666667,792 3022.8333333333335,1164 4797.900000000001,98" stroke="rgb(137, 187, 2)" stroke-width="39" fill="none"/></svg>