<svg xmlns='http://www.w3.org/2000/svg' viewBox="0 0 4811.666666666667 1300"><rect width="4811.666666666667" height="1300" fill="rgb(214, 209, 179)" /><g transform="scale(1,1)"><path d="M64.96 769.94L80.99 777.01L93 777.04L106.01 779.92L118.01 779.99L132.06 786.94L143.95 780.06L159.09 788.99L172.97 785.93L185.92 784.1L199.98 790.95L213.98 788.91L221.94 782.02L233.98 778.96L242.99 769.94L250.06 760.02L253.05 739.07L251.08 719.08L250.03 698.05L251.04 681.08L254.9 669.08L249.92 653.94L253 641.94L253.03 629.99L247.95 616.92L251.07 604.96L247.92 593.1L245.97 578.9L247.98 565.05L245.08 550.98L248.07 538.02L243.06 524.09L241 509L244.96 492.93L244.95 478.01L247.91 461.97L245.99 445.09L246.03 430.04L249.93 414L245.92 399.1L246.02 382L242.95 369.03L244.92 352.93L245.09 321.07L241.03 303L240.91 285.98L237.97 270.94L236.05 255L242.96 240.09L244.97 224L239.08 209.1L245.01 194.02L243.05 179.94L248.05 165.92L244.95 152.08L242.92 139.09L242.97 123.91L246.03 109.98L253.06 97.07L265.06 85.94L283.98 85.96L302.92 83.03L324.09 83.91L341.91 80.99L360.02 79.07L372.07 65.97L375 53.93L365.97 45.06L358.09 37.95L348.01 40.1L336.1 36.06L324.02 30.92L310.05 25.92L300.97 16.08L288.03 10.96L277.02 6.07L262.03 9.06L245.92 6.06L232.99 6.95L218.92 6L204.97 -1.03L190.09 -3.05L176.02 0.05L161.06 1.98L143.98 -1.02L130 0.03L115.02 5.93L101.03 2.08L85.98 6.95L71.96 6.92L59.98 12.01L47.91 15.91L33.98 15.92L26.02 27.9L21 43.06L26.02 59.94L37.9 69.04L46.08 78.97L53.06 91.09L68.91 100.06L82.02 102.08L94.07 102.99L105.92 102.96L117.09 104.93L121.91 115.06L123.91 126L125.08 138.92L126.95 148.92L124.91 159.06L123.99 171.09L125.04 182.01L129.1 194.05L124 206.06L123.96 220.93L120.06 237.92L121.93 255.03L125.03 269.03L121.93 280.92L127.03 291.02L127.02 303L124.02 314.93L125.06 326.93L130.03 337.96L127.03 350.03L131.93 361.94L126.95 373.91L129.92 387.01L130.04 400.1L124.95 411.91L129.08 425.91L121.92 435.91L120.03 448.07L117.93 462L120.07 479.02L123.99 495.01L125.02 512.08L125.03 536.08L130.04 547.91L132.02 560.05L129.92 571.91L132.1 583.96L134.05 598.1L128.96 610.97L132.02 623.06L137.05 636.06L132.09 648.08L135.97 660.93L132.07 676.05L125.1 695.08L118.04 703.04L102.97 704.95L89.08 702.91L73.97 707.08L57.91 709.06L43.02 706.91L28.97 713.93L13.91 721.04L12 736.08L21.99 750.04L33.9 758.99L47.95 765.91Z" fill="rgb(111, 161, 2)" transform="scale(0.9950275837826069,-1.013014594730874) translate(20,-1000) rotate(0)"/>
<path d="M269.91 518.09L284.04 514L296.9 513.06L309.06 508.91L344.08 508.97L364.09 502.99L381.04 494.01L397.05 483.98L409.01 470.94L422.07 458.91L432.04 444.03L444.09 431.97L452.04 414.09L464 397.09L470.98 378.06L474.02 356.02L485.96 338.03L489.04 315.99L497.06 296.95L496.98 278.04L500.95 259.92L503.03 239.99L503.02 218L507.92 198.91L502.95 183.07L502.97 164.94L493.95 152.94L487.95 137.98L477.06 125.91L467.06 111L451.96 99.03L434.09 84.92L422.08 70.98L407.09 55.93L390.94 40.92L375.98 28.06L356 20.92L343.96 4.01L325.96 -2.96L309.04 -5.94L297.04 -18.02L282.08 -21.03L267.91 -20.93L254.95 -16.06L242.95 -11.93L227.96 -6.04L217.98 1.95L211.06 13.08L198.03 18.97L185.99 24.05L173.09 30.91L161.1 33.1L146.99 40.01L134.94 48.04L122.97 63L105.91 76L98 87.95L90.06 101.03L84.01 113L80.91 127.02L70.9 138.07L68.02 152.9L62.91 165.08L55.98 177.98L49.96 188.06L45.96 200.98L43 211.92L41.08 226.04L44.07 244.04L46.01 265.02L57.91 283.07L55.95 305.07L61.09 322L65.94 342.06L64.01 355.98L75.06 364.98L78.05 380.1L88.05 388.93L93.07 399.05L110.93 415.03L118 422.01L126.98 432.09L138.08 436.95L143.07 446.94L154.92 452.99L166.1 461.96L177.95 465.95L187.93 474.06L198.08 483.91L213.02 496L232.09 502.92L251.93 513.06ZM213.05 414.94L199.97 409.02L193.02 394.92L186.07 382L180.09 365.07L178.07 349.09L174.95 331.01L167.99 316.05L168.96 297.02L169.02 251.04L175.06 235.05L175.93 220.05L186 206.02L193.02 193.09L197.92 178.94L207.04 166.09L215 156.07L234.97 138.04L244.98 130.96L260.04 126.97L274.96 120.01L294.98 113.09L315.04 109.02L336.91 112.9L349.01 123.92L361.1 133.91L366.91 150.91L370.91 165.91L370.97 185.03L374.07 202.96L374.05 239.99L371.94 259.94L366.91 278.08L366.92 293.97L361 304.9L355.98 316.05L351.97 329.01L347.02 341.94L342.01 352.91L336.92 362.91L328.95 374.02L319.05 387.04L306.1 401.06L290.09 409.91L275 413.97L249.93 414.08L238.08 417L224.98 415.06Z" fill="rgb(57, 208, 6)" transform="scale(1.0172459909197296,-0.9950874722893) translate(398.5,-1000) rotate(7)"/>
<path d="M500.92 497.01L514.1 498.92L526 495.9L533.04 490.03L539.05 478.93L538.92 467.99L530.93 461.01L524.9 450.96L517.92 445.01L503.91 434.91L489.97 421.95L471.93 414.91L455.03 410.92L447.07 401.93L440.02 385.09L431.02 368.91L427.99 349.05L417.99 332.07L414.07 313L406.93 296.02L401.1 278.97L395.95 266.96L395.02 255.02L386.99 245.99L387.02 234.92L386.06 226.01L382.93 213.1L378.06 203.92L373.96 193.09L370.91 178.9L360.94 163.09L352.03 147.09L343.02 129.09L336.04 111.92L335.02 95.02L332.03 81.03L328.01 64.98L320.94 52.94L319.92 42.07L315.94 31.03L307.99 23.01L302.07 11.91L287.04 -1.02L275.9 -13.96L258.95 -23.96L248 -32.01L239.07 -30L231.94 -17.94L224.95 -0.03L222.95 16.99L212.97 32.95L206.94 51.09L198.96 67.02L189.07 82.04L179.99 97.05L174.98 113.98L171.97 131.07L167.03 148L157.08 164.09L152.05 180.97L143.02 199.06L134 218L126.91 235.03L116.94 251.92L112.06 269L103.02 285.97L97.96 303.01L84.09 336.91L80.07 353.01L70.08 366.94L60.02 379L51.05 392.09L40.92 400.97L29.95 397.93L13.05 396.03L-3.93 395.93L-17.98 410.06L-23.05 422.93L-20.03 437.91L-13.9 448.06L7.91 465.93L19.07 476.09L32.9 482.02L48.92 486.92L63.94 490.02L74.97 492.02L110.94 492.04L133.03 490.97L153.05 492.92L172.98 490.01L190.09 492.07L201.99 489.08L214.07 490.99L226.07 490.95L241.04 490.02L256.09 482.96L263.08 475L261.95 463.1L250.01 455.06L242.07 440.96L230.98 431.9L219.95 423.97L210.04 411.97L199.02 404.99L196.02 393.94L196.08 378.93L200.98 366.01L206.07 355.07L211.99 344.91L219.1 334.08L222.94 320.9L227.05 310L228.92 296L235.03 282.95L240.9 273.99L243.1 260.07L246.05 249.09L253.97 238.05L257.01 227.09L259.03 214.98L264.99 204L270.04 194.92L278.01 183.93L281.02 171.91L286 165.01L294.07 173.04L298.97 186.06L303.9 198.02L309.01 211.09L315.93 221.07L316.94 235.09L323.98 244.97L327.95 258L330.96 271.92L330.98 283.92L337.07 296.94L340.91 310.07L344.04 320.02L350.97 331.01L352.93 342.02L357 352.03L364.05 361.01L369.96 372.98L373.08 389.95L370.01 401.08L362 406.09L351.1 403.95L341.95 404.97L331.05 412.97L323.09 420.96L318 433.92L320.97 443.07L327.08 452.95L334.94 460.03L343.94 467.94L353.05 472.99L360.04 481.98L377.95 494.04L390.05 495.98L407.05 493.04L422.06 492.96L439.05 490.09L456.04 491.93L470.98 491.98L484.9 496.03Z" fill="rgb(71, 15, 98)" transform="scale(0.9827897641214663,-1.0162475720138258) translate(1013.3333333333334,-1000) rotate(-10)"/>
<path d="M225.09 509.05L240.05 508.94L255.93 506.99L272 504.05L286.94 499.05L301.97 494.96L313.98 489.03L328.97 488.03L339.96 478.98L350.06 472.05L361.05 463.93L372.05 455.02L379.07 442.02L387 434.09L390.97 420.02L399.02 409.03L405.92 399.05L409.99 383.99L416.97 364.98L425.93 347.9L426.97 330.04L416.99 314.97L402.03 304.93L389.06 294.08L375 279.94L361.03 270.02L347.04 270.02L332.91 266.03L317.01 267.95L300.09 265.09L284 265.94L267.97 268L251.95 268.05L235.01 265.95L214.01 270.02L193 267.95L174.99 264.92L165.07 257.06L166.91 245.09L166.99 230.05L164.98 217.06L170.93 201.08L171.94 187.92L174.02 176.03L176.06 163.06L188.97 149.99L198.9 136.97L205.92 124.91L220.92 114.98L231.09 103.96L246.96 103.97L257.91 101.08L270.08 99.06L281.92 98.93L298.1 100.91L313.94 104.92L328.92 113.91L345.04 120.97L361.94 125.06L378.93 123.03L398.93 121.07L406.02 109.05L403.93 93.06L394.02 80.94L383.96 72.05L375.01 59.01L358.07 45.92L344.94 36.05L331.98 22.9L314.96 16.92L297.93 9.05L277.94 2.9L256.07 2.09L239.96 -5.94L225.08 -7.1L210.08 -6.09L198.01 -10.08L182.99 -6.01L164.99 6.08L145.92 16.05L126.07 26.06L99.04 53.02L91.01 71.09L81.01 85.99L71.07 105.95L59.1 122.94L55.09 151.05L45.96 170.01L46.04 193.04L40.92 213.09L43.08 235.04L44.08 256.94L44.03 278.05L48.1 299.94L50.02 322.06L62.06 342.04L68.92 360.1L77.98 379.97L85.02 399.09L97.97 412.94L106.03 428.03L115.08 437L127.07 447.1L134 456.92L144.99 465.96L155.02 470.91L165.03 477.93L174.98 485.96L188.05 488.95L201.93 495.03L213.9 501.03ZM233.1 425.05L216.04 425L202.02 417.07L191.94 406.98L183.1 395.92L177.94 383.04L170.03 368L168.05 352.05L165.08 340.07L165.05 324.91L185.03 323.91L200.07 324.05L214.04 321.99L264.97 321.91L277.05 324.06L288.94 325L302.09 326.91L317.1 330.03L322.06 340.05L319.92 349.92L314.99 362.06L307.03 377.01L297.94 389.03L287.08 401.01L272.94 415.09L256.08 419.97Z" fill="rgb(198, 16, 89)" transform="scale(1.0004379078679684,-1.0106257189304135) translate(1487,-1000) rotate(16)"/>
<path d="M140.94 768.05L148.02 768.99L153.03 764.04L160.95 762.96L172.96 763.01L181.04 764.94L188.03 765.91L195.91 768.9L203.94 764.98L209.93 761.02L216.96 755.97L224.02 753.94L229.09 749.02L231.02 742.96L231.91 735.96L229.95 727.92L230.08 708.04L233 700.02L233.01 691.97L233.96 684.09L236.09 677.06L238.09 668.95L239.08 661.04L236.02 653.07L236.02 645.95L237.07 637.03L235.91 628.1L232.95 619.09L230.97 611.04L230.96 594.08L234.08 584.91L235.07 577.06L236.08 570.05L234.07 563.96L230.08 558L229.02 551.94L231.97 544.95L230.93 535.94L230.05 528.93L231.94 522.96L235.06 516.98L235.08 511.04L231.96 503.06L231.93 492.91L232.92 482.06L226.07 473.05L223.07 465.09L226.91 458.1L228.98 449.01L226.07 437.04L225.94 425.98L224.96 416.96L220.96 403.08L218.91 394.98L219.94 386.07L224.09 377.02L223.93 369.05L224.98 359.99L219.05 332.99L223.07 323.97L222 316.02L219.98 308L220.92 300.94L222.91 293.95L226.95 289.95L231.06 292.97L234.08 298.96L238.02 302.03L245.96 301.95L252.96 308.97L257.08 317.92L258 323.91L264.98 326.94L273.98 325.91L278.06 331L279.01 338.05L284.03 345.91L291.09 350.92L297.02 354.1L302.96 357.91L307.01 362.05L309.91 369L312.91 376.95L318.94 381.96L325.96 385.92L331.05 390.96L334.92 398.02L339 403.9L345.06 410.99L348.99 415.98L347.08 422.94L338.02 429.09L328.99 432.97L322.07 434.07L315.98 435.02L309.97 435.03L302.92 440.03L302.96 450.97L306.07 461.9L310.08 471.03L317.06 480L322.91 488.02L329.92 489.9L337.93 494.91L349.06 498.1L359.06 497.03L369.92 499.09L380.03 502.98L389.91 506.01L400.91 507.91L408.98 507.08L422.98 507.06L430 506.01L445.04 505.95L452.95 505.02L459.03 499.05L466.03 495.99L472.92 495.02L494.91 494.97L502.96 493.95L511.1 495.91L529.01 499.99L538.99 503L547.04 502.08L553.95 495.08L561.96 492.93L570.93 495.06L577.91 492.04L579.08 484.09L579.07 474.95L571.98 469.99L563.98 471.06L559.05 467.04L556.97 457.94L553.05 453.04L544.91 454.1L535.95 451.98L530.94 444.97L529.02 438.99L522.09 435.07L504.98 434.95L495.1 433.01L487.07 429.07L473 427.03L465.94 427.93L454.09 422.04L449.05 413.94L434.94 407.01L428 404.92L421.96 400.94L414.9 396.9L412.04 391.04L407.04 383.07L401.05 375.06L393.03 365.97L379.02 348.05L372.02 333.91L364.09 329.98L359.02 322.9L359.07 315.9L358 310.03L353.03 305.08L355.9 299.94L362.08 294.02L367.07 286.09L369.09 276.93L373.9 271.08L381.07 266.1L392.96 255.93L399.97 250.03L407.94 245.92L415.08 242L419.9 234.06L426.02 228.07L430.07 219.96L434.94 214.03L442.97 210.03L450.02 204.07L454 194.92L458.01 187.03L464.07 178.98L468.91 171.07L473.09 163.07L478.02 156.05L485.08 150.08L493.04 144.09L500.02 137.06L505.07 127.94L507.06 119L513.1 113.96L520.96 110.98L528.03 105.92L533.04 97.95L539.06 92.92L545.98 92.05L552.91 88.93L562.03 88.98L570.02 85.92L577.05 82.9L584.98 79.94L592.92 81.09L601.01 78.09L604.91 71.92L610.93 67.96L625.04 63.96L629.92 57.92L631.93 50.95L626.92 43.92L621.93 38.98L614.98 33.99L610.01 25.01L603.06 20.93L592.96 22.02L586.94 20.09L581.92 11.92L576.98 5.03L572.03 -1.09L557.92 -11.01L551.02 -12.91L543.9 -13.99L538.01 -14.04L531.04 -12.09L515.04 -12.07L507.05 -13.95L497.95 -15.9L491.08 -15.95L484.96 -10.99L479.92 -6.04L474.06 -1.98L467.99 -0.05L460.95 0.92L454.07 4.08L447.07 8.08L439.96 12.94L431.92 18.05L425.06 23.99L420.05 33.03L414.01 40.95L405.01 48.98L399.02 57.02L394.94 65.91L388 70.92L379.95 74.92L370.1 88.99L366.01 95.98L361.08 101.97L360.05 110.09L358.09 117.94L354.96 125.98L349.02 130.96L341.97 134.92L336.02 139.93L327.97 146L320 150.95L314.01 155.97L309.02 162.09L305.02 169.05L304.09 175.94L299.91 183.02L293.98 188.96L284.08 201.01L280.02 206.92L274.04 213.1L266.99 218.04L258.09 219.03L252.05 224.06L247.08 229.92L243.06 237.06L238.01 243.92L230.04 247.09L226.04 241.03L223.07 230.9L218.01 221.09L215.9 211L218.07 201.92L217.99 192.07L216.96 182.06L217.06 172.99L219.99 165.08L220.04 136.02L216.99 130.05L218.9 124.07L221.95 118L225.96 110.93L232 90.02L236.98 86.96L251.02 86.96L257 82.95L262.95 82.02L277.01 82.02L284 81.02L292.9 79.02L302.07 75.05L308.06 72.07L315.08 66.95L317.96 60.04L312.1 46.03L307.03 39.96L300.03 35.96L284.07 32.04L277.04 30L270.07 27.03L262.97 22.97L257.02 19.02L249.91 15.01L245.04 8.96L240.98 1.96L234.05 -3.06L224.93 -6.08L218.03 -7.05L210.99 -4.99L204.97 -3.04L198.03 -2.07L190.07 1.03L182.08 3.07L175.03 2.94L167.92 1.9L159 2.06L150.05 5.99L144.04 9.06L138 9.07L133.04 4.97L123.08 5.07L111.04 4.05L102.06 3.98L96.07 2.07L89 1.03L83.02 4.01L74 3.08L64.97 4.06L57.98 4.95L52.04 6.92L44.95 8.03L36.98 10.05L29.06 15.95L26.99 25.94L28.94 36L31.95 45.01L37.05 55.07L42.1 63.97L48.08 69.93L56 76.01L62.99 82.04L69.04 90.03L77.98 94.98L88.04 97.94L93.97 102.03L97.94 107.92L101.09 114.07L103.09 121.98L104.95 140.03L104 149.03L104.06 159.08L105.01 168.93L111.05 177.94L111.93 188.06L109.9 198.05L111.93 206.99L115.05 215.98L116.07 226.07L114.09 234.92L113.93 243.93L115.02 254.03L114.09 262.97L111.91 271.08L112.04 280.02L115.92 289.06L116.92 296.92L115.01 313.08L111.02 322.09L111.09 329.95L117.01 338.08L117.93 344.94L115 369.05L117.06 377.97L121.97 387.09L125.03 394.96L125.08 402.95L122.1 409.98L117.02 415.95L117.09 422.09L120.04 429.97L121.06 439.1L118.92 446.97L118.92 466.93L121.96 478.03L128.01 486.95L129.04 495.02L126.01 502.97L126.98 508.99L128.98 516.04L131.1 523.96L129.04 532.04L125.9 537.93L124.94 545.05L122.97 552.01L120.91 560.98L118.96 570.94L118.09 579.96L116.95 587.9L117.08 594.96L119.96 600.94L122.04 610.92L124.04 621.92L125.03 631.07L121.09 636.05L121.95 643.02L127.97 648.05L126.96 655.95L124.97 666.96L123.02 674.99L118.07 680.94L111.07 680.08L103.03 675.08L95.95 675L88.92 679.96L82.04 680.92L74.99 679.92L65.99 677.04L57.05 676.06L51.05 679.05L43.94 677.93L38.02 675.97L30.9 679.03L23.9 687.01L21.09 693.91L21.07 701.06L22.95 707.92L23 716.02L27.95 721.93L34.96 729.05L51.06 739.07L60.02 743.02L69.99 746.92L78.04 750.9L84.06 753.06L92.91 753.94L100.92 757.99L108.93 759.04L115.99 760.93L122.04 760.94L129.04 763.1L136.09 764.09Z" fill="rgb(158, 126, 0)" transform="scale(1.014849791598844,-1.0109634061135602) translate(1892.8333333333333,-1000) rotate(12)"/>
<path d="M225.08 508.98L240.07 508.85L255.92 506.91L271.92 504.09L286.88 499.06L301.94 495.05L313.91 488.95L328.91 488.04L339.94 478.93L350.15 472.09L361.04 464.02L371.98 455.1L379.09 441.94L386.98 434.1L390.88 419.93L399 409.13L405.95 399.09L410.02 383.9L416.99 365.01L425.89 347.98L427.03 330.04L416.95 314.98L402.04 304.92L389.02 294.02L374.93 279.9L361.07 269.97L347.01 269.92L332.92 266.08L317.05 268.02L300.12 265.18L284.05 265.86L268.05 268.08L252.01 268.12L235.08 265.88L214.1 270.01L192.91 267.86L174.93 264.88L165 257.11L166.94 245L167.04 230.13L164.98 216.99L170.94 201.02L171.9 187.87L174.02 176.04L176.06 163.07L188.87 150.01L198.98 136.89L205.94 124.93L220.94 114.94L231.17 104.06L247.06 103.89L257.87 101.11L270.04 99.04L281.84 99.02L298.04 100.89L313.99 104.87L328.85 113.96L345.12 120.95L361.94 125.16L378.86 123.12L398.84 121.15L406 109.05L403.91 92.98L394.08 80.98L383.99 71.99L374.99 58.95L358 45.9L344.93 35.96L332.04 22.93L314.94 16.97L297.87 9.15L277.94 2.82L256.01 2.08L239.92 -5.97L225.09 -7.17L210.09 -6.08L197.99 -10.16L183.01 -6.05L165.06 6.07L145.96 15.99L126.16 25.97L98.95 53.05L90.98 71.04L80.93 86.03L71.11 105.94L59.16 122.9L55.11 151.08L45.88 170.11L46.08 193.04L40.86 213.14L43.18 235.12L44 256.94L43.96 278.07L48.02 300.01L49.92 321.97L62.07 342.07L68.98 360.14L78.07 380L85.07 399.17L98.04 412.89L106.12 427.98L115.06 436.98L127.11 447.19L133.99 456.92L145.02 466.01L155.02 470.91L164.94 477.99L175.07 486.02L188.03 488.85L201.96 494.98L213.9 501.01ZM233.16 425.06L216.06 425.09L201.99 417.06L192.03 407.05L183.09 395.99L177.89 382.99L169.99 368.05L168.12 352.01L165.1 340.06L164.95 324.9L185.1 323.83L200.01 324.08L213.98 322.05L264.93 322L277.01 324.03L288.93 324.95L302.12 326.88L317.09 329.99L322.09 339.97L319.99 349.95L314.93 361.97L307.12 377L297.97 389.08L287.04 400.95L272.86 415L256.01 420.05Z" fill="rgb(91, 218, 11)" transform="scale(1.0064474596600002,-0.9855062493113272) translate(2429.6666666666665,-1000) rotate(-4)"/>
<path d="M350.06 27L341.92 27.06L323.99 21.04L310.05 13.01L300.07 5.98L287.96 2.98L278.01 2.06L267.03 -2.96L255.01 -3.03L244.02 0.02L231.07 -2.03L218.03 -4.94L203.07 -5.02L192 2.09L178.94 2.91L167.05 9.07L153.95 13.03L145.01 21.08L131.04 26.06L122.03 31.91L112.96 41.91L107.01 55.03L98.06 68.99L88.93 76.99L78.07 88.97L71.07 102.92L63.92 119.08L60.06 137.04L55.09 154.05L49.95 172.99L48.03 190.93L49.99 207.01L50.92 225.97L50.05 243.09L51.08 255.03L57.93 265.99L65.96 281.06L69.06 294.06L68.92 306.06L72.95 316.97L78.92 326.07L78.9 338.06L84.09 347.98L90.02 358.08L95.09 365.91L102.01 375.94L105.09 386.03L112.1 397.08L123 402.9L131.04 412.93L138.07 423.04L152.95 431L166.91 443.05L196.98 462.96L212.09 471.99L243.96 491.95L259.97 499.92L277.07 505.91L293.06 509.93L305.91 512.99L321.91 510.94L334.93 510.93L347.06 507.91L357.02 503.03L367.93 501.04L380.08 496.99L390.05 492.9L402.08 490.02L414.05 484.03L425.03 464.93L431.99 481.91L441.94 498.09L453.01 504.98L467.08 508.07L479.03 510.94L490.92 505.97L501.04 502.96L505.98 497.96L518.03 486.91L514.94 472.06L507.01 460.91L505.96 446L500.05 433L496 420.01L491.91 408.06L489.07 394.04L484.08 381.9L484.07 371.07L481.93 358.92L484 345.94L484.03 330.96L486.05 316.91L485.97 301.91L484.02 288.02L486.08 274.05L487.06 259.99L486.96 217L484.01 204.09L486.97 190.95L484.05 177.91L484 163.09L479.09 147.06L478.96 132.05L472.93 119.01L475 103.9L471.99 88.96L470 74.99L466.94 59.91L465.09 44.04L464.95 29.01L462.05 14.04L463.08 -0.05L461.97 -13.03L462.06 -26.02L464.9 -39.01L461.94 -51.04L461.93 -62.97L459.91 -75.02L461.96 -86.98L457.98 -98.01L458.07 -109.91L461.91 -120.99L460.07 -133.01L463.08 -142.99L466.91 -157.06L472.94 -167.91L485.96 -175.01L500.97 -175L514.06 -172.96L526.93 -176.98L541.99 -176.99L567.97 -187.06L581.06 -188.02L583.91 -198.08L581.03 -210.99L572.02 -213.04L562.93 -221.08L546.95 -224.01L533.91 -230L524.01 -239.93L514.04 -247.96L502.02 -256.92L491.07 -261.98L479.08 -261.97L465.02 -260.09L453.04 -262.01L439.02 -262.05L425.06 -263.08L411.94 -266.93L398.04 -267.02L384.96 -267.94L372.98 -265.08L362.05 -262.96L335.01 -263.04L326.01 -267L310.97 -267.94L298.07 -265.03L284.98 -262.95L272.08 -263.03L257.09 -255L251.92 -240.05L248.91 -228.09L253.93 -215.94L265.01 -200.08L280.03 -190.06L294.92 -177.09L306.02 -169.9L317.99 -169.99L333.99 -168.04L346.95 -159.94L347.06 -125.94L350.05 -110.03L351.94 -95.07L350.09 -82.01L344.09 -68.94L343.91 -56.04L342.1 -38.99L349.02 -20.06L348.97 -5.05L349.99 6.03ZM279.09 430.05L264.08 424.93L249.03 417.96L234.03 408.1L223.09 401.96L216.94 387.97L208 376L200.02 361.01L192.91 347.97L185 333.01L180 316.04L177.04 299.05L174.03 286.07L169.06 274.07L166.91 260.94L164.08 247.97L164.04 223.92L166.95 212.09L168.93 202.01L172.02 193.09L175.08 181.06L179.05 171.02L182.93 158.95L187.98 148.99L195.01 138.96L202.09 126.98L212.1 117.03L225.96 107.95L240.09 101L252.02 97.95L261.92 93.91L272.96 91.08L284.91 88.07L297.91 85.96L319.9 85.94L334.96 88.9L352.04 101.05L362.08 114.04L366.93 131.1L369.99 141.96L369.92 173.03L372 189.1L371.94 205.96L370.06 221.01L369.96 233.96L368.01 247.98L367.02 262.95L367 276.09L364.98 288.95L363.09 304.04L362.09 317.09L363.08 334.97L366.92 371.02L366.95 388.91L361.92 399.98L355.01 407L344.94 414.92L325.91 423L309.92 428.04L299.98 430.1L288.06 431.03Z" fill="rgb(29, 101, 16)" transform="scale(1.0132747484485773,-0.9972790367777175) translate(2864.5,-1000) rotate(-20)"/>
<path d="M208.09 504.05L221.06 506.95L234.95 503.94L244.94 495.09L256.03 488.09L261.08 473.97L263.96 455.95L258.92 437.03L260.99 418.08L257.99 400.05L259 380.05L255.97 362.02L256.08 290.01L258.07 272.07L254.07 253.04L253.94 231.03L251.97 209.95L253.99 189.06L251.06 170.92L252.07 160.94L251.97 149.94L251.08 138.08L258.04 125.01L260.95 108L265.91 94.95L276.09 94.02L289.94 89.97L305.96 86.92L321.96 82.92L340.05 82.99L354.93 74.96L369.1 66.05L370.97 48.94L355.05 41.92L339.99 28.97L320.06 29.02L308 17.08L298.99 7.06L284.95 2.95L273.02 0.03L257.95 0.08L244.01 -4.07L228.03 -2L208.03 1.08L191.08 1.01L179.1 0.02L165.96 -2.05L128.05 -2.06L114.93 1.05L102.96 -1.94L84.01 0.96L63.02 10.1L48.91 14.99L46 33L56.09 47.05L76.95 67.95L89.98 74.92L103.06 87.02L114.92 95.06L128.05 104.01L132.94 117.98L130.96 132.1L133.08 146.04L135.08 160.96L135.03 174.91L131.03 186.95L135.04 200.91L136 214.95L134.93 226.98L138.01 238.91L136.06 251.07L137.97 264.06L138.06 273.99L139.96 285.99L138.04 297.1L139.99 308.99L140.06 331.92L136.01 343.94L139.91 357.01L140.07 374.06L134.95 394.95L125.94 407.08L113 409.01L98.05 409.01L86.03 411.01L72.07 408.96L54.08 407.04L36.95 410.93L26.02 423L21.06 435.03L28.01 443.93L35.06 455.07L45.9 466.94L55.94 476.93L68.09 487.92L84.07 497.98L99.95 499.9L107.94 497.03L117.02 491.01L128.09 495.01L156.05 495.02L169.98 498.06L194.08 505.92ZM197.07 741.08L216.91 742.92L232.92 735.96L247.06 728.97L258.96 719.9L265.95 706.06L269.09 690.06L274.03 673.9L280.94 658.96L280.93 643.95L268.96 634.97L257.03 631.05L233.09 621.08L222.02 617.09L213.08 609.99L202.93 605.05L192.08 597.92L179.99 595.91L164.04 604.93L149.94 618.96L138.09 634.96L125.02 651.01L118 667.05L118.06 681.09L123.03 694.05L129.93 706.08L142.98 720L156.99 731.07L173.97 738.1Z" fill="rgb(12, 44, 90)" transform="scale(1.0162952484584429,-1.0098896905084531) translate(3374.3333333333335,-1000) rotate(14)"/>
<path d="M143.91 505.91L160.04 504L172.91 501.02L188 507.91L201.91 503.96L215.1 501.04L227.08 495.07L238.99 480.91L242.91 464.9L243.99 450.94L241.09 438.97L244.01 426.91L255.97 424.01L269.04 430.09L280.92 439.01L293.1 448.92L307.03 457.99L321.05 463.09L332.91 472.95L347.05 480.91L358.95 484.08L369.02 490.9L381.98 490.96L392.98 492.92L403 495.95L413.09 490.96L425.08 491.04L435.09 490.02L449.97 483L466.99 470.08L481.98 458.02L494.01 441.93L501.07 424.96L508.06 410.95L508.08 400.07L512.01 388.02L506.07 375.98L513.94 363.1L516.02 340.96L511.92 324.07L514.07 308.92L513.95 295L516.02 281.95L510.99 272.04L510.99 258.99L509.03 247.01L508.94 233.93L504.02 220.98L507.98 206.92L505.96 195.05L501.93 182.02L499.01 169.09L505.93 156.94L505.93 143.08L504.09 129.97L504.01 120.04L509.07 107.07L508.92 99.94L511.01 101.95L525.98 106.09L538.91 108.94L551.01 116.91L564.94 112.08L582.93 106L582.99 90.93L573.01 76.95L565.01 62.07L551.03 54.05L536.06 42L521.99 32.03L506.02 23.96L490.04 18.96L474.96 9.92L467.04 -2.08L450.9 -6.9L440.07 -17.98L424.9 -21.08L408.91 -16.02L393.99 -9.97L384.06 -0.07L379.1 14.08L385.98 23.92L392.05 35.96L391 48.91L391.96 61.9L389.97 74.02L390.06 87.08L391.08 100.03L390.08 112.05L387.93 124.01L388.07 150.07L392 163.06L385.01 175.06L390.04 186.04L394.08 199.06L394.05 212.02L395.97 226.97L395.99 239L393.96 252.07L397 265.01L393.99 277.01L396.01 287.94L393.91 298.99L397.99 310.95L397.98 323.98L395.97 338L393.91 353.99L386.96 365.99L386.1 380.01L373.08 390.09L359.05 397.07L346.99 396.91L336.98 394L324.97 393.97L312.07 381.97L296.95 370.05L283.03 359.07L267.92 353.04L254.06 345.08L241.08 334.07L235.98 323.04L230.93 308.95L231.04 291.95L229.02 272.07L230.97 254.97L232.03 238L231.07 218L231.92 201.04L232.03 170L230.96 154.09L228.94 138.01L234.08 122.92L234.01 110.96L239.01 98.97L246.05 90.95L255.99 82.95L268.06 82.96L277.97 78.95L289.94 77.98L303.09 73.98L319.97 61.96L328.07 55.03L319.99 44.99L303.07 37.06L288.01 33.03L272.95 24.08L258.95 14.99L247.97 7.03L234.1 -1.96L216.92 -4.04L199.9 -4.06L186.07 -2.1L170.06 -7.05L155.92 -5.08L140.91 -3.93L126.99 -4.91L110.91 -6.9L95.04 -4.91L80.01 0.09L63.05 1.91L48.05 7.07L38.06 16.96L30.02 27.99L34.91 38L44.97 47.06L51.96 56.93L62.95 66L73.04 73.99L83.08 81.07L94.93 88.08L105.98 95.91L110.97 105.94L112.97 116.01L113.93 127.94L112.92 140.02L113.92 151.98L114.07 164.92L115.94 175.08L116.05 186.94L118.04 199.1L117.93 211.02L114.06 224.09L115.97 236.01L113.99 247.93L114.09 283.92L113.06 298.92L114.1 311.03L114.07 333.91L117.93 352.97L117.95 370.99L120.05 390L119.97 406.99L107.06 416.99L94.97 417.98L77.93 417.9L58.01 420L41.03 426.96L28.03 429.95L21.03 439.03L21.02 450.94L28.07 463.03L40.97 481L55.91 482.02L64.93 481.91L76.91 493.04L94.92 493.92L113.07 494.02L128.91 497.97Z" fill="rgb(6, 89, 178)" transform="scale(1.0122657135246378,-0.9804501534332967) translate(3683.5,-1000) rotate(5)"/>
<path d="M400.09 602.08L410.04 609.01L418 619.92L434.08 617.98L445.07 626.95L456.04 628.08L468.95 633.91L482.98 639.03L498.03 637.03L508.9 624.96L526.04 622.99L539.02 611.03L540.99 591.94L537.91 573.02L536.97 554.08L531.94 536.93L520.01 522.02L508.03 509.92L493 497.91L476.9 494.08L462.98 496.04L454.02 500.95L445.03 508.99L435 519.06L435 538.07L421.99 520.08L422.05 516.01L415.92 501.05L421.95 483.08L418.99 465.02L425.09 439.96L435.95 427.08L437.93 405.06L441.96 386L446.95 365.1L454.93 345.95L460.98 328.09L460.97 311.03L452.05 300.08L443.98 289.95L440.91 276.02L431.02 267.09L425.06 254.97L425.05 238.93L413.91 227.01L409.01 216.94L397.08 214L387.96 204.09L378.96 187.08L363.05 184.09L352.99 174.97L341.91 161.97L325.07 162.07L310.95 153.06L301.01 145.97L283.97 145.01L271.91 135.93L256.05 130.03L240.95 128.93L224.09 130.07L209.95 133.97L195 136.01L182.94 127.09L168.93 130.08L164.04 117.02L163.03 101.93L159.99 89.02L160.04 73.93L170.06 64.95L187.98 62.02L203.92 66.97L220.07 62.09L238.08 59.04L256.03 63.99L275.97 59.1L293.96 61.95L314.1 58.96L331.94 59.03L351.08 54.07L368.96 59.01L385.93 52.1L398.1 42.99L412.93 42.09L428.06 39.93L437.99 30.06L442.04 19.06L452.09 11.07L460.09 3.96L466.97 -4.96L474.93 -12.9L476.08 -26.98L491.06 -30.09L491.03 -42.01L491.95 -52.98L498.05 -64.06L499.92 -75.95L500.04 -85.97L497.92 -101.04L500.98 -116.05L492.06 -128.92L481.95 -145.02L478.1 -161.01L465.92 -162.97L459.93 -170.05L446.92 -172.92L439.93 -182.02L430.98 -189.06L420.05 -196.97L399.98 -198.08L388.04 -206.97L372.08 -216.98L358.96 -226.07L342.05 -230.06L327.95 -244.07L311.08 -244.91L293.99 -255.03L281.06 -252.91L268.94 -255.07L255.91 -251.07L247.05 -258.04L235.09 -260.06L224.01 -267.02L212.92 -263.03L202.95 -272.07L192.09 -272.97L177.92 -272.91L163 -269.96L149.92 -266.09L133.95 -267.05L122.03 -266.91L110.93 -260.04L94.98 -257.96L79.08 -260L61.94 -258.05L55.97 -243.95L42.07 -238.07L29.05 -226.91L19.92 -213.08L8.06 -200.09L7.04 -182.93L6.99 -151.01L19.1 -133.98L27 -115.98L41.97 -101.91L53.04 -92.1L60.07 -82.98L66.08 -73.96L75.97 -66.97L85.01 -62.96L91.95 -51.05L99.98 -44.06L111.02 -37.9L114.07 -27.04L105.07 -20.02L89.03 -15.96L75.08 -13.97L63.01 -2.1L55.98 10.96L49.93 26.94L44.05 41.95L44.97 57.9L50.09 73.06L66.04 79.04L72.03 94.05L72.92 109.04L75.92 124L100.02 135.94L108.05 149.06L96.94 162.07L94.03 179.96L82.05 190.03L73.04 201.91L65.94 217.94L67.05 230.93L62.99 245.02L57.09 258.08L63.04 270.95L66.01 285.09L65.92 299.08L70.02 311.05L66.92 324.97L73.1 337.05L77.93 350.91L87.92 360.03L91.95 371.93L94.97 386.94L107.92 395.03L113.98 408.1L125.08 416.95L132.04 429.01L141.09 442.07L156.91 445.93L167.1 455.06L172 467.95L185.99 474.08L196.96 485.92L209.92 491.95L222.93 492.92L235.08 495.95L244.97 504.94L257.99 505.03L273 507.92L286.94 504.06L304.09 502.08L319.93 500.93L332.08 492.98L345.05 485.97L354.99 476.96L358.99 485.1L364.91 498.04L373.01 509.01L373.96 525.02L378.9 541.03L381.08 557L382.91 572L389.03 576.9L391.03 585.94L390.96 594.01ZM235.95 416.91L223.08 419.94L210.04 413.93L198.04 397.9L193.98 383.01L189.01 371.9L183.08 348.01L182.96 336.92L182.01 322.95L182.06 311.1L178.96 299L182.03 282.93L185.04 264.92L194.05 248.99L205.9 237.05L222.94 231.01L240.99 224.09L259.96 219.98L276.07 217.9L292.98 220.91L310.04 230.03L323.07 238.98L331.93 252.02L338.09 265.03L342.05 277.05L342.08 292.06L340.99 305.94L326.02 335.95L319 348.09L308.01 360.96L298.91 374.03L287.07 386.07L275.01 395.09L262.93 403.05L249.99 411.09ZM238.98 -32.06L220.01 -34.93L200.97 -43.95L186.01 -50.93L174.98 -58.97L163.04 -67.07L152 -79L140.91 -91.92L131.98 -105.08L126.02 -119.03L122.93 -132.08L124.95 -147.91L134.97 -163.04L147.9 -172L158.01 -174.97L170.07 -179.05L184.96 -179.02L196.99 -182.04L210.01 -181.92L222 -183.01L233.01 -184.9L246.99 -185.99L258.05 -185.05L269.98 -184.95L284.05 -182.08L294.1 -182.1L305.02 -174.98L316.94 -172.02L328 -168.92L339.03 -164L350.04 -161.04L358.92 -155.08L368.92 -150.91L375.92 -135.98L379.05 -122.1L378.92 -111.04L377 -97.93L371.98 -88.08L365.03 -78.92L357.06 -67.96L350 -60.05L339.02 -50.99L327.96 -43.98L318.99 -40.95L308.07 -35L298.01 -33.05L260.02 -33.02Z" fill="rgb(11, 174, 229)" transform="scale(0.9982655063518648,-0.9992122966379884) translate(4279.5,-1000) rotate(0)"/></g><path d="M170,776 C1154.1666666666667,615 3107.8333333333335,1042 4621.5,1240" stroke="rgb(15, 117, 105)" stroke-width="39" fill="none"/>
<path d="M9,934 C953.1666666666667,350 4196.833333333334,618 4466.5,832" stroke="rgb(173, 4, 1)" stroke-width="39" fill="none"/>
<path d="M162,176 C2264.166666666667,97 2514.8333333333335,1132 4750.5,506" stroke="rgb(226, 8, 52)" stroke-width="39" fill="none"/></svg>