<svg xmlns='http://www.w3.org/2000/svg' viewBox="0 0 5347.666666666667 1300"><rect width="5347.666666666667" height="1300" fill="rgb(207, 157, 140)" /><g transform="scale(1,1)"><path d="M64.99 769.9L80.95 776.96L93.08 777.03L106.09 780.02L117.97 779.94L132.07 787.05L144.09 780.09L159.06 789.06L173 786.03L186.09 783.95L199.94 790.98L214 789L221.94 781.92L233.91 779.04L243.1 770L250.05 759.94L252.91 738.97L250.93 718.93L250.08 697.98L251.04 680.95L254.98 669.04L250.07 654.01L253.03 642.03L253.04 630L247.93 616.98L251.09 605.03L248.03 592.99L245.99 579.07L248.09 564.9L245.02 550.98L247.91 538.02L243.02 523.92L240.99 509.03L245.09 492.95L245.1 477.98L247.91 462.02L245.98 444.97L245.95 430.05L250.07 413.97L245.96 398.96L245.99 382.09L243.01 369.02L244.95 353.08L244.95 321.09L241.04 302.92L241.1 285.98L237.97 270.95L235.92 254.95L242.98 240.09L245.08 224.05L239.07 208.93L245.07 194.06L242.97 180.07L247.95 166.04L244.91 151.95L243.08 138.91L242.96 123.98L246.02 110.07L252.93 96.98L265.03 85.93L283.94 85.94L302.93 83.04L324.05 83.96L342.01 80.91L359.94 78.93L371.94 65.98L374.98 54.04L366.03 44.97L358.04 38.09L347.91 40.06L336.05 35.92L323.94 30.91L310.01 25.98L300.93 16.06L288.05 10.94L277.07 6.02L261.92 8.96L245.92 6.07L233 6.96L219.05 5.9L204.94 -1.01L189.99 -2.92L175.97 -0.03L160.99 2.04L144.01 -0.9L129.95 0.05L115.07 5.91L100.97 2L85.99 7.03L71.92 6.92L60.03 12.01L47.97 15.92L34.07 16.01L26.07 27.95L21.02 42.97L25.97 59.97L37.94 69L46.05 78.98L53.04 91.07L69 100L82.06 102.06L94.08 103.02L106.05 103.04L116.9 104.95L122.01 114.96L124.05 125.95L125.02 139.08L127.05 149.01L124.96 159.03L124 171.09L124.92 181.96L128.95 193.98L123.94 206L123.97 220.98L119.93 238.04L122.05 254.9L124.94 269.05L121.96 280.99L126.93 290.97L127.02 302.97L123.97 314.98L124.91 327.1L130.04 338.04L126.96 349.91L131.91 362.02L126.94 373.96L129.95 387L129.96 400.04L125 412.09L128.96 426.1L122.03 436L119.97 447.96L117.93 462L120.07 478.99L123.96 495.06L124.93 512.03L125.09 535.95L129.92 548.05L131.91 559.92L130.08 572.06L131.92 584.08L134.06 597.96L128.98 611.04L131.92 623L136.97 635.95L132.01 648.07L136.06 661.07L132.01 675.92L125.07 694.9L118 703.03L102.95 705.01L88.94 702.98L74.02 706.97L58.1 708.91L42.98 706.99L28.97 713.91L13.96 721.04L11.9 735.96L21.93 749.98L33.91 758.99L47.98 765.91Z" fill="rgb(6, 59, 65)" transform="scale(0.9872119082272829,-1.0024014082084853) translate(1.5,-1000) rotate(6)"/>
<path d="M270.09 518.06L284 513.97L297.01 512.95L308.92 509.05L344.1 509.09L363.93 503.08L381.08 494.07L397.01 483.94L408.96 471.03L422.03 459.07L432.08 444.01L444.01 432.09L452.1 414L464.07 396.91L471.04 377.92L474.04 355.91L486.08 338L489.06 316.07L497.05 296.9L496.98 277.94L501.06 260.1L503 239.91L502.99 218.01L507.92 198.98L503.01 183.02L502.98 164.98L493.92 152.92L487.92 138.03L476.97 126.01L467.06 111.1L451.93 98.9L434.05 85L421.9 71.1L406.97 56.01L390.91 41.08L376.05 27.96L356.01 20.93L344 4.04L325.98 -2.97L309.01 -5.97L296.97 -18.1L281.92 -21.02L268.02 -20.99L254.94 -16.04L243.07 -12.03L227.94 -6.06L218.09 2.09L210.95 12.95L198.08 18.93L185.94 23.9L173.1 31.08L161.06 32.92L147.01 39.91L134.96 48.04L122.99 63.03L105.94 76L98 88.04L90 101.05L83.91 112.92L80.95 127L70.95 138.09L67.92 152.94L63.08 165.07L56.04 177.95L50.05 188.06L45.99 200.97L42.9 212.05L40.92 226.08L44.06 243.93L45.93 265.03L57.99 283.02L55.96 305.02L60.93 321.99L66.02 341.94L63.97 356.02L75.06 364.92L77.91 379.93L88.07 388.99L92.94 398.95L110.97 414.99L118.01 422.02L126.96 431.96L137.99 436.94L142.92 446.99L154.93 452.99L166.01 462.09L178.07 466.04L188.08 474.01L198.03 484.06L213.03 496.04L231.91 502.97L252.06 513.06ZM212.93 414.97L200.05 409.1L193 394.97L185.91 381.91L180.02 364.97L178.08 349.07L174.91 331.07L168.07 316.06L168.94 297.08L169.01 250.98L174.94 234.93L176.09 220.02L186.03 205.91L192.94 192.92L197.97 179.03L206.94 166.08L215.03 156.03L235.09 138.04L245 130.9L259.95 127.02L275.09 120.01L294.99 112.96L314.93 108.98L337.1 113.06L348.92 124.08L361.07 133.99L367.01 150.96L370.94 165.92L371 184.99L373.98 202.97L374.08 239.99L371.91 260.08L366.92 277.95L366.96 293.9L361.1 305.1L356.08 316.05L352 329.02L347.09 342.04L342.04 352.99L336.98 362.97L329.09 374.02L319 386.91L305.96 401.05L290.04 409.91L274.95 414L250.07 413.93L238.01 417.03L225.09 414.97Z" fill="rgb(123, 46, 15)" transform="scale(0.9935918907971015,-0.9954705260585466) translate(366.3333333333333,-1000) rotate(-20)"/>
<path d="M500.96 496.97L514.08 498.92L526.08 495.98L532.92 490.09L538.92 479.02L539.04 467.96L530.97 461.04L525.03 451.09L517.96 444.95L504.03 435.1L489.93 421.92L471.93 415.04L454.93 411.06L446.97 401.99L439.95 384.98L430.96 369L428.09 349.09L418.01 331.92L413.93 313.08L406.99 296.03L401.09 278.95L396.09 266.94L394.99 255.01L387.03 246.06L387.1 235.03L386.04 226.01L383.06 212.96L378.08 204.06L374.09 193.03L371.01 178.93L361.04 163.01L351.96 147.02L343.06 129.05L335.98 112.03L334.91 95.1L332.1 80.98L327.94 64.93L321.09 52.95L320 42.06L316.03 30.98L308 22.91L302.03 12.02L287.03 -0.97L275.96 -13.95L259.08 -23.93L247.97 -32.06L239.01 -30.09L232.03 -17.99L224.94 0.01L222.92 17.09L213.01 33.08L206.95 51.05L198.95 67.1L189.09 81.9L179.91 97.03L175.03 114.04L171.98 130.95L167 147.93L157.06 163.92L151.92 180.98L143 199.1L133.97 218.08L126.91 235.03L117.08 251.98L112.05 269.08L102.95 286.09L98.05 302.94L84.08 336.98L80.01 353.09L69.98 367.07L59.97 379.06L50.91 391.92L40.9 401.05L30.01 397.91L13.09 395.96L-4.09 395.97L-18.02 410.01L-22.91 423.06L-19.99 437.92L-13.93 448.07L7.98 466.01L19.08 476.02L33.09 482.04L49.07 486.98L64.09 489.93L74.96 492.05L110.93 491.95L132.94 491.01L153.02 493.01L172.94 489.97L189.99 492.01L201.96 488.97L214.08 491L226.07 490.91L240.97 490.02L255.92 482.99L262.98 474.92L261.91 463.08L250.09 454.98L241.94 441.09L230.92 431.96L220.06 424.01L209.94 411.94L198.93 405.01L196.01 394L195.92 378.99L201.07 365.98L206.02 354.97L212.08 345.07L218.94 333.93L223.09 321L227.02 310.08L228.96 295.93L234.93 283.06L241.09 273.97L242.91 259.93L246.03 249.03L254.02 237.99L256.95 226.97L258.94 215.04L265.07 203.93L270.03 194.97L278.03 183.98L281.01 171.91L285.91 164.92L294.08 173.03L298.95 186.01L304.05 198.06L308.96 210.94L316.01 221.04L316.96 234.93L323.93 244.98L328.02 258.05L331 272.06L331.1 284.03L337.04 297.05L341.08 310.03L344 319.99L350.96 331L353.01 342.07L357.07 351.96L364.09 361.09L369.99 373.08L373.09 389.95L370.02 401.01L361.9 405.91L351.1 403.95L342.08 404.93L331.1 413.06L323.04 421.1L318.04 433.99L321.06 442.97L327.08 452.95L334.9 459.96L343.98 468.06L353.04 473.09L360.08 482.08L377.98 493.94L390.09 496.1L406.9 493.1L422.06 492.98L438.99 490.05L456 491.97L471.03 491.92L485.01 496.03Z" fill="rgb(17, 4, 42)" transform="scale(0.9969578966127146,-0.9894076880057012) translate(967.9999999999999,-1000) rotate(-13)"/>
<path d="M224.97 508.97L240.08 509.01L256.05 507L271.97 504.03L286.97 499.02L301.97 495.08L314.02 488.95L329.03 488.08L339.92 478.93L350.08 471.99L360.9 463.94L371.99 454.94L379.08 442.02L386.95 433.93L390.97 420.1L399.04 409.05L406.06 399.08L409.91 383.99L417.06 365.02L426.03 348.07L426.93 330L417.05 315.06L402.01 305.03L388.9 294.07L374.95 280.07L361.08 269.93L346.93 269.97L332.98 265.97L317.03 268.09L299.92 265.01L284.07 265.94L267.97 267.92L252.03 268.03L235.06 265.94L214.05 270.06L193.03 268.03L175.05 264.94L164.9 256.99L166.93 244.91L167.1 230.09L164.94 217.06L171.05 200.94L172 187.98L174 175.96L175.93 163.05L189.09 150.02L198.94 137L205.98 125L221.04 114.94L230.96 104.03L246.98 104.08L258.08 100.95L270.03 98.97L281.93 99.05L298.02 100.9L313.95 104.95L329.08 113.91L345.03 121.02L362.03 124.93L378.95 122.99L399.03 121.03L406.04 108.91L404.03 93.01L393.93 81L383.99 72.1L374.9 59.06L358.1 45.99L344.93 35.97L332.09 22.93L314.92 16.98L298 8.94L278.08 3.02L256.05 2.04L239.93 -5.94L224.97 -7L209.92 -6.09L198.07 -10.01L182.94 -6.07L165 6.09L145.97 15.98L126.01 26.03L98.99 52.96L91 71.06L80.96 85.98L70.98 105.97L58.94 122.9L54.98 151.03L46.04 170L45.97 192.97L41.07 213.07L43.09 235.04L44.02 257.08L43.91 278.03L48.01 299.94L49.97 322.06L61.93 342.1L68.91 359.96L78.02 380.06L85.06 398.94L98.07 413.09L105.97 428.02L114.96 436.97L126.99 447.01L134.05 456.9L145.02 465.96L155.1 471.02L165.01 478L174.98 485.99L187.98 488.92L201.99 495.06L213.95 500.94ZM232.92 425.09L215.95 425L202.04 416.98L192.08 406.95L182.93 395.99L178.01 383.07L170.02 368.02L168.06 352.01L164.97 339.98L164.99 324.99L185.03 324.04L200.06 324.04L214.09 322.08L264.91 322L276.99 324.09L288.93 325L302 327.07L316.9 330.07L321.96 340.1L320.04 350.05L314.95 362.04L306.99 376.91L297.91 388.99L286.92 401.03L272.99 415.01L256.02 420.08Z" fill="rgb(21, 7, 79)" transform="scale(0.9947122364834927,-0.982615972746925) translate(1452.8333333333333,-1000) rotate(-13)"/>
<path d="M141.04 768.01L147.93 768.92L152.91 764.09L161.04 763.01L173.09 763.09L180.91 765.01L187.9 766.08L195.93 768.98L204.07 765.02L209.99 761.06L216.99 755.93L223.92 754.08L228.96 748.92L231.01 742.95L232.09 736.06L230 728.03L230.01 707.93L233.02 700.05L233.02 691.94L234.03 683.95L236.08 676.92L238.07 669.09L239.03 660.96L236.03 653.05L236.01 645.99L237.09 636.98L236.02 627.98L232.92 619.1L230.93 610.96L231.07 593.9L233.98 584.91L235.1 577L235.92 570.06L234.03 564L230.04 558.06L228.9 552.06L231.95 545.03L230.99 535.91L230.06 528.94L232.06 523.05L235.06 517.03L235.02 511.08L232.08 503.05L232.05 492.96L232.97 481.98L225.95 472.95L223.04 464.95L227.07 457.94L229.07 448.99L225.99 436.97L225.97 426.05L224.93 416.93L221.03 402.99L218.91 395.01L220.03 386L223.91 377.05L224.03 368.98L224.98 360.08L218.92 333.09L223 323.93L222.05 315.91L219.92 307.97L221.02 300.96L222.96 294L227.03 289.99L231.07 292.95L233.97 299.01L238.03 302.04L246.08 302.03L253.07 309L257.02 318.06L257.95 324L265.08 327.03L274.05 326L278.08 330.94L279.05 338.06L283.96 346L290.96 350.97L297.06 353.91L303.04 357.9L306.94 362.01L309.93 368.91L313.03 377.03L319.08 382.01L326.09 385.91L330.98 391.02L334.98 397.99L339.01 404.04L344.97 410.99L348.99 415.92L346.9 423.09L337.95 428.96L329.03 433.1L321.96 434.03L315.98 434.95L309.9 435.08L303.03 439.98L302.94 451.04L305.95 461.99L309.93 471.01L317.01 480.03L323.05 488.03L329.99 490.04L338.04 494.99L348.96 498.04L359.03 496.98L370.06 498.96L380.03 503.07L389.92 506L400.93 508.06L409.02 506.9L422.93 506.94L429.91 506.04L445.07 506.07L453.03 505.06L458.99 498.92L465.96 495.91L473.02 494.99L494.92 494.99L502.91 494.04L510.96 496.1L529.06 500L539.06 502.99L547.08 501.95L554 494.97L562.08 492.97L571.03 495.04L577.93 491.94L579.09 483.93L578.92 474.98L572.04 470.05L564.08 471.09L558.96 466.96L557.09 457.99L552.98 452.94L544.96 453.91L536.09 451.91L530.93 445.09L528.97 438.92L522.03 435L505.06 434.93L495.06 433.01L487.01 428.95L472.94 426.92L466.06 427.94L454 421.97L448.99 413.91L434.96 406.98L428.01 405.03L422.05 401.04L415.05 397.06L411.94 391.09L406.92 382.93L400.99 374.96L393.08 366L379.08 348L372.03 333.91L364.09 329.92L359.03 322.95L359.1 316.01L357.91 309.98L352.94 304.92L355.97 299.99L362 293.95L367.03 286.02L369.05 276.94L374.06 271.04L381.06 265.96L392.99 255.95L400.03 250.04L408.05 246.05L414.9 241.97L419.94 234.04L425.93 227.98L430 220.06L435.09 214.07L442.96 209.94L450.1 203.94L453.91 194.92L457.97 186.92L463.9 178.95L469.05 170.95L473.08 162.92L477.93 155.97L485.04 149.94L492.91 144.02L499.98 136.93L505.02 128.04L506.99 119.02L513 113.97L521.04 111.09L527.91 106.09L533.07 98.03L538.99 93.1L545.98 92.03L553.1 89.08L562.04 89L569.98 86.04L577 83.07L584.93 79.95L592.97 81.05L601.04 78.08L605.03 72.09L610.9 68.09L624.91 63.92L630.08 58.04L631.96 50.98L627.04 44.04L622.08 38.91L615.03 34.08L609.93 25.03L603.04 20.93L592.95 21.99L586.92 20.1L582.06 11.97L576.91 5.06L571.98 -0.93L557.94 -11.06L551.01 -13.08L544.08 -14.07L537.91 -14.02L530.98 -11.96L514.92 -11.97L506.94 -14.08L498 -15.91L491.01 -16.07L484.93 -10.97L480.09 -6L474 -1.94L467.98 -0.05L460.99 1L453.93 4.04L446.97 7.94L439.99 13.04L431.91 17.94L425.01 24.06L419.9 32.97L413.97 41.04L404.96 48.91L399.08 57.04L395.03 65.96L387.93 71.06L379.96 75.09L369.91 89.07L366.06 95.98L361.01 101.93L359.98 109.97L358.09 117.98L354.97 125.94L349.08 130.92L342.05 135.1L336.06 139.92L328.04 145.91L320.02 151.1L313.97 156.04L308.97 161.97L304.96 168.98L304 175.91L299.91 182.92L293.92 189.06L284.09 201.09L279.97 207.1L274.07 213.06L267.04 218.08L258.01 219.09L252 223.96L246.94 229.92L243.07 237.09L238.09 243.99L229.9 246.95L226.07 241.01L223.01 230.95L217.93 221.06L216.09 210.9L218.09 201.95L218.01 191.97L217.09 182.05L216.99 172.99L219.99 165.04L220.07 136.05L217.01 129.91L219.07 124.01L221.94 117.91L226 110.92L231.96 89.96L236.91 86.91L250.97 86.95L257.05 82.96L262.97 82.08L277.03 82.07L284.09 81.07L293.09 78.93L301.94 75L308.05 72.03L315 66.95L317.94 60.09L312.02 46.08L306.93 40.06L300.09 36.04L283.99 31.96L276.96 29.92L270.05 27.07L263 22.98L257.05 19.08L250.09 15.1L244.98 9.04L240.9 1.9L233.93 -3.01L225.06 -6.02L218.1 -6.99L211.09 -5L205.03 -2.92L198.01 -1.98L189.92 0.9L181.9 3.03L175.07 2.99L168.08 2.09L159.03 1.95L150.07 6L144.04 8.96L137.99 8.91L133.01 4.95L122.91 4.95L110.92 4.02L101.9 3.94L96.03 2.02L88.92 0.94L83.04 4.04L74.05 2.93L64.92 4.09L58.1 4.93L52.06 7.02L45.03 7.95L37.09 9.97L29.01 16.03L26.99 26L28.94 36.06L31.99 44.98L36.98 54.97L42.01 63.96L48.01 69.94L55.96 76.09L63.1 82.01L68.94 89.96L78.03 94.95L87.95 98.06L94.09 101.99L97.93 108.02L100.91 113.93L103.03 121.95L105.06 140.06L104.01 149.06L103.98 159.03L105.07 169.03L111.05 178.07L112.03 187.98L110 198.02L111.98 206.99L114.93 215.97L116.02 226.09L114 234.97L114.08 243.91L114.93 254.02L113.91 263.04L111.99 271.01L112.06 280.03L115.91 289.07L117.01 296.9L114.9 313.09L111.05 321.99L111.04 330.06L117.09 337.94L118.09 344.92L114.9 369.09L116.98 377.92L122 387.06L125.01 395L125.06 402.96L122 409.93L117.02 415.92L117.09 421.99L120.05 429.96L120.92 439.01L119.09 446.9L119.02 466.92L122.1 478.09L127.91 486.94L128.99 495.04L126.02 502.97L127.01 509.04L129.04 516.04L130.97 524.01L129.09 532.09L126.08 538.06L124.97 544.98L122.94 551.97L120.93 561.09L118.91 571L118.09 580.08L117.04 588.02L116.95 595.05L120.01 600.92L122.01 611.01L124.01 621.91L125.02 630.9L121.08 636.05L121.92 643.01L127.96 648.06L127.02 656.07L125.09 666.91L122.96 674.93L118.03 681.01L111 679.94L102.93 675.09L96.08 675L88.9 680.03L82.02 680.94L74.93 680.01L66.09 676.93L57.07 675.93L51.08 678.96L44.05 678.08L38 676.07L30.9 679.02L23.97 687.06L21 693.98L21.01 701.05L22.93 708.01L22.93 715.96L28.01 722.09L34.95 729.05L51.02 738.96L60.08 743.09L70.03 747.04L77.96 750.93L84.03 752.96L92.91 753.98L101.01 758.05L109.04 758.99L115.93 761.02L122.04 760.92L128.9 762.97L136.03 764.01Z" fill="rgb(46, 24, 144)" transform="scale(1.0130248328822726,-1.0112431578938015) translate(2004.6666666666665,-1000) rotate(10)"/>
<path d="M224.94 509.01L239.98 509.03L255.97 507.05L271.88 503.95L287.03 498.94L301.95 495.07L313.98 488.98L329.08 487.98L339.87 478.84L350 472.02L360.95 463.9L371.89 455L379.11 441.94L386.92 433.94L390.89 420.15L398.97 409.09L406.08 399.02L409.92 383.94L417.06 365.09L426.11 348.15L426.99 330.06L417.1 315.11L401.93 305.01L388.95 294.17L374.99 280.06L361.12 269.85L346.86 269.97L332.89 265.94L316.94 268.04L300 265.06L284.07 265.94L267.95 267.94L252.11 268.02L234.97 266.04L213.95 269.98L193.06 267.94L175.02 264.91L164.85 256.9L166.85 244.95L167.16 230.08L164.96 217.05L171.05 200.88L172.01 188.06L174.07 175.87L175.86 163.14L189 149.96L198.92 137.07L205.91 125.03L221.07 115L230.9 103.99L246.99 103.99L258.01 100.87L269.97 98.98L281.95 99.04L298.04 100.98L313.86 104.88L329.01 113.9L345.01 121.08L362.01 124.87L378.85 123.05L398.96 121.11L406.1 108.95L404.05 93.05L393.95 80.95L383.95 72.14L374.92 59.1L358.01 46.05L345.01 36.06L332.03 22.98L314.95 17.06L298.05 9.03L278.02 2.94L256.06 2.01L239.9 -5.88L224.88 -7.07L209.87 -6.14L198.12 -10.03L182.93 -5.97L164.94 6.11L145.95 15.89L126.03 26.11L99.02 52.97L91.07 70.99L80.88 86.04L71.04 106.05L58.99 123L54.98 151.03L46.12 169.95L45.94 192.97L41.04 212.97L43.12 235.04L44.09 257.16L43.95 278.06L48 299.91L49.87 322.04L61.89 342.2L68.93 360.05L78.01 380.03L84.99 398.94L98.09 413.16L105.92 428.03L114.99 437.01L126.95 446.98L134.01 456.92L144.94 465.98L155.03 471.01L164.93 477.99L174.94 485.97L187.95 488.92L201.96 495.01L213.98 501.01ZM232.97 425.01L216.04 425.09L202.01 416.91L191.99 406.87L182.93 396.07L178.1 383.02L169.96 368L168.1 352.1L165.04 340L164.96 325.08L185.12 323.99L200.04 324.1L214.02 322.12L264.82 321.93L276.97 324L288.96 325.08L302.08 327.14L316.91 330.17L321.95 340.11L319.96 350.09L314.91 362.02L307.09 376.86L297.84 388.95L286.99 400.93L272.95 414.93L256.05 420.1Z" fill="rgb(48, 3, 40)" transform="scale(0.9956068382354517,-1.0182167773636113) translate(2695.5,-1000) rotate(6)"/>
<path d="M349.94 27.04L341.97 27.02L324.01 20.91L310.08 12.93L299.99 6L287.97 2.96L277.97 2.03L266.96 -3.06L255.03 -2.94L243.95 -0.07L230.95 -2.07L217.98 -4.96L202.97 -4.93L191.96 2.06L178.92 3.03L166.91 8.95L154.09 13.02L145.05 20.99L130.93 25.91L121.99 31.95L113.08 42.01L107.06 55.02L98.03 69.07L88.93 76.95L77.97 88.91L71.04 103.04L64.05 119.05L59.91 136.91L55.02 153.92L50.05 172.99L48.02 191.08L49.95 207.08L50.91 225.91L49.93 243.03L51.07 255.03L57.98 266.06L66.09 281.06L68.94 294.08L69.01 305.91L73.07 316.91L79 326L79.01 337.9L84.07 347.99L90.02 358.01L95.1 366.05L101.91 375.93L105.04 385.93L111.94 396.98L122.98 403.02L130.95 412.99L137.96 422.98L152.99 431.02L167.05 443.08L197.05 463.08L211.93 471.99L243.99 491.96L259.94 500.03L277.01 506.04L292.95 509.95L306 513.03L321.98 511.06L334.91 511.01L346.93 508.09L357.07 502.9L367.95 500.9L379.94 497.09L389.98 493.07L401.96 489.95L414.08 484.01L425.09 465.01L432.09 481.98L441.92 497.97L452.91 504.95L467.01 507.98L479.04 510.95L490.97 505.9L500.92 503.09L506.08 498.08L517.96 487L514.94 471.99L506.91 460.98L506.01 446.05L500.01 433.05L496.04 420.1L492.01 408.02L489.02 393.96L484.06 382.01L484.01 371.09L482.05 358.97L483.93 345.92L483.96 331.03L485.99 317.08L486.08 302.1L484.07 288.01L486.08 274.08L486.96 260.06L486.97 217L484.1 203.94L487.07 191L483.99 177.96L484.04 163.07L479.06 146.99L478.9 131.92L473.1 119.1L474.91 103.92L472.01 89.01L469.94 75.09L466.99 59.92L464.98 43.99L465 28.94L461.97 14.01L462.95 0.05L462.02 -12.98L462.03 -26.06L464.99 -39.1L462.07 -51.08L461.91 -62.9L459.97 -74.91L462 -86.91L457.96 -97.98L457.93 -109.99L462.02 -121.08L460.03 -132.93L462.91 -142.98L467.05 -157.03L473.05 -168.08L485.96 -175.04L501.09 -175.02L514.02 -172.94L526.99 -177.06L541.93 -177.09L567.98 -186.99L580.92 -188.08L583.95 -197.94L580.94 -210.99L572.02 -212.96L562.91 -221.01L546.9 -223.98L534.03 -229.93L523.94 -240.04L514.07 -247.98L502 -256.92L491.05 -261.92L478.96 -261.93L464.98 -259.99L452.98 -261.93L438.91 -261.94L424.97 -262.94L411.94 -267.08L397.97 -266.95L385.03 -267.95L373.09 -265L361.97 -262.95L335.03 -263.02L326.05 -267.09L311.03 -267.97L298.03 -265.06L284.92 -263.09L272.09 -262.91L257.06 -254.91L252.09 -240.02L248.9 -228.1L253.96 -215.95L265.04 -199.92L279.92 -190.07L295.03 -177.03L305.99 -169.98L317.92 -170.05L333.92 -168.06L346.92 -160.08L347.03 -125.94L349.95 -109.91L351.91 -94.97L350.06 -82.06L343.98 -69.07L343.92 -56.02L341.96 -38.94L348.93 -19.98L348.93 -5.02L350.07 5.95ZM278.95 430.08L263.91 424.93L249.01 418.01L234.01 408.09L223.04 402.07L217.02 387.96L207.92 375.99L200.08 361.06L192.91 348.09L184.96 333.04L179.94 315.99L177.06 299.09L174.08 285.98L169.08 273.91L166.96 261.05L164.05 248.01L164.05 223.98L167.08 211.95L168.99 202.08L171.96 192.94L174.97 181.07L178.95 170.97L183.07 158.97L187.96 149.09L195.05 139.04L202.03 127.1L212.06 117.01L225.92 108.07L240.05 100.9L251.99 97.91L261.91 94.03L272.94 91.05L285.01 88.07L297.92 86.07L320.04 85.98L334.98 89.04L352.02 101.05L361.97 113.94L367.04 131.02L369.99 141.98L369.98 172.94L371.93 189.05L372.03 206L370.04 220.93L369.94 234.07L368 248.03L367.04 262.91L366.98 276.07L365.07 289.09L362.99 304.01L362.07 317.04L363.05 335L367.08 370.95L367.07 389.01L362.05 399.91L355.09 407.09L344.94 414.95L325.94 422.95L309.93 428.06L300.01 429.98L287.95 431.02Z" fill="rgb(114, 13, 37)" transform="scale(1.0112531349693015,-1.004772658799036) translate(3189.3333333333335,-1000) rotate(-19)"/>
<path d="M207.94 504.05L220.9 507.09L234.94 504.02L245 494.91L255.91 488.01L260.96 474.05L264.05 455.93L259 437.07L261.03 417.96L258.08 400.05L259.03 379.91L255.96 361.98L256.04 289.91L258.09 271.99L253.96 253L254.05 231.09L252.04 209.96L253.99 189.07L251.01 171.01L252.08 160.92L252.05 149.95L250.93 138L257.97 125.09L261.09 108.01L265.99 95.07L276.01 94.01L290.08 90L306.09 86.94L322.04 82.96L339.97 82.91L355.07 74.95L369.03 65.99L370.91 49.08L354.93 42.06L339.99 28.95L319.9 29.07L307.93 17.07L298.91 7.08L284.97 3.07L273.03 0.03L258 0.01L243.92 -3.91L227.92 -2L208.06 1.08L191.1 1.09L178.91 0.05L166.01 -2.06L127.91 -1.93L115.04 0.91L102.96 -2L83.94 1L62.97 9.95L49.05 15.03L46 33.08L55.94 47L76.94 68.02L89.9 75L102.92 86.98L114.93 95.06L128.08 104.04L132.96 117.92L130.95 132.04L132.91 145.92L135.01 161.03L134.9 175.01L130.92 186.95L135 201.02L136.07 214.91L135.07 227.01L138.07 238.98L135.94 250.91L138.09 263.93L137.91 274.02L140 285.92L137.94 297.04L139.94 308.92L140.04 332.03L136.08 344.02L139.93 356.96L140.02 374.06L135.05 395L125.99 406.91L113.06 408.96L98 409.09L85.92 410.95L72.04 409L54.06 406.94L37.07 410.97L26.08 423.07L21.06 435.01L27.95 444.01L34.91 455.09L46.04 466.97L56.01 477.09L68.07 487.97L83.94 497.93L100.09 500L107.93 497.02L116.94 490.95L128.07 494.93L156.05 494.98L170.02 497.92L194 506ZM197.02 740.94L216.91 743.1L232.96 735.98L246.96 728.93L258.91 720L266.01 705.96L268.97 689.91L274.03 673.95L280.91 659.04L280.95 644.1L268.99 634.94L257.08 631.09L232.99 621.03L222.08 616.95L213 610.03L202.98 605.01L191.9 598.03L179.94 596.06L163.99 605.08L150.09 618.98L137.92 634.99L125.01 650.96L117.91 667.07L117.91 680.99L122.91 693.93L130.04 705.9L143.01 720.03L157.08 731.05L174.08 737.92Z" fill="rgb(87, 0, 53)" transform="scale(1.0125374546204917,-1.016990312412797) translate(3784.5,-1000) rotate(-13)"/>
<path d="M144.04 506.06L159.99 503.92L172.91 500.96L187.94 508.08L202.08 503.91L215.04 501L226.93 494.95L238.9 480.96L242.91 465.01L243.97 450.97L241.09 439.01L243.97 427.06L256.04 424.06L269.02 429.93L280.96 439.09L293.05 449.05L307.02 458.01L321.05 463.07L333.1 472.91L347.07 481.06L358.91 484.07L369.09 490.93L381.92 491.1L393.08 492.97L402.94 496.01L412.98 491.02L425.03 491.08L434.92 489.91L449.99 482.94L466.95 470.04L482.09 457.92L493.98 442.02L501.01 425.03L507.96 410.97L507.97 400.09L512.03 388.06L505.96 376.01L513.91 362.96L516.1 340.96L512.04 323.94L514.09 309.06L514.04 294.97L515.95 281.92L510.99 272.02L511 259L508.9 246.91L509.02 234.08L504 221.09L508.08 207.09L506.07 194.93L502.06 182.05L498.99 169.01L506.06 156.99L505.93 143.1L503.98 130.08L503.94 119.91L508.96 107.06L508.98 100.02L511.07 102.07L526.03 106.04L539.03 108.95L550.99 116.99L564.91 111.91L583.09 106L583.02 91.02L573.1 76.94L564.9 61.97L551 53.92L535.94 41.91L521.94 32.01L506.05 24.03L489.99 19.03L475.01 9.94L466.97 -2.03L450.9 -6.97L440.06 -18.09L425.01 -21.08L409 -16.05L394.03 -10.05L384.02 -0.07L379.08 14.04L385.94 24.01L391.95 36.09L391.04 48.99L392.04 62.02L390.06 74.08L390.02 87.05L391.08 100.09L389.96 112.01L388 123.99L387.95 150.03L391.97 163.02L385.07 174.94L390.06 186L394.01 198.94L394.03 211.97L395.98 227.03L396.1 238.94L393.91 252.04L397.04 264.98L394.05 277.05L395.93 288.07L394.05 298.93L398.09 311.08L398.02 324.04L396.07 338.03L393.93 354.03L387.02 365.94L386.01 380L372.92 390.1L359.05 396.98L347.03 397.02L336.95 394.03L325.06 394.1L312.02 381.93L297.02 369.97L283.02 358.92L268.01 352.96L253.99 345.05L240.96 333.98L236.09 323.09L230.99 308.93L230.99 292.09L228.92 272.05L230.91 254.98L232.03 238.09L230.92 217.98L232.01 201.08L232.03 170.07L231.02 154.05L228.91 137.99L233.91 123.02L234.08 110.9L238.99 99.06L245.97 91L256.09 83.04L267.98 83.06L278.06 78.95L289.93 77.93L303.05 74L320.1 61.99L328.02 55.09L319.98 45.09L303.08 36.94L287.95 33.04L272.98 23.96L259.07 14.98L247.96 6.94L234.01 -1.9L216.93 -3.96L199.96 -3.98L185.94 -2.03L169.9 -6.92L155.9 -4.92L140.98 -3.97L126.99 -4.96L110.98 -7.01L95.07 -4.96L79.97 0.1L63.08 2.07L48.09 7.1L38.02 16.96L30.03 27.92L34.95 37.91L45.01 47.04L51.97 57.06L62.92 66.08L73.07 73.98L82.92 81.01L94.99 88.05L105.95 96.05L111.1 105.9L113.1 115.93L113.91 128.05L112.98 139.92L114.03 151.9L114 164.97L115.95 174.97L116.02 187.03L118.05 198.91L118.01 210.98L114.05 224.09L115.93 236.03L114.01 247.91L114.04 284.01L112.98 298.9L114.08 311.05L114.02 334.02L117.97 353.06L117.95 371.08L119.95 389.96L119.91 406.9L107.02 417.01L95.08 418L77.91 418.06L58.08 420.06L41.05 427.07L27.99 430.03L20.96 438.91L21.01 451.01L28.08 462.91L40.94 481.05L55.95 482.01L65.08 482.06L76.97 492.92L95.08 494L113.03 494.02L128.98 498.01Z" fill="rgb(9, 67, 53)" transform="scale(0.9859725350225058,-0.9903758494418204) translate(4240.5,-1000) rotate(-7)"/>
<path d="M400.01 602.01L409.98 608.94L418.04 620.02L434.03 618.1L445.06 626.96L455.93 628.03L469.08 634.04L482.96 639.03L497.95 636.97L508.96 624.93L525.99 622.99L538.92 611.06L541.05 592.1L537.96 573.05L537.02 554.05L532.08 536.99L520.08 522.01L507.95 509.92L492.96 498.09L476.99 494L463.02 496.03L453.93 500.93L445.01 509.09L435.01 519.04L435.09 537.97L422.02 520.08L422.02 515.94L416.09 501.01L422.04 482.93L419.03 464.93L425 440.06L435.95 426.93L437.98 404.97L441.92 386.1L446.98 364.94L454.91 345.98L460.91 328.04L461.04 311.04L451.93 299.98L444.09 289.98L441.08 275.91L430.93 267.08L425.07 255.01L425 238.98L413.95 227.08L409.08 217.08L397.01 214.07L388.06 203.94L379.01 186.94L363.01 184.02L352.96 175.08L342.06 162.08L325.02 161.99L311 152.96L301.02 145.92L283.96 144.99L272 135.91L256.08 129.93L241.02 129.03L224.09 129.95L209.92 134.03L195.04 136.09L183.08 127.07L168.97 129.93L163.9 116.99L163.08 101.96L160.05 89.06L159.93 73.92L170.07 64.98L187.94 61.96L203.98 66.9L219.95 62.05L238 59.08L256.05 64.02L276.03 59.04L293.91 61.97L313.96 58.94L332.02 58.93L351.09 53.95L368.92 58.97L385.94 52.06L398.08 43L413 41.94L427.9 40.03L438.04 29.95L441.91 19.02L452 10.93L460.1 4.04L467.01 -5.05L475.07 -13.05L475.97 -27.09L490.99 -29.92L491.08 -41.91L492 -53.05L497.94 -64.04L500.04 -76.08L500.06 -86.05L498.04 -101.07L500.99 -116.01L491.94 -128.91L482.01 -144.93L478.01 -160.93L466.1 -162.95L459.94 -170.1L447.08 -172.95L440.01 -182.01L431.05 -189.09L419.98 -196.9L400.09 -198.04L387.91 -207.07L372.06 -217.05L358.96 -225.91L342.03 -229.96L327.93 -244.02L310.96 -245.07L294.04 -254.91L281.09 -253.02L269.09 -255.06L256.08 -250.96L246.9 -258.08L235 -260.07L223.93 -267.09L212.99 -262.92L203.08 -272.03L192.05 -272.9L177.93 -273.01L163.02 -269.9L150.04 -265.97L134.04 -267.02L121.99 -267L110.99 -260.03L95.08 -257.98L78.92 -260.04L62.09 -258.07L56.04 -243.99L42.06 -238.02L29.09 -227.05L20.07 -213.03L7.95 -199.99L6.97 -182.98L7.08 -151.01L18.96 -134.01L27.04 -115.99L41.93 -101.93L53.01 -91.99L59.95 -83.07L66.09 -73.98L76.07 -67.02L84.93 -62.91L92.02 -51.07L99.92 -44.06L111.05 -38.05L114.02 -27.08L105 -20.05L89.06 -16.05L75.01 -13.93L62.98 -1.99L56.01 11.04L49.92 26.98L43.92 41.93L44.94 58.09L50.01 73.02L66.08 79.07L72.04 93.98L72.95 109.1L76.07 123.98L100.09 135.97L107.9 149.06L96.99 161.92L93.93 180.01L82 190.1L72.92 201.98L65.9 217.9L66.9 230.92L63.1 245.08L56.94 258L63.09 270.9L65.96 285.04L65.91 299.09L69.91 311L67.05 324.95L73.05 336.94L77.92 351.01L88.06 360.08L92.06 371.9L95.08 387.07L108.07 395.05L114.08 408.07L124.98 417.06L132.04 428.99L141.04 442L156.97 446.09L166.93 454.99L171.91 467.93L185.92 474.05L196.94 486L209.92 491.97L222.98 492.97L234.91 496.09L244.96 505.05L258.04 504.91L272.92 508.05L286.99 503.92L304.01 501.92L320.08 501.09L331.91 492.94L344.97 486.01L355.04 477L359.04 484.92L365.01 497.96L373.02 508.93L373.96 525.09L379.04 541.07L380.92 557.05L383.1 572.05L388.94 576.99L390.98 585.99L391.1 594.07ZM236.09 417.04L222.97 420.04L209.96 414.02L198.04 398.08L193.98 383.04L188.97 372.04L182.97 348.07L183.03 336.93L181.95 323.06L182.02 310.9L179.03 299.04L181.92 283.07L184.98 264.96L193.92 249.05L206 236.98L222.94 231.09L240.99 224.02L259.96 219.98L276.09 217.94L293 220.99L310.02 229.92L322.92 239.02L331.97 251.98L338.03 265.01L341.92 277.09L341.98 291.98L340.97 306L326.1 336.09L319.09 348.07L307.97 361.05L298.98 374.07L286.98 386.02L274.91 394.97L263.07 402.97L249.99 411.03ZM239.02 -31.94L219.99 -35.04L201 -43.97L186.03 -51.08L175.01 -59.05L163.07 -66.97L152.01 -79.05L140.92 -92.08L132.08 -104.94L126 -119.07L122.99 -131.9L124.93 -147.97L135.08 -162.91L148 -172.04L157.95 -175.04L169.95 -179.09L184.95 -178.93L196.94 -181.93L209.96 -181.93L221.93 -182.98L233.08 -184.92L247 -186.02L257.97 -184.97L270.08 -185.06L284.1 -182.07L293.99 -182.1L304.91 -175.09L317.09 -171.95L328.04 -168.92L338.91 -164.01L350.04 -161.06L359.07 -154.92L369.04 -151.03L375.96 -135.94L378.9 -122.09L378.96 -110.91L377.05 -97.95L372.09 -88.06L364.9 -78.96L356.95 -67.96L350.04 -60.07L339.09 -51.02L327.98 -44.08L319.06 -41.04L308.01 -34.96L298.02 -32.91L259.9 -33.09Z" fill="rgb(0, 56, 45)" transform="scale(1.0067053420454932,-0.9990509136723416) translate(4812.666666666667,-1000) rotate(8)"/></g><path d="M468,495 C2035.7666666666669,1247 4154.833333333334,672 4871.900000000001,60" stroke="rgb(66, 16, 106)" stroke-width="5" fill="none"/>
<path d="M127,654 C1111.7666666666669,30 3567.8333333333335,1018 4833.900000000001,701" stroke="rgb(6, 7, 35)" stroke-width="5" fill="none"/>
<path d="M258,451 C1387.7666666666669,427 3252.8333333333335,1251 4943.900000000001,718" stroke="rgb(24, 6, 61)" stroke-width="5" fill="none"/></svg>