<svg xmlns='http://www.w3.org/2000/svg' viewBox="0 0 6047.166666666668 1300"><rect width="6047.166666666668" height="1300" fill="rgb(204, 196, 143)" /><g transform="scale(1,1)"><path d="M67.97 201.05L65.06 215.08L64.07 219.9L68.05 245.99L72.98 271.91L85.97 294.98L91.06 320.06L90.93 341.91L101.92 366.93L110.93 388.96L121.94 432.08L126.98 452.01L147.07 491.96L157.93 509.04L171 526.97L174.01 547.91L185.95 565.96L207.93 578.03L217.91 597.03L233 612.08L249.99 624.98L268 639.98L289.97 647.04L301.98 659.91L316.95 670.98L337.06 676.98L352.05 686.03L369.09 691L387.04 702.94L399.91 712.93L421.1 718.08L437.09 723.92L460.92 721.97L480.02 732.9L498.02 740.09L513.05 741.08L528.06 745.96L545.98 746.97L568.02 750.01L591.92 739.92L618.9 738.08L643.09 727.96L668.98 720.03L693.9 716.07L714 704.95L729.9 689.02L747.93 681.94L761.04 673.09L771.97 661.96L779.06 646.99L791.93 636.94L802.9 625.03L803.95 607.92L813.06 592.97L825.95 578.92L825.94 560.92L833.95 546.06L842.91 531.05L843.04 513.95L849.98 496.05L854.08 477.98L854.07 458.9L855.01 442.06L860.93 423.03L858.08 405.02L860.93 386.09L861.04 368.05L857.92 349.01L851.93 331.98L854.09 316.03L842.96 300.08L845 279.92L838.92 263.06L829.07 233L818.04 217.91L817.97 215.07L811.02 205.07L803.01 190L791.97 179.09L782.08 169.96L770.02 160L759.94 149.09L746.06 135.08L729.92 122.98L717.98 105.01L702.04 94.96L687.07 83.03L665.05 76.04L646.96 61.09L628.97 51.96L609.99 46.99L592.03 46.07L572.04 50L556.07 51.96L540.1 61.02L519.96 69.06L509.99 87.97L499.96 102.07L496.9 123.02L469.97 94L439.96 71.98L416.9 56.07L397 47.05L378.93 49.95L360.91 49.96L342.07 53.98L320.93 67.98L305 76.04L287.06 90.93L275.07 108.07L257.01 133.06L253.98 149.08L254.03 163.05L258.94 177.96L258.91 192.95L265.04 205.03L269.08 214.96L272.05 217.91L271.94 232.91L283.07 242.07L287.06 256.98L300 269.92L312.94 293.94L338.99 307.03L361.06 322.05L396.98 328.05L416.91 331.95L436.05 331.07L455 331.92L473.1 332.03L487.08 333.93L501.02 333.02L504.01 357.91L498.01 378.99L476.99 392.91L457.95 394.05L443.09 390.09L428.03 393L405.97 393L387.92 389.07L371.04 385.92L356.92 376.95L343 371.04L328.09 366.92L315.02 358.04L302 355.93L296.02 367.93L298.01 382.92L294.05 396.99L304.93 408.04L305.93 423L327.97 445.09L342.92 455.07L357 465.08L373.07 473.95L388.08 482.95L403.07 496.07L421.05 501.9L436.99 505.98L454.97 504.99L470.04 508.94L490.97 513.91L516.09 516.95L541.08 517.07L564.94 514.04L580.96 504.99L590.08 495.91L606.06 484.04L609.94 462.02L613.91 437.92L620.97 415.95L621.04 389.98L623.03 371.01L622.96 341.04L625.92 328.05L623.02 313L625.95 295.03L628.01 278.92L618.99 260.98L618.99 225.99L620.97 214.96L620.93 212.05L628.08 200.95L643.03 187.97L671.92 189.92L687 205.1L701.97 209.01L708.99 214.91L713.96 224.02L729.94 243.08L738.93 265.08L747.97 285.03L754.92 299.96L754.96 316.06L760.95 330.9L756.9 345.99L763.92 360.94L760.93 378.98L760.99 419.07L755.01 445.1L749.94 467.98L738.92 489.9L723.09 508.96L709.98 528.95L695.07 548.02L676.03 564.05L662.06 579.02L642.95 592.9L618.94 601.95L597.97 608.93L576.99 618.95L553.1 624.93L527.96 621.02L502.96 620.94L482.04 619L469.01 619.03L453.01 614.9L440.01 609.07L423.91 601.98L400.1 593.04L372.97 585.91L350.03 578.08L326.92 571.06L306 561.04L287.02 545.92L268.94 530.97L254.08 517.1L246.91 499.04L235.95 484.04L226.05 462.98L220.98 441.91L217 418.93L208 398.91L203.91 381.9L205.99 364.03L195.97 346.05L198.93 327.97L195.05 309.06L190 290.98L181.96 271.95L184.06 252.03L177.01 233.07L176.95 213.97L189 200.91L189.01 166.92L191.97 151.06L204 140.93L208.08 125.96L216.94 111.91L221.08 97.96L226 90.07L238.94 75.91L244 65.09L252.99 45.95L271.92 28.98L283.9 10.93L294.09 2.09L305.95 -5.06L317.02 -13.9L330 -20.06L341.97 -28.95L356.93 -32.02L363.91 -41.99L377.96 -49.97L393.07 -51.02L405.93 -59.02L424.08 -58.92L436.01 -66L449.92 -77.08L479.95 -81.1L493.98 -85.03L509.01 -91.06L524.01 -85.02L540.92 -88.02L559 -80.99L577.06 -76.93L592.95 -76.92L609.91 -71.91L627.96 -69.05L642.95 -62.01L657.96 -56.1L673.03 -47.05L694.99 -42.02L716 -31.91L732.95 -14.01L755.03 -5.08L771.95 6.98L792.01 14.96L803.9 22.04L798.02 11.03L796.94 -10.94L789.06 -26.9L782.09 -47.04L766 -61.96L755.07 -75.93L739.08 -88.02L723.99 -99.06L709.95 -110.08L695.04 -115.97L688.09 -130.92L676.01 -140.05L662.02 -149.94L646.98 -157.02L634.91 -165.98L617.03 -169.97L604.1 -181.06L590.09 -184.99L572.03 -185.04L555.97 -193.91L539.91 -193.93L521.9 -195.93L505.96 -197.04L489.03 -203.04L473.07 -207.03L455.09 -202.96L440.09 -197.04L423.99 -197.06L405.95 -193.94L391.03 -191.95L372.91 -194.09L356.94 -188.95L338.99 -184.95L326.91 -178.91L312 -173.94L293.9 -169.97L278.04 -162.92L267.92 -150.1L253.01 -147.95L242.01 -135.98L226.03 -133.93L206.06 -113.99L191.92 -109.04L176.94 -93.99L163.92 -72.98L142.96 -59.05L133.98 -38.94L122.09 -20.04L110.92 -0.04L98.04 21.93L89.06 44.06L86.95 69.03L71.93 90.06L68.07 114L61.05 137.93L61.1 188.05ZM387.91 233L384.03 214.96L393.02 199.92L403.1 189.97L418.05 188.05L435.92 188.09L452.01 189.9L469.04 197.05L481.97 205.1L491.06 214.05L491 215L494.97 224L493.06 241.04L492 264.03L467.1 261.03L445.05 264.95L430.07 265.06L414.98 258.09L399.99 247.97Z" fill="rgb(38, 102, 15)" transform="scale(0.9997379402080884,-1.0060209321118871) translate(-79.5,-1000) rotate(-7)"/>
<path d="M141.04 767.96L148.07 768.93L152.97 764.04L161.07 762.94L173.06 763.05L181.04 764.95L187.92 766.04L196.01 768.94L203.92 764.91L210.08 760.96L217.05 755.9L224.02 753.95L229.09 749.06L231.04 743.02L232.08 735.95L229.93 727.92L230.06 708.1L232.9 699.93L232.92 692L234.06 683.95L236 676.96L238.03 669.09L239.05 661.04L235.9 653.07L235.96 645.99L237.06 637.01L236.03 628.04L233.04 619.08L230.92 610.94L230.98 594.05L234.05 585.08L235.09 576.9L236.04 570.03L234.04 563.97L229.97 557.93L229.06 551.95L231.97 545.07L230.95 536.03L230.01 528.94L232.08 522.91L234.96 517.09L235.08 510.91L232.07 502.93L231.98 493.01L232.9 481.93L225.97 472.94L222.99 465.1L226.91 458.01L229.03 449.09L225.95 436.9L226.09 425.96L224.91 417.08L221.08 402.97L218.97 395.1L220.02 385.96L223.97 377.07L224 369.01L225.08 359.95L218.98 333.05L222.96 323.98L222.07 316.02L220.07 308.05L220.92 301.04L223.07 294.04L227.02 290.08L230.94 292.97L233.91 298.94L238.06 301.95L246.04 302.05L252.93 308.9L256.94 318.04L257.9 324.08L264.95 327.07L274.04 325.94L277.95 330.95L278.94 337.97L284.08 345.91L291.04 350.93L296.97 353.98L303.08 357.98L307.06 361.94L309.95 369.06L312.92 376.93L318.91 382.08L325.92 386.01L330.96 390.97L334.98 398.04L338.94 403.98L345.09 411.08L348.99 416.08L347.06 423.07L338.06 428.97L328.98 433.09L322.01 434.04L315.96 434.97L310.09 435.01L302.94 439.98L303.03 450.96L305.92 462.07L310.03 470.98L316.96 479.98L322.98 487.99L330.05 490.02L337.97 495.04L349.07 497.91L359.09 497.07L369.94 499L380.08 503.05L390.09 505.93L401.06 508.06L409.04 507.06L423.06 507.09L430.07 505.91L445.01 505.98L453.06 505.09L458.97 498.91L466.08 495.97L472.93 495.04L495.06 495.09L502.92 494.09L511.06 496.1L529.1 500L539.06 503.09L546.93 502L553.95 494.98L562.05 493L570.97 495.01L578.08 492.04L579.09 484.03L578.91 475.09L572.1 470.09L563.97 470.97L559.08 467.02L557.09 457.9L553 452.98L545.05 453.91L536.07 452L531 444.94L528.97 439.01L521.98 434.99L505.05 435.05L494.97 432.96L486.98 428.96L473.06 427.08L466.07 427.98L453.92 422.01L449.04 414.09L434.93 406.96L428.03 404.99L421.99 401L414.92 397.01L411.99 390.99L407.04 382.92L401.03 374.99L393.08 366.02L378.92 348.01L371.95 334.05L363.95 330.08L358.94 323.01L359.02 315.99L357.9 309.93L353.08 304.96L356.01 300.07L362.06 294L367.03 286.03L368.92 277.08L373.91 270.94L381.01 266.04L392.97 255.94L400.06 250L408 246.02L414.93 241.91L419.95 233.9L425.95 227.95L429.97 220.02L434.94 214.04L443.05 210L449.95 204L453.97 195.03L457.9 187L463.9 179.08L468.99 170.94L472.93 163.04L478.01 156.05L484.95 150.1L493.03 143.95L499.94 136.97L505.02 128.07L506.99 118.95L513.02 113.92L520.91 110.99L528.01 106.01L533.09 98.02L539.01 93.05L546.03 92.04L552.92 89.03L562.01 88.96L569.94 85.93L576.97 82.95L584.96 80.04L593.04 81.09L601.07 78.04L605 71.91L610.97 68.08L625.09 64.03L629.96 57.94L632.01 51.09L626.96 44.04L621.96 38.96L614.93 33.93L609.94 25.05L602.97 21.07L593.06 21.97L587.07 20.09L582.01 12L576.95 4.93L571.99 -1.01L557.99 -11L550.96 -12.99L544.01 -13.94L537.95 -13.93L531.04 -12.06L514.96 -12.04L506.96 -13.92L497.97 -15.96L490.9 -16.08L484.91 -11.03L480.05 -6.09L474.05 -1.93L468.04 0.09L460.94 1.04L454.07 4.08L446.96 7.99L439.96 12.93L431.9 18.1L424.94 23.91L420.04 32.93L413.92 40.9L405.03 48.93L399.05 57.08L395.01 66.08L387.91 71.07L380.03 74.95L370.07 89L365.97 96.02L361.1 102L360.05 109.93L358.08 117.92L354.94 125.95L348.99 131.06L341.99 135.01L336.04 140.03L328.01 145.94L319.95 150.91L313.95 156L309.02 162.07L305.09 169L304.09 175.95L299.97 183L293.93 188.98L283.98 200.96L279.96 206.93L273.93 213.07L267 218.08L258 218.98L251.93 224.09L247.09 230.07L243.01 237.08L237.99 243.96L229.95 246.95L226.04 240.99L222.91 230.96L218.05 220.92L216.02 211.01L218.05 201.94L218.09 192L217.06 182.05L217.1 172.94L219.91 165.07L220.05 136.02L217.04 129.93L218.92 123.92L222.08 117.97L226.01 110.97L231.9 90.09L236.93 86.98L250.93 87L256.91 82.99L262.91 81.97L276.92 81.92L284.01 81.03L293.06 79.03L302 75.08L308.05 72.05L315 67L317.97 59.95L311.92 45.94L306.99 40.04L300.1 35.94L284.09 31.91L276.99 29.96L270.09 27.03L262.99 22.93L256.93 18.95L249.97 14.94L244.97 8.99L240.92 1.97L233.96 -3.06L224.99 -6.01L217.94 -7.05L210.94 -5.09L205.01 -3.03L197.93 -2.05L190.09 1.04L182.08 2.91L175.08 2.93L168.05 1.91L159.1 1.91L149.91 6.04L143.99 8.97L138.05 9.05L132.93 5.09L122.98 4.98L111.01 3.96L101.94 3.99L95.97 2.08L88.95 1.05L83.04 4.09L73.92 2.97L64.91 4L58.06 4.93L52.06 6.98L45.06 8.05L36.97 10.03L28.95 16.03L26.94 26.04L29.01 35.98L31.96 45.05L36.94 55.05L41.99 63.96L47.94 70.04L55.96 75.91L63.01 81.95L69.08 89.92L78.06 95.05L87.96 98.08L94.02 101.99L97.91 107.98L100.93 114.08L103.07 121.95L105.03 139.99L104.03 148.93L103.98 159.09L105.01 169.01L110.91 177.95L112.05 188.03L110.01 198.05L112.02 207.07L114.97 216.04L115.98 225.93L114.06 234.93L114.05 244.09L114.93 254.02L113.95 263.01L112.07 271.03L112.05 280.06L116.04 288.92L117.03 297.06L114.91 313.08L110.91 321.91L110.95 329.97L117.03 337.93L118.08 345.05L114.98 369L117 377.93L122.05 387.06L124.98 395.02L125.05 402.94L121.94 409.93L116.93 415.9L117.03 422.04L120.04 429.96L121.01 439.08L119.03 447.03L118.99 467.08L121.96 477.97L127.92 486.97L129.08 494.95L126.07 503.1L127 509.07L128.95 516.09L131.09 523.92L128.92 531.97L126.04 537.9L125.03 544.97L122.96 551.94L120.98 561.07L118.95 570.98L117.93 579.96L116.96 587.91L116.96 594.97L119.9 601L121.95 610.91L124.01 622.02L125.04 630.91L121.08 636L122 643.01L128.08 647.97L126.95 655.95L125.04 666.98L123.03 674.91L118 680.93L111.07 680.07L102.93 674.91L95.97 675L88.93 679.99L81.97 681.04L74.93 679.94L66.03 676.98L56.94 676.05L50.95 679L43.94 677.98L38.08 675.99L30.96 678.95L24.04 686.91L21 693.98L20.99 700.9L23.02 707.94L22.94 715.94L28.05 722.02L34.93 728.98L50.94 738.98L60.06 743.01L70.08 746.99L78 750.96L83.97 753.03L92.91 753.99L100.96 758.09L108.99 758.97L115.94 760.95L121.92 761.09L128.93 763.1L135.98 764.07Z" fill="rgb(24, 40, 1)" transform="scale(0.9993909437930247,-1.0025411751187139) translate(888.3333333333334,-1000) rotate(-9)"/>
<path d="M350.02 27.01L342.03 27.06L324.03 21L310.03 12.97L299.94 6.04L287.98 3.08L278.09 1.97L267.1 -3.08L254.95 -2.97L244.09 -0.08L230.92 -1.98L217.92 -5.02L203 -4.93L191.96 1.92L178.91 3.06L166.91 9.07L153.98 12.95L144.92 21.06L130.92 26.02L122.02 31.98L112.98 42.04L107.03 54.93L97.97 69.06L88.97 76.94L77.92 89.02L70.92 103.04L63.98 119.08L60.03 136.96L55.1 154.04L50.03 172.95L48.09 190.92L49.96 207.03L51 225.96L50 243.01L51.09 255.06L58.01 266.07L65.91 280.98L69.06 294.03L69 305.92L73.06 316.91L79.02 325.96L79.08 338.1L83.98 347.98L90.01 357.93L95.05 365.94L102.05 375.95L105.01 385.95L111.99 396.9L122.95 403.09L131.09 412.95L137.93 423.06L152.95 431.03L166.98 442.91L196.99 463.1L212.05 471.97L244.08 491.94L259.93 500.01L276.99 506.05L292.94 509.96L306.01 513.1L321.93 511.02L335 511.04L347.08 507.91L357.08 502.91L368.09 501.06L380 496.98L389.92 493.02L402.03 489.98L413.95 484.03L425 465.01L432.01 482.09L442.04 498.02L453.01 505.01L467 508L479.04 511.03L491.09 505.95L501.04 502.9L506.09 497.96L517.96 486.99L515.08 471.97L506.97 461.03L506.05 446L500.04 432.97L496.03 420.02L492 407.94L488.99 393.97L484.09 382.07L484.03 370.91L482.05 358.94L483.94 346.01L483.92 331.06L485.93 317L485.93 302.05L483.92 288.07L486.02 273.96L486.93 259.91L486.91 216.91L484.09 203.98L487.05 190.94L484.03 178.05L483.93 163.09L478.94 147.04L478.91 131.92L472.93 118.9L474.9 103.9L472.01 89.01L470.08 75.02L466.92 59.94L465.04 44.01L464.91 29.1L462 14.05L463.09 -0.01L462.06 -13.05L461.92 -26.05L464.93 -39.02L462.07 -51.03L462.02 -62.97L459.9 -75.06L461.96 -87.02L458.05 -98.01L458.09 -109.95L461.91 -121.06L459.92 -133.03L463.01 -142.97L466.9 -157L473.03 -167.9L485.99 -174.92L501.09 -174.94L514.04 -172.94L526.97 -177.03L542.03 -177.09L567.9 -187.01L581 -188.05L583.97 -197.98L580.94 -211.05L571.91 -213.03L562.95 -221.05L546.92 -224.1L534.09 -230.02L524.1 -239.94L514.03 -248.08L501.96 -256.97L490.99 -261.93L479.08 -262.01L464.91 -259.92L453.06 -261.94L439.08 -261.91L425.06 -262.97L411.94 -267.01L397.97 -267.02L384.92 -268.1L373.05 -264.94L362.01 -263.01L334.95 -263.06L326.02 -266.91L310.95 -267.99L297.98 -264.93L285.03 -263.09L271.93 -263.1L256.9 -255.06L251.91 -240.02L249.07 -228.07L253.92 -216.02L265.09 -200.1L279.94 -189.96L294.95 -177.01L306.1 -170.01L317.96 -169.99L334.06 -167.93L346.98 -160.02L347.06 -126.05L349.92 -110L352.05 -94.96L349.98 -81.98L344.07 -69.06L344.05 -56L341.97 -39L349.01 -20L348.95 -4.99L350.1 6.01ZM279.05 429.99L264.05 424.99L249.04 417.97L233.9 407.94L222.99 401.94L216.93 387.95L208.02 376.03L200.06 360.91L192.94 348.02L185.06 332.94L179.95 316.07L177 298.99L173.93 285.92L169.01 273.97L166.97 261.01L163.94 248.03L164.01 223.93L167.1 212.01L169.06 202.06L172.01 193.06L175.02 180.97L178.95 171.06L183 159.09L188.07 149.06L195.06 138.95L201.96 126.94L211.99 117.09L225.95 107.97L239.98 100.91L251.91 98.01L262.02 94.04L273.06 90.91L285.06 87.96L298.04 86.02L320.01 86.01L334.96 88.94L351.94 100.91L361.95 113.99L367.02 130.92L370.07 141.98L370.08 173.07L371.93 189.05L372.06 205.96L370.1 220.96L370.08 234.08L367.9 248.08L367.04 263.08L367.09 275.97L364.97 288.95L363.06 304.08L362.04 317.09L363.08 334.96L366.95 371.08L366.98 389.08L362.04 400.06L354.93 407.06L345.06 415.01L325.92 423.01L309.91 428.1L300.02 430.07L288 430.99Z" fill="rgb(10, 34, 127)" transform="scale(1.003242853603175,-0.9877615362683965) translate(1582.1666666666667,-1000) rotate(1)"/>
<path d="M292.02 694.95L305 698.93L317.98 697.94L329 694.94L337.91 688.92L341.98 680.05L340.95 668.97L338.96 659.06L338.02 649.09L326.05 613.03L319.92 602.02L317.98 587.95L314.95 575.1L313.98 559.92L310.04 548.09L304.01 526.08L298.04 515.98L295.91 503.9L292.02 493.99L286.1 483.02L283.08 472.91L280.99 462.95L278.03 451.95L278.07 443.04L276.97 433L274.06 423.93L272.95 411.99L268.06 404.1L265.08 392.97L261.91 383.1L260.98 372.97L256.04 361.97L255.02 351.96L251.97 341.92L248.97 332.99L246 321.92L243.05 311.96L239.94 302.9L235.91 292.91L233.91 283.06L231 273.9L227 263.06L225.08 251.07L220.92 239.99L218.92 228.01L216.04 215.92L215.08 203.99L210.92 191.92L209.04 181.01L208.07 169.09L203.07 157.08L201.91 145.08L199.08 132.94L197.1 121.94L191.09 110.95L189.98 98.91L187.97 87.95L184.92 73.9L182.1 62.04L180.08 51.03L178.04 36.9L175.07 26.06L171.98 13.95L169.1 3.05L167.93 -7.94L164.95 -19.91L159.95 -31.93L159.01 -45.06L156.05 -59.05L149.99 -69.99L149.06 -81.93L144 -93.95L141.08 -107L139.92 -123.93L136.97 -135.04L128.91 -143.09L121.98 -148.93L114.96 -156.06L107.04 -164.98L96.9 -172.04L86.07 -179.97L72.98 -184.07L62.9 -179.94L55.01 -172.03L54.97 -161.07L58.01 -146.02L63.08 -130.91L67.02 -116.02L72 -101.05L75.93 -88.07L80.93 -72.92L86.08 -58.94L95.05 -14.09L95.1 1.92L100.02 14.91L102.96 28.09L107.04 39.95L113.1 63.92L117.91 77.02L120.01 89L122.96 101.04L128.06 112.9L129 123.99L131 136.1L132.03 148.06L135.05 158L135.05 169.94L137.91 182.06L139.96 194.02L143.95 204.03L143.94 213.06L146.92 222.1L150.97 231.09L153.92 240.91L155.91 250.08L159.07 259.04L160.04 268.02L165.04 276.96L166.08 287.01L174.96 314.09L177 324.01L180.03 333.09L181.07 341.99L184.09 355.07L184.92 370.96L188 386.95L192.97 403.99L197.03 418.05L200.08 433.1L205.94 448L211.04 462.95L213.96 478.9L219.07 494.09L225.05 508.04L227.91 522.98L232.96 539.03L236.92 553.99L241.96 570.96L246.01 587L245.98 603.03L247.1 618.09L249.97 633.07L251.94 646.95L257.96 660.92L269.92 670.97Z" fill="rgb(5, 2, 54)" transform="scale(1.0041905068711106,-1.0156738028917167) translate(2195.166666666667,-1000) rotate(-17)"/>
<path d="M295.09 510.06L313.96 511.04L335.98 505.93L360.07 505.95L381.07 500.97L400.07 497.08L414.01 487.94L428.95 478.1L436.03 460.99L441.07 448.04L443.93 438.04L445.09 421.93L445 408.02L443.1 392.05L437.91 374.97L433.97 363.06L428.01 356.09L420.91 346.95L410.02 342.08L399.95 336.05L390.93 330.96L372.05 325.02L351.1 329.07L327.91 334.1L316.01 351.97L310.94 370.01L313.92 390.02L317.93 409.99L337 429.05L304.04 436.09L256.1 435.98L238.96 430.96L225.03 424.09L213.03 419.02L202.05 409.96L194.99 401.01L191.07 388.98L181 365.04L175.09 350.01L173.91 336.05L174.01 291.04L166.99 277.1L168.9 260.04L174.03 245.04L179.05 233.01L181.06 219.9L180.96 205.02L187.99 190.93L198.98 178.94L205.94 159.98L213.91 141.97L230.93 127.93L246.08 116.08L260.09 103.97L276 96.98L287.96 95.06L311.95 95.09L325.08 90.03L341.9 91.09L354.06 97.09L367.01 106L376.9 117.03L390.9 121.05L401.02 131.96L417.08 130.05L434.94 128.06L452.1 120.99L461.01 112.99L458.9 101.92L449.1 82.98L433.1 66.95L412.06 57.09L396.01 49.97L384.95 43.03L369.9 38.93L359.94 32L351.06 22.94L339.94 14.02L328.1 3.98L313.93 -3.08L299.93 -4.95L282.04 -9.91L264.93 -5.05L255.01 -8.01L242.03 -4.9L231.07 -5.08L213.06 -2.95L193.05 5.96L173.95 12.03L155.03 19.07L139.07 33.96L125.09 45.97L111 56.99L101.04 64.98L94.06 79.07L85.98 98.98L78 116.96L64.05 133L58.95 147.92L59.07 159.92L49.93 170.02L51.99 183.98L42.91 195.93L41.01 214.08L40.92 236.92L44.92 260.08L52.06 280.05L50.08 300.05L53.07 318.98L61.02 339.98L64.02 359.06L73.94 376.95L84.97 395.91L100.95 409.97L111.03 423.99L122.94 438.92L134.92 451.92L153 456.96L169 465.97L182.99 478.06L199.02 487.94L215.97 494.01L233.09 503.96L253.09 507.91L272.04 510.01Z" fill="rgb(26, 74, 8)" transform="scale(1.0020401984434124,-0.9818395703562025) translate(2578.8333333333335,-1000) rotate(18)"/>
<path d="M260.02 511.92L276.94 518.03L295.99 511.01L315.92 515.03L336.06 514.99L352.99 506.9L372 505.93L388.01 504.1L404.08 495.07L416.95 489.08L427.95 486L435.05 470.03L450.1 452.98L456.92 428.02L464.91 411.01L461.02 398.91L460.94 386.1L464.9 359.96L459.06 346.1L461.04 331.09L459.09 314.97L461.06 300.9L457.05 285.92L458.97 256.09L458.05 238.94L449.91 226.95L452.97 209.01L449.93 193.98L448.91 179.93L445.9 166.01L450.02 152.02L453.07 140.02L456.93 125.07L457.08 115L460.99 105.06L462.98 91.96L464.97 81.04L486.01 96.01L501.06 96.96L519.95 104.93L536.07 100.93L538.98 85.93L541 72L529.05 59.98L515.04 53L500.93 43.07L490.9 33.97L474.99 29.93L463.04 22.91L437 2.92L422.96 -0.07L407.1 -10.97L386.98 -13.09L374.01 -10.96L358.94 -3.99L343.91 8.09L338.98 25.02L335.93 41L328.94 58.03L326.9 70.94L314.07 56.07L300.98 51.07L288.92 43.1L277.07 32.04L261.95 26.97L252.96 10.93L238.06 7.9L222.9 0.97L211.07 -4.02L196.05 -5.98L185.06 -11.08L173.93 -5.99L158.93 -9.09L148.97 0L136.1 -0.05L127.02 9.02L116.95 15.06L109.91 24.92L100.09 30.03L88.01 34.93L77.92 51.02L65.07 65.04L61.97 86.06L64.07 103.06L64.06 119.09L59.96 134.95L62.05 154.03L68.91 171.07L75.91 180.04L85.97 190.97L98.08 201.99L107.93 210.91L115.91 224.9L141.97 243.09L156.92 248L166.99 262.91L180.96 263.98L189.97 270.95L203.07 274.91L213.08 284.07L226.94 284.03L239.09 285.91L254.96 281.96L268.97 288L287.08 282.05L300.98 285.99L315.98 283.93L334.09 283.03L339.99 300.95L337.05 322.01L342.92 341.94L341.06 362.06L343.09 384.1L334.1 401.04L322.99 413.07L316.03 425.07L309.09 433.92L295.97 436.91L286.98 446.03L278.97 452.99L267 448.92L258.07 456.98L248.01 449.9L236 458L224 460.07L215.04 451.1L200.09 450.97L192.99 448.1L174.94 440.98L187.99 432.09L195.92 420.02L198.05 405.07L200.02 389.01L194.03 376.92L193.01 358.96L178.05 354.01L164.97 341.94L148.99 334.09L133.09 329.06L116.01 330.91L100.05 333.1L91.03 346.91L81 358.98L73.01 374.1L71.06 388.95L69.07 403.08L75.92 416.99L80.9 436.06L94.05 452.97L109.93 465.01L131.03 474.09L149.01 487.05L166.96 496.06L179.06 496.1L190.09 502.99L202.93 507.07L217.98 506.91L230.05 512.04L245.93 514.05ZM304.95 218.09L289.09 214.02L268.92 211.09L255.94 209.02L244.04 207.97L229.97 206.09L218.03 206.02L203.9 202.07L196 192.06L187.06 175.94L186.03 159.04L186.06 143.09L193.94 125.02L203.04 113.9L213.98 103.05L228.97 96.01L248.97 94.06L264.93 95.93L276.97 99.05L286.91 105.09L297.94 112.06L306.91 119.91L315.92 130.05L323.07 139.97L329.02 149.96L337.01 164.96L336.92 214.01L316.97 214.1Z" fill="rgb(24, 56, 1)" transform="scale(0.994198255328275,-0.9948157401631) translate(3131.5,-1000) rotate(-19)"/>
<path d="M127.97 518.05L146.94 520.96L173.07 520.9L187 516.03L206.05 515.08L213.02 499.99L221.99 488.03L221.98 471.08L226.06 455.06L229.05 437.99L234.09 430.1L247.03 431.06L255 438.93L265.9 444.98L272.95 455L281.98 463.08L293.07 477.97L307.04 491.01L322.98 498.09L336.91 506.96L353.95 510.08L371.05 516.09L386.08 516.07L398.01 514.99L407.92 510.02L419.08 506.08L429.92 498.08L444.05 496.95L457.08 491.05L464.92 481.97L477 474.97L487.06 468L499.95 461.09L515.06 450L521.06 438.05L530.95 428.08L536.95 419.91L543.08 407.05L552.99 387.06L564.1 375.95L567.95 368.07L571.91 353.91L573.1 338.97L578.05 320.02L578.99 304.1L583.96 288.97L583.93 269.99L581.96 254.08L579.04 243.05L577.92 228L577.92 204.91L574.91 185.09L569.96 164.97L567.98 148.94L563.91 137.93L549.06 126.94L541.91 114.95L528.96 105.07L518.07 90.9L504.02 80.01L490.09 71.09L473.9 60.96L456.95 54.05L441.95 44.93L426.98 35.03L410.93 26.95L396.04 23.03L380.94 14.97L365.96 9.94L351.96 6.02L335.95 1.95L322.01 6.02L307.97 6.07L293.93 12.08L276.1 10.07L262.07 12.04L248 20L235.94 24.91L222.09 29.91L219.08 25.05L212.96 8.96L212.93 -9.06L209.9 -18.9L213.08 -32.08L212.1 -42.9L211.98 -82.09L215.99 -101.92L215.96 -141.92L218.91 -157.1L220.93 -171.1L227.05 -180.96L238.91 -190.03L257.05 -190.92L278.93 -193.95L300.07 -197.09L318.01 -200.08L331.95 -212.01L328.95 -221.9L320 -229.9L308.07 -233.91L296.91 -240.91L280 -251.97L264.91 -260.94L249.96 -270.94L233.94 -273.97L216.01 -275.92L198.04 -276.91L179.92 -273.99L161.96 -275.95L144.06 -273.92L126 -273.07L46.99 -272.9L30.1 -270.99L15.09 -263.97L6.06 -255.96L1.02 -246.08L5.91 -234.04L8.91 -224.01L15.01 -211.93L26.91 -202.05L35.96 -194.06L45.04 -187.95L55.02 -179.02L66.96 -177.04L81.07 -167.93L90.95 -166.1L94.06 -158.94L94.01 -144.92L90.92 -130.07L86.03 -116.91L91.06 -101.93L91.05 -88.02L92.92 -73.91L94.01 -59.07L96.09 -43.1L93.05 -29.02L96.93 -14.92L98.97 -1.06L100.97 16.92L102.08 30.06L105.09 46.91L102 61.07L104.97 77.08L107.08 93.1L105.08 108.93L107.01 126.02L107.03 140.99L105.09 158.09L104.96 173.99L108.04 189.99L101.9 201.96L105.07 218.06L99.08 232.94L101.03 247.02L101.9 257.05L105.05 270.09L102.02 283.07L104.9 294.04L109.95 303.94L109.99 315.03L108.01 326.05L109.93 341.08L113.05 356.06L110.98 375.91L108.01 400.04L104.91 420.97L93.98 430.1L76.07 433.01L56.04 431.04L39 432.9L24.04 439.03L4.99 443.1L-7.95 449.9L-10.94 460.96L-7.95 476.99L5 484.97L11.92 486.93L24.02 495.97L33.99 495.03L42.05 496.91L53 501.04L68.98 504.09L89.93 506.98L107.91 510.94ZM306.99 408.97L296.93 407.02L287.92 399.91L273.9 390.92L265.92 384.08L257.08 375.92L250 368.02L244.93 358.02L236.91 348.08L234.05 337.09L228.96 323.02L227.07 312.05L222.07 299.97L220.94 285.94L220.9 255.97L222.04 240.04L221.99 212.09L220.93 199.04L221.05 185.05L226.05 174.03L233.93 162.09L244.07 150.97L252.94 143.05L267.99 135.09L282.02 129.98L299.05 126.01L310.92 118.02L326.07 110.91L344.03 105.08L360.97 97.92L374.95 98.08L389.04 100.05L398.97 102.97L410.08 102.99L421.91 108.05L430.05 118L440 129.99L447.04 145.97L451.04 162.01L453.93 178.96L457.02 193.91L458.96 211.02L460.02 230.94L457.06 250.07L454.96 267.09L454.04 283.93L447.1 298.07L441.92 309.09L432.08 324.98L424.05 345.09L411.1 361.09L398.01 376.07L379.07 388.07L361.09 396.94L346.1 403.9L334.08 405.92L322.01 406.92Z" fill="rgb(18, 103, 155)" transform="scale(0.9920704248962984,-0.9879949388207564) translate(3585.8333333333335,-1000) rotate(13)"/>
<path d="M163.03 603.06L176.07 603.91L189.03 599.01L193.95 590.01L201.96 581.96L207 569.04L206.94 536.9L201.96 519.92L207.04 506.98L214.92 497.07L233.02 494.99L252.03 493.08L271.08 494.9L289.04 497.9L304.93 498.07L316.06 494.94L324.9 487.94L330 479.03L329.96 468.96L324.93 460.92L317.01 455.99L307.97 448.07L301.03 440.93L291.03 432.09L280.93 426.06L270.99 418.93L259.92 413.94L246.09 413.93L231.08 412.93L218.03 414.09L207.1 407.99L198.92 400.96L196.91 387.91L195.05 371.92L195.06 354.98L193.94 336.9L197.08 319.99L195.07 303.94L194.97 285.05L196.91 271.01L198.93 259.06L198.98 247.9L199.93 235.98L200.02 213.96L202.99 203.07L203.04 189.97L200.09 178.08L201.94 163.97L200 147.98L202.04 133.06L201.94 119L212.03 93L214.97 81.92L228.08 79.05L243.1 76.91L260.05 84.07L277.91 84.06L290.99 79.95L299.03 75.04L293.91 63.97L286.04 53.03L277.97 40.09L262.96 33.07L250.04 21.99L218.07 5.97L185.9 -4.08L167.96 -7L136.95 -6.91L126.08 -0.04L115.03 4L104.98 15.94L99 33.02L91.97 50.91L89.01 66.05L91.01 77L88.94 88.06L91.01 102.03L89.07 113.96L91.05 125.06L90.94 160.98L88.91 173.03L90.99 184.94L94.02 195.99L92 211.09L94.03 223.99L90.96 237.97L91.1 263.96L86.05 275.06L87.98 287.99L85.97 301.98L83.92 316.99L86.09 332.02L91.09 345.03L91.99 359.01L92.08 390.07L88.07 403.09L83.95 414.07L72.99 413.92L57.98 419.02L44.98 420.96L32.93 425.95L20.95 428.98L14.92 439.94L9.99 450.98L9.97 461.07L20.02 469.02L33 479.03L49.99 484.93L63.03 492.98L77.93 504.02L91.91 511.01L104.92 519.99L114.93 533.08L122.92 541.96L128.06 556L133.94 572.98L141.96 587.97L152.01 597.94Z" fill="rgb(116, 25, 7)" transform="scale(0.9804648332945745,-0.9813995532077513) translate(4228.500000000001,-1000) rotate(18)"/>
<path d="M295.09 510L313.94 510.94L335.96 505.92L360.04 505.9L381.04 501.06L400.06 497.1L414.06 488L428.91 478.18L436.1 460.9L441.15 448.01L443.89 438.13L445.12 421.92L445.06 408.02L443.08 392.03L437.91 374.98L433.9 362.98L428.03 356.18L420.84 346.86L409.93 342.03L399.92 336.1L391.03 330.93L372.12 325.01L351.01 329.04L328 334.15L316.03 352L311.03 370.05L313.85 389.98L317.85 410.05L336.98 429.13L304.11 436.04L256.15 436.03L238.93 430.98L224.95 424.02L213.11 419.09L202.04 410.04L194.96 401.02L191 389L181.01 364.98L175.16 350.07L173.95 336.09L173.98 291.08L167.05 277.08L168.83 260.14L173.97 245.03L178.98 233L181.09 219.85L180.86 205.09L187.98 191.02L198.91 179.01L205.99 160.03L213.93 142.04L231.01 127.97L246.14 116.03L260.05 104.06L275.94 96.89L287.92 95.12L311.87 95.13L325.1 89.96L341.98 91.09L354.04 97.16L366.99 105.92L376.87 117.09L391 120.98L401.09 131.93L417.05 130.11L434.99 128.09L452 120.9L461.04 112.89L458.97 101.99L449.12 83.02L433.06 66.92L412.14 57.03L395.99 49.91L384.95 43.07L369.98 38.97L360.03 32.01L351.08 22.94L339.9 14.1L328.08 4.01L313.9 -3L300.03 -5.02L282.05 -9.94L264.97 -5L254.99 -7.93L242.02 -4.98L231.1 -5L212.98 -3L193.09 5.86L173.94 11.95L155.05 19.01L139.13 33.87L125.01 46.02L110.94 57.07L101.03 64.98L94.05 79.05L85.99 99.01L78.06 117.04L63.95 133.04L59.04 147.96L59.12 159.89L50 169.97L51.98 184.08L42.81 196.01L40.91 214L40.83 236.9L44.99 260.17L51.98 280.02L50.1 300.05L53.02 319.06L60.97 339.91L63.94 359.15L73.95 376.9L84.9 395.89L100.99 409.89L111.04 423.97L123.03 438.89L135 452.02L153.09 456.94L169.1 465.99L182.89 478.06L198.95 487.88L215.9 494.09L233.03 504.01L253.02 507.94L272.02 510.1Z" fill="rgb(127, 19, 154)" transform="scale(1.003429470377036,-1.0060020946363826) translate(4502.166666666668,-1000) rotate(3)"/>
<path d="M66.08 794.94L85.93 798.91L104.99 804.02L122.01 801.02L163.96 807.09L182.92 814L198.97 813.93L206.97 806.04L216.04 798.08L226.98 791.03L241.01 784.05L244.98 769.99L254.97 748.97L241.09 731.02L248.06 710.98L238.93 693.07L247.93 673.07L243.06 653.01L241.02 634.93L233.93 619.07L238.94 606.03L234.01 591.02L240.99 575.07L236.08 561.09L235.95 546.09L229.99 531.03L233.94 517.04L229.95 502.97L237.94 487.06L227.02 472.92L229.08 457.06L235.96 443.92L237.9 442.06L250.98 444.09L261.9 448.92L275.92 455.91L290 470.09L307.95 476L325.98 482.97L341.07 496.09L359.92 497.09L380.07 498.98L401.06 505.97L422 503.06L444.05 501.09L466.1 492.09L479.92 477.96L490.04 463.07L502.97 449.09L511.95 435.09L514.92 422.04L520.9 409.98L517.08 393.97L521.9 379.98L519.04 363.97L519.09 348.06L523.9 332.95L522.08 317.07L507.94 304.93L511.91 289.05L504.99 274.03L502.96 260L500.97 244.95L502.93 228.9L505.98 215.97L507.94 199.99L508.01 187.09L505.96 170.93L507.93 155.95L506.02 138.99L505.9 124.99L502.98 109.09L506.01 93.08L520.97 93.06L534.93 88.92L548.91 99.93L560.99 88.94L574.96 92.99L584.03 86L598.1 79.02L601.97 63.99L574.96 46.07L555.06 43L540.09 33.98L530 20L512.01 15.96L496.01 10.95L480.96 6.96L464.98 8.94L449.05 -3.03L433.04 -5L419.08 0.01L403.07 -2.03L388.96 -1.92L378.91 7.05L374.94 17.98L374.96 35.95L371.02 51.06L375.04 64.07L375.04 117.97L373.92 137.92L375.06 155.92L376.96 172.98L378.09 188.94L378.94 203.96L381.02 219.92L381.08 236.09L390.05 250.99L390.03 268.96L398.92 287.06L394.05 307.99L396.06 327.9L392.07 348.03L389.05 367.08L385.04 386.97L374.09 401L367.1 417.09L345.9 409.91L331.07 410.02L314.91 406.09L305.94 394.03L287.04 389.95L269.03 385.01L256.02 368.97L235.99 364.05L233.95 344.93L223 334.95L221.92 321.9L223.08 312.03L222.99 299.01L227.03 289.09L222.03 272.93L222.03 254.93L219.99 236.05L226.97 216.03L226.95 198.99L219.92 182.92L230.1 165.04L228.99 147.96L225.05 128.92L227.09 112.95L229.98 91.09L247.91 82.07L268.98 83.99L280.93 67.91L298.95 56.05L306.03 51.01L300.96 45.94L294.02 38.07L280 35.93L266.93 29.98L260.01 16.01L243.03 10.99L229.05 -1.99L212.91 -7.08L199.94 -7L184.95 1.9L164.06 -5.05L138.92 2.01L119.92 -4.99L97.94 -5.06L76.96 -2.08L58 -7.05L38.08 -2.94L22.98 10.95L11 19.98L19.93 35.98L32 48L47.98 57.96L59.91 68.06L73 74.97L83.99 89.07L96.94 97.94L101.93 104.95L105.07 116.03L103.94 126.99L98.07 138.94L107.01 152.94L101.92 166.93L108.97 180.03L101.95 189.91L102.1 201.96L105.08 212.99L106.99 227.04L100.08 239.03L104.96 252.97L110.96 264.91L112.99 278.02L115.95 289.99L108.97 303L113.97 317.03L111 330.91L117.96 342.93L121.94 358.04L113.02 372.08L122.1 387.01L121.96 398.97L109.02 411.92L112.99 428.1L112.98 443.94L113.97 460.99L110.97 481.07L108.92 503.03L109.01 523.95L115.92 544.03L108.96 565.1L118.07 583.92L113.91 600.09L112.99 610.08L120.08 627.94L122.09 649.01L113.99 671.93L118.04 691.01L113.97 706.99L104.06 714.06L89 721.93L74.96 714.09L59.98 717.94L43.03 719.96L27.03 719.97L13.95 726.95L6.93 737.9L-6.98 746.92L-4.92 764.02L6.97 773.01L16 782.01L30.04 782.98L38.08 792.96L50.91 794.94Z" fill="rgb(44, 29, 7)" transform="scale(1.0012666640950028,-1.0129491161822581) translate(4958.500000000001,-1000) rotate(-15)"/>
<path d="M260.01 511.98L276.93 517.95L295.92 510.95L315.82 515.06L336.16 515.07L353.07 506.94L371.92 505.88L387.98 504.09L404.11 495.16L416.85 489.18L427.96 485.95L435.12 470.13L450.17 453.05L456.95 428L465.01 411.1L460.97 398.86L460.99 386.18L464.89 359.87L459.02 346.04L461.06 331.06L459.13 315.01L461.02 300.95L457.02 285.84L458.91 256L457.97 238.91L449.88 226.98L452.97 208.93L449.96 193.99L449 180L445.92 165.94L449.92 152.11L452.99 140.07L456.84 125.1L457.12 114.91L460.95 105.04L462.98 92.02L464.98 80.95L485.98 95.97L501.08 96.96L519.89 104.88L536.06 100.94L539.01 85.97L540.92 71.99L529.1 59.95L515.04 52.97L501 43.14L491 33.91L474.91 29.94L462.94 22.98L437.08 2.88L422.97 -0.09L407.15 -10.89L386.96 -13.07L374.11 -10.86L358.93 -3.92L343.95 8.16L338.98 25.12L335.89 40.96L328.91 57.98L327 70.86L314.17 56.03L300.96 50.99L288.93 43.13L277.01 31.96L261.94 27.03L252.99 11.01L238.01 8L222.82 0.9L211.07 -4.09L196.1 -5.96L184.97 -11.14L173.92 -6.05L158.87 -9.07L149.03 -0.09L136.01 -0.03L126.93 9.03L116.88 15.05L109.92 24.87L100.12 30.05L88 34.96L77.95 51.02L65.04 65.02L62.05 86.15L64.04 103.1L63.99 119L59.87 134.92L61.97 154.05L68.82 171.05L76 179.99L86.01 190.93L98.07 202.08L108 210.89L115.9 224.96L141.97 243.11L156.87 247.93L166.93 262.87L181.03 263.96L189.94 271.05L203.11 274.97L213.1 284.15L226.93 284.01L239.01 285.88L254.9 281.91L269.05 287.96L287.01 282.07L300.93 285.97L315.91 283.95L334.18 283.06L340.06 300.88L337.05 322.02L342.99 341.85L341.16 362.06L343.05 384.18L334.13 401.14L323.02 413.08L315.94 425.09L309 433.89L295.94 437L287.03 446.08L278.95 452.94L267.02 448.87L258.01 456.93L248.1 449.86L236.08 457.96L224.1 460.14L214.99 451.04L200.15 450.88L192.93 448.16L174.95 440.94L188.07 432.09L195.85 420.07L198.08 405.08L200.08 389.11L194 376.96L193.08 358.96L177.97 353.99L164.95 342.02L148.98 334.02L133.11 328.99L116.05 330.86L100.14 333.05L91.02 346.97L81.05 358.94L73.02 374.01L71.08 389.05L69.01 403.02L75.9 416.9L80.9 435.96L94.06 452.92L109.99 465.06L130.96 474.17L148.98 487L167 496L179.11 496.07L190.04 502.96L203.02 507.03L217.93 506.94L230.15 512.01L245.97 514.03ZM304.96 218.15L289.17 214.05L268.98 211.1L255.93 208.92L243.97 207.91L229.98 205.99L217.94 206.06L203.92 202.1L195.93 192.13L187.14 175.86L186.1 159.08L185.97 143.02L194.01 125L203.11 113.84L213.93 103.13L228.9 95.98L248.96 94.02L264.94 95.84L276.95 98.97L286.98 105.17L297.96 112.1L306.93 119.84L315.82 130.13L323.09 139.96L328.94 150L337.04 165.01L336.89 214.1L316.92 214.15Z" fill="rgb(41, 9, 0)" transform="scale(0.9888147294598888,-0.9958599838024838) translate(5485.166666666668,-1000) rotate(-16)"/></g><path d="M50,197 C1323.7166666666667,1011 3701.583333333334,417 5470.450000000001,137" stroke="rgb(19, 112, 149)" stroke-width="5" fill="none"/>
<path d="M150,439 C2061.7166666666667,936 4289.583333333334,1277 5751.450000000001,390" stroke="rgb(5, 77, 58)" stroke-width="5" fill="none"/>
<path d="M271,539 C2237.7166666666667,205 3800.583333333334,120 5687.450000000001,875" stroke="rgb(7, 56, 60)" stroke-width="5" fill="none"/></svg>